<?xml version="1.0" encoding="utf-8"?>
<!-- Generator: Adobe Illustrator 21.0.0, SVG Export Plug-In . SVG Version: 6.00 Build 0)  -->
<svg version="1.1" id="Layer_1" xmlns="http://www.w3.org/2000/svg" xmlns:xlink="http://www.w3.org/1999/xlink" x="0px" y="0px"
	 viewBox="0 0 34.8 40" xml:space="preserve">
<style type="text/css">
	.st0{fill:#FFFFFF;}
	.st1{opacity:0.75;fill:#FFFFFF;}
	.st2{opacity:0.35;}
	.st3{fill:#41479B;}
	.st4{fill:#F5F5F5;}
	.st5{fill:#E7343F;}
	.st6{fill:#DADADA;}
	.st7{fill:#73AF00;}
	.st8{fill:#F9F9FA;}
	.st9{fill:#FFD250;}
	.st10{fill:#00C3A0;}
	.st11{fill:#00AADC;}
	.st12{fill:#732D37;}
	.st13{fill:#AAD264;}
	.st14{fill:#874150;}
	.st15{fill:#783C46;}
	.st16{fill:#FFE15A;}
	.st17{fill:#FFB478;}
	.st18{fill:#9B4B5A;}
	.st19{fill:none;stroke:#FFE15A;stroke-width:6;stroke-linecap:round;stroke-linejoin:round;stroke-miterlimit:10;}
	.st20{fill:#FF4B55;}
	.st21{fill:#47113D;}
	.st22{fill:none;}
</style>
<path class="st21" d="M34.5,20l-16.5-9.4V5.2h3.9c0.4,0,0.6-0.3,0.6-0.6c0-0.4-0.3-0.6-0.6-0.6h-3.9V0.6c0-0.4-0.3-0.6-0.6-0.6
	c-0.4,0-0.6,0.3-0.6,0.6v3.3h-3.9c-0.4,0-0.6,0.3-0.6,0.6c0,0.4,0.3,0.6,0.6,0.6h3.9v5.4L0.3,20C0.1,20.1,0,20.3,0,20.5v18.8
	C0,39.7,0.3,40,0.6,40h10.5c0,0,0.1,0,0.1,0c0,0,0.1,0,0.1,0h7.7h1.3h3.9h9.9c0.4,0,0.6-0.3,0.6-0.6V20.5
	C34.8,20.3,34.7,20.1,34.5,20z M23.7,38.7h-3.2h-1.3h-7.3V28.5c0-1.9,1.5-5.9,5.9-5.9c4.1,0,5.9,3.9,5.9,5.9V38.7z"/>
</svg>
