<?xml version="1.0" encoding="utf-8"?>
<!-- Generator: Adobe Illustrator 21.0.0, SVG Export Plug-In . SVG Version: 6.00 Build 0)  -->
<svg version="1.1" id="Layer_1" xmlns="http://www.w3.org/2000/svg" xmlns:xlink="http://www.w3.org/1999/xlink" x="0px" y="0px"
	 viewBox="0 0 43.5 40" xml:space="preserve">
<style type="text/css">
	.st0{fill:#FFFFFF;}
	.st1{opacity:0.75;fill:#FFFFFF;}
	.st2{opacity:0.35;}
	.st3{fill:#41479B;}
	.st4{fill:#F5F5F5;}
	.st5{fill:#E7343F;}
	.st6{fill:#DADADA;}
	.st7{fill:#73AF00;}
	.st8{fill:#F9F9FA;}
	.st9{fill:#FFD250;}
	.st10{fill:#00C3A0;}
	.st11{fill:#00AADC;}
	.st12{fill:#732D37;}
	.st13{fill:#AAD264;}
	.st14{fill:#874150;}
	.st15{fill:#783C46;}
	.st16{fill:#FFE15A;}
	.st17{fill:#FFB478;}
	.st18{fill:#9B4B5A;}
	.st19{fill:none;stroke:#FFE15A;stroke-width:6;stroke-linecap:round;stroke-linejoin:round;stroke-miterlimit:10;}
	.st20{fill:#FF4B55;}
	.st21{fill:#47113D;}
	.st22{fill:none;}
</style>
<g>
	<path class="st21" d="M38,14.3c-0.2-0.6-1.4-3.1-5.3-2c-5.6,1.5-4.8-5.9-7.9-4l1.5,9.1c0.9,3.2,4.2,5.1,7.4,4.3
		C36.9,20.8,38.8,17.5,38,14.3z"/>
	<path class="st21" d="M43.5,30.7c-0.1-0.4-0.5-0.6-0.9-0.5l-5.4,1.4l-2-7.6c2.1-0.7,4-2.2,4.9-3.9c1.1-2,1.4-4.3,0.8-6.6L36.1,0.5
		c-0.1-0.4-0.5-0.6-0.9-0.5L21.4,3.7c-0.4,0.1-0.6,0.5-0.6,0.9l0.8,4L8.7,5C8.3,4.9,7.9,5.1,7.8,5.5l-5,13.1C2.2,20.7,2.5,23,3.6,25
		c1,1.7,2.8,3.2,4.9,4l-2.1,7.6L1,35.1C0.6,35,0.1,35.2,0,35.6c-0.1,0.4,0.1,0.8,0.5,0.9L12.8,40c0.1,0,0.1,0,0.2,0
		c0.3,0,0.6-0.2,0.7-0.6c0.1-0.4-0.1-0.8-0.5-0.9L7.8,37l2.1-7.6c0.7,0.2,1.6,0.3,2.2,0.3l0.2,0c3.7-0.2,6.8-2.6,7.8-6.2l2.2-10.9
		l1.1,5.8c1,3.5,4.1,6,7.7,6.2c0.1,0,0.2,0,0.3,0c0.6,0,1.4-0.1,2.1-0.2l2,7.6l-5.4,1.4c-0.4,0.1-0.7,0.5-0.5,0.9
		c0.1,0.3,0.4,0.6,0.7,0.6c0.1,0,0.1,0,0.2,0l12.3-3.3C43.3,31.6,43.6,31.1,43.5,30.7z M18.7,23.2c-0.8,2.8-3.4,5.1-6.4,5.1h-0.1
		c-0.7,0-1.9-0.3-2.6-0.5c-1.9-0.5-3.7-1.9-4.6-3.5C4,22.7,3.8,20.8,4.3,19L9,6.7l12.3,3.5L18.7,23.2z M31.3,23.1
		c-3-0.2-5.6-2.2-6.3-5L22.5,5l12.4-3.3L39.4,14c0.5,1.8,0.2,3.7-0.7,5.3c-0.9,1.5-2.7,2.9-4.6,3.4c-0.7,0.2-1.8,0.4-2.6,0.4
		L31.3,23.1z"/>
	<path class="st21" d="M5.7,19.2c-0.8,3.2,1,6.5,4.2,7.4c3.2,0.9,6.6-1,7.5-4.2l1.6-9c-3.1-2-2.4,5.4-8,3.9
		C7.2,16.2,6,18.6,5.7,19.2z"/>
</g>
</svg>
