<?xml version="1.0" encoding="utf-8"?>
<!-- Generator: Adobe Illustrator 21.0.0, SVG Export Plug-In . SVG Version: 6.00 Build 0)  -->
<svg version="1.1" id="Layer_1" xmlns="http://www.w3.org/2000/svg" xmlns:xlink="http://www.w3.org/1999/xlink" x="0px" y="0px"
	 viewBox="0 0 59.5 40" xml:space="preserve">
<style type="text/css">
	.st0{fill:#FFFFFF;}
	.st1{opacity:0.75;fill:#FFFFFF;}
	.st2{opacity:0.35;}
	.st3{fill:#41479B;}
	.st4{fill:#F5F5F5;}
	.st5{fill:#E7343F;}
	.st6{fill:#DADADA;}
	.st7{fill:#73AF00;}
	.st8{fill:#F9F9FA;}
	.st9{fill:#FFD250;}
	.st10{fill:#00C3A0;}
	.st11{fill:#00AADC;}
	.st12{fill:#732D37;}
	.st13{fill:#AAD264;}
	.st14{fill:#874150;}
	.st15{fill:#783C46;}
	.st16{fill:#FFE15A;}
	.st17{fill:#FFB478;}
	.st18{fill:#9B4B5A;}
	.st19{fill:none;stroke:#FFE15A;stroke-width:6;stroke-linecap:round;stroke-linejoin:round;stroke-miterlimit:10;}
	.st20{fill:#FF4B55;}
	.st21{fill:#47113D;}
	.st22{fill:none;}
</style>
<g>
	<g>
		<g>
			<path class="st21" d="M59.2,10.6L37.3,0.2c-0.3-0.1-0.6,0-0.7,0.2l-4.8,10h2.6L37.9,3l19,9.1L51,24.5l-3.3-1.6v6.6l2.1,1
				c0.3,0.1,0.6,0,0.7-0.2l9-18.9C59.5,11,59.4,10.7,59.2,10.6z"/>
		</g>
		<g>
			<path class="st21" d="M0.3,10.5L22.2,0.1c0.3-0.1,0.6,0,0.7,0.2l4.8,10H25l-3.5-7.3L2.6,12l5.9,12.4l3.3-1.6v6.6l-2.1,1
				c-0.3,0.1-0.6,0-0.7-0.2l-9-18.9C-0.1,10.9,0,10.6,0.3,10.5z"/>
		</g>
		<g>
			<path class="st21" d="M45.6,12.1H14.8c-0.4,0-0.6,0.3-0.6,0.6v26.6c0,0.4,0.3,0.6,0.6,0.6h30.8c0.4,0,0.6-0.3,0.6-0.6V12.7
				C46.2,12.4,45.9,12.1,45.6,12.1z M43.8,32.5h-2c-1.1-2.9-2.5-7-4.7-6.4c-2.5,0.6-3.7,6.4-3.7,6.4s-1.3-6.6-4.8-10.1
				c-3.5-3.5-6.9,10.1-6.9,10.1h-4.6V15h26.7V32.5z"/>
		</g>
		<g>
			<circle class="st21" cx="21.4" cy="18.8" r="2.2"/>
		</g>
		<g>
			<path class="st21" d="M36,20.3c0.5,0,0.9-0.1,1.4-0.1c0.5,0.2,1.1,0.3,1.7,0.3c1.6,0,2.9-0.8,2.9-1.7c0-1-1.3-1.8-2.9-1.8
				c-0.6,0-1.2,0.1-1.6,0.3C37.2,17.1,37,17,36.7,17h-0.4c-0.5,0-1,0.4-1,0.9C34,18.1,33,18.5,33,19.1C33,19.8,34.3,20.3,36,20.3z"
				/>
		</g>
	</g>
</g>
</svg>
