<?xml version="1.0" encoding="utf-8"?>
<!-- Generator: Adobe Illustrator 21.0.0, SVG Export Plug-In . SVG Version: 6.00 Build 0)  -->
<svg version="1.1" id="Layer_1" xmlns="http://www.w3.org/2000/svg" xmlns:xlink="http://www.w3.org/1999/xlink" x="0px" y="0px"
	 viewBox="0 0 47.2 40" style="enable-background:new 0 0 47.2 40;" xml:space="preserve">
<style type="text/css">
	.st0{fill:#47113D;}
</style>
<g>
	<g>
		<path class="st0" d="M43,6.6h-2.2V6.1c0-0.9-0.8-1.7-1.7-1.7h-4.3c-0.9,0-1.7,0.8-1.7,1.7v0.5h-2V5.1C31.1,2.3,28.8,0,26,0h-4.8
			c-2.8,0-5.1,2.3-5.1,5.1v1.5h-2V6.1c0-0.9-0.8-1.7-1.7-1.7H8.1c-0.9,0-1.7,0.8-1.7,1.7v0.5H4.2C1.9,6.6,0,8.5,0,10.8v25
			C0,38.1,1.9,40,4.2,40H43c2.3,0,4.2-1.9,4.2-4.2v-25C47.2,8.5,45.4,6.6,43,6.6z M10.3,14.7c1.3,0,2.3,1,2.3,2.3s-1,2.3-2.3,2.3
			C9,19.4,8,18.3,8,17S9,14.7,10.3,14.7z M18.5,33.3l-1,2.7c-0.1,0.4-0.6,0.6-1,0.4L3.8,31.7c-0.4-0.1-0.6-0.6-0.4-1l1-2.7
			c0.1-0.4,0.6-0.6,1-0.4l12.7,4.8C18.5,32.5,18.7,32.9,18.5,33.3z M19.5,5.1c0-1,0.8-1.7,1.7-1.7H26c1,0,1.7,0.8,1.7,1.7v1.5h-8.3
			L19.5,5.1L19.5,5.1z M29.5,23.8c-0.2,0.3-0.6,0.4-0.9,0.2c-1.4-0.8-2.4-1.1-3.9-1.6c-2.7-0.8-3.7-2.3-3.9-3.2
			c-0.2-0.8-0.1-1.7,0.1-2.4c0.3-0.8,0.9-1.2,1.7-1.4c0.4-0.1,0.7-0.1,1-0.1c1.2,0,3.2,1.4,3.6,1.2c0.6-0.2,1.7-2.7,3.6-3.2
			c0.2-0.1,0.5-0.1,0.7-0.1c1.5,0,2.5,1.5,2.7,2.6c0.2,0.9-0.3,3.1-2.2,5C30.8,22.1,30.3,22.5,29.5,23.8z M37.9,32
			c0,0.4-0.3,0.7-0.7,0.7h-2.9c-0.4,0-0.7-0.3-0.7-0.7v-3c0-0.4,0.3-0.7,0.7-0.7h2.9c0.4,0,0.7,0.3,0.7,0.7V32z"/>
	</g>
</g>
</svg>
