<?xml version="1.0" encoding="utf-8"?>
<!-- Generator: Adobe Illustrator 21.0.0, SVG Export Plug-In . SVG Version: 6.00 Build 0)  -->
<svg version="1.1" id="Layer_1" xmlns="http://www.w3.org/2000/svg" xmlns:xlink="http://www.w3.org/1999/xlink" x="0px" y="0px"
	 viewBox="0 0 105 65" xml:space="preserve">
<style type="text/css">
	.st0{fill:#FFFFFF;}
	.st1{opacity:0.75;fill:#FFFFFF;}
	.st2{opacity:0.35;}
	.st3{fill:#41479B;}
	.st4{fill:#F5F5F5;}
	.st5{fill:#E7343F;}
	.st6{fill:#DADADA;}
	.st7{fill:#73AF00;}
	.st8{fill:#F9F9FA;}
	.st9{fill:#FFD250;}
	.st10{fill:#00C3A0;}
	.st11{fill:#00AADC;}
	.st12{fill:#732D37;}
	.st13{fill:#AAD264;}
	.st14{fill:#874150;}
	.st15{fill:#783C46;}
	.st16{fill:#FFE15A;}
	.st17{fill:#FFB478;}
	.st18{fill:#9B4B5A;}
	.st19{fill:none;stroke:#FFE15A;stroke-width:6;stroke-linecap:round;stroke-linejoin:round;stroke-miterlimit:10;}
	.st20{fill:#FF4B55;}
	.st21{fill:#47113D;}
	.st22{fill:none;}
</style>
<g>
	<g>
		<path class="st0" d="M73.7,46.6C73.6,46.6,73.6,46.6,73.7,46.6c-1.3,0.2-2.8,4-1.8,4.7c0.2,0.2,0.4,0.2,0.7,0.2
			c0.7-0.1,1.4-1.2,1.8-1.3c0.5-0.1,1.1,0.7,1.8,0.6c0.2,0,0.4-0.1,0.7-0.4C77.8,49.4,74.8,46.5,73.7,46.6z"/>
		<path class="st0" d="M63.2,43.2c0.5-0.3,0.8-0.7,0.9-1.1c0.2-0.5,0.1-1-0.2-1.5c-0.4-0.6-0.8-1-1.4-1.1c-0.5-0.1-1.1,0.2-1.5,0.5
			c0.2-0.5,0.3-1,0.2-1.4c-0.1-0.5-0.4-0.9-1-1.1c-0.7-0.3-1.2-0.4-1.7-0.2c-0.5,0.2-0.8,0.7-1,1.2c-0.1-0.6-0.3-1-0.6-1.3
			c-0.3-0.3-0.8-0.5-1.4-0.4c-0.8,0.1-1.3,0.4-1.6,0.8c-0.3,0.5-0.3,1.1-0.1,1.7c-0.3-0.4-0.8-0.8-1.2-0.9c-0.5-0.1-1,0-1.5,0.4
			c-0.6,0.5-0.9,1-0.9,1.5c0,0.5,0.3,1,0.7,1.4c-0.5-0.2-1-0.1-1.4,0c-0.4,0.2-0.8,0.6-1,1.1c-0.2,0.7-0.2,1.3,0.1,1.7
			c0.3,0.4,0.8,0.7,1.4,0.8c-0.5,0.2-0.9,0.4-1.2,0.8c-0.3,0.4-0.3,0.9-0.2,1.5c0.2,0.7,0.5,1.2,1,1.4c0.3,0.1,0.7,0.2,1.1,0.1
			c0.2,0,0.3-0.1,0.5-0.1c-0.4,0.4-0.6,0.9-0.6,1.3c0,0.5,0.2,0.9,0.6,1.4c0.5,0.5,1.1,0.7,1.6,0.6c0,0,0,0,0,0
			c0.5-0.1,1-0.5,1.3-0.9c-0.1,0.6,0,1,0.2,1.4c0.2,0.4,0.7,0.7,1.3,0.8c0.3,0.1,0.7,0.1,0.9,0c0.3-0.1,0.6-0.2,0.8-0.4
			c0.4-0.4,0.6-0.9,0.6-1.5c0.2,0.5,0.6,0.9,0.9,1.1c0.3,0.2,0.6,0.2,1,0.1c0.2,0,0.3-0.1,0.5-0.1c0.7-0.3,1.1-0.7,1.3-1.2
			c0.1-0.5,0-1.1-0.3-1.6c0.5,0.3,0.9,0.4,1.4,0.4c0,0,0.1,0,0.1,0c0.4-0.1,0.8-0.3,1.1-0.8c0.4-0.6,0.6-1.2,0.4-1.7
			c-0.2-0.5-0.6-0.9-1.1-1.2c0.2,0,0.3,0,0.5,0c0.3-0.1,0.6-0.2,0.8-0.4c0.4-0.3,0.6-0.8,0.6-1.4c0-0.7-0.2-1.3-0.6-1.6
			C64.3,43.3,63.8,43.2,63.2,43.2z M62.4,44.1C62.4,44.1,62.4,44.1,62.4,44.1c0.1,0,0.1,0.1,0.2,0.1c0,0,0,0,0,0
			c0,0,0.1,0.1,0.1,0.1c0.2,0.2,0.3,0.5,0.3,1c0,0.1,0,0.2,0,0.2c0,0,0,0,0,0.1c0,0,0,0.1,0,0.1c0,0,0,0,0,0.1c0,0,0,0.1-0.1,0.1
			c0,0,0,0,0,0.1c0,0-0.1,0.1-0.1,0.1c0,0,0,0,0,0c0,0-0.1,0.1-0.1,0.1c0,0,0,0-0.1,0c0,0-0.1,0-0.1,0.1c0,0,0,0-0.1,0
			c0,0-0.1,0-0.1,0c0,0-0.1,0-0.1,0c0,0,0,0,0,0l0,0c0-0.1,0-0.3,0.1-0.4c0,0,0,0,0-0.1c0-0.1,0-0.3,0-0.4c0,0,0,0,0-0.1
			c0-0.1,0-0.3,0-0.4c0,0,0,0,0-0.1c0-0.1,0-0.3-0.1-0.4c0-0.1,0-0.2-0.1-0.3c0,0,0,0,0-0.1c0,0,0,0,0-0.1c0,0,0,0,0,0
			c0.1,0,0.2,0,0.2,0l0,0C62.3,44,62.3,44,62.4,44.1z M61.9,48.8C61.9,48.8,61.9,48.8,61.9,48.8c-0.1,0.1-0.1,0.1-0.1,0.1
			c0,0,0,0,0,0c-0.1,0-0.1,0.1-0.1,0.1c0,0,0,0,0,0c0,0-0.1,0-0.1,0.1l0,0c-0.1,0-0.1,0-0.2,0h0c-0.1,0-0.1,0-0.2,0l0,0
			c-0.1,0-0.1,0-0.2,0c0,0,0,0,0,0c-0.1,0-0.1,0-0.2-0.1l0,0c0,0,0,0,0,0c0,0,0.1-0.1,0.1-0.1c0-0.1,0.1-0.1,0.1-0.2
			c0,0,0.1-0.1,0.1-0.1c0-0.1,0.1-0.1,0.1-0.2c0,0,0-0.1,0.1-0.1c0.1-0.1,0.1-0.2,0.2-0.3c0,0,0,0,0,0c0-0.1,0.1-0.2,0.1-0.3
			c0,0,0-0.1,0-0.1c0-0.1,0.1-0.1,0.1-0.2c0,0,0-0.1,0-0.1c0-0.1,0.1-0.1,0.1-0.2c0,0,0-0.1,0-0.1c0,0,0,0,0-0.1c0,0,0,0,0,0
			c0,0,0,0,0,0c0,0,0.1,0,0.1,0.1c0,0,0,0,0,0c0,0,0.1,0.1,0.1,0.1c0,0,0,0,0,0c0,0,0,0,0,0.1c0,0,0,0,0,0c0,0,0,0,0,0.1
			c0,0,0,0,0,0c0,0,0,0,0,0.1c0,0,0,0,0,0c0,0,0,0.1,0,0.1c0.1,0.3,0,0.6-0.3,0.9C62,48.7,62,48.7,61.9,48.8z M60.3,50
			c0,0.1,0,0.1,0,0.2c0,0,0,0,0,0c0,0.1,0,0.1,0,0.2c-0.1,0.3-0.4,0.5-0.8,0.6c-0.1,0-0.1,0-0.2,0.1c0,0,0,0,0,0c-0.1,0-0.1,0-0.2,0
			c0,0,0,0,0,0c-0.1,0-0.1,0-0.2,0c0,0,0,0,0,0c-0.1,0-0.1,0-0.1,0c0,0,0,0,0,0c0,0-0.1,0-0.1-0.1c0,0,0,0,0,0c0,0-0.1-0.1-0.1-0.1
			c0,0,0,0,0,0c0,0-0.1-0.1-0.1-0.1c0,0,0,0,0,0c0,0-0.1-0.1-0.1-0.2c0,0,0,0,0,0c0,0,0,0,0.1,0c0,0,0.1,0,0.1,0
			c0.1,0,0.1,0,0.2-0.1c0,0,0.1,0,0.1,0c0.1,0,0.1-0.1,0.2-0.1c0,0,0.1,0,0.1,0c0.1,0,0.2-0.1,0.3-0.1l0,0c0.1,0,0.2-0.1,0.3-0.2
			c0,0,0.1,0,0.1-0.1c0.1,0,0.1-0.1,0.2-0.1c0,0,0.1,0,0.1-0.1c0.1,0,0.1-0.1,0.2-0.1c0,0,0.1,0,0.1-0.1c0,0,0,0,0,0c0,0,0,0,0,0
			c0,0.1,0,0.1,0.1,0.2l0,0C60.3,49.8,60.3,49.9,60.3,50C60.3,49.9,60.3,49.9,60.3,50z M57.3,50.9L57.3,50.9c0,0.1-0.1,0.1-0.1,0.2
			c0,0,0,0,0,0c0,0.1-0.1,0.1-0.1,0.1c0,0,0,0,0,0c0,0-0.1,0.1-0.1,0.1c0,0-0.1,0-0.1,0.1c-0.2,0.1-0.4,0.1-0.6,0.1
			c-0.1,0-0.2,0-0.3,0l0,0c-0.1,0-0.1,0-0.2-0.1c0,0,0,0,0,0c-0.1,0-0.1,0-0.2-0.1c0,0,0,0,0,0c0,0-0.1-0.1-0.1-0.1c0,0,0,0,0,0
			c0,0-0.1-0.1-0.1-0.1c0,0,0,0,0,0c0,0-0.1-0.1-0.1-0.1l0,0c0,0,0-0.1-0.1-0.2c0,0,0,0,0,0c0-0.1,0-0.1,0-0.2c0,0,0,0,0,0
			c0-0.1,0-0.1,0-0.2v0c0,0,0,0,0.1,0c0,0,0.1,0,0.1,0c0.1,0,0.1,0,0.2,0.1c0,0,0.1,0,0.1,0c0.1,0,0.1,0,0.2,0c0,0,0.1,0,0.1,0
			c0.1,0,0.2,0,0.3,0l0,0c0.1,0,0.2,0,0.3,0c0,0,0.1,0,0.1,0c0.1,0,0.1,0,0.2,0c0,0,0.1,0,0.1,0c0.1,0,0.1,0,0.2,0c0,0,0.1,0,0.1,0
			c0,0,0,0,0.1,0c0,0,0,0,0,0C57.4,50.8,57.3,50.9,57.3,50.9z M54.4,50.2C54.3,50.2,54.3,50.2,54.4,50.2c-0.1,0.1-0.1,0.1-0.1,0.1
			c0,0,0,0,0,0c0,0-0.1,0.1-0.1,0.1c0,0,0,0,0,0c0,0,0,0-0.1,0c0,0,0,0,0,0c0,0,0,0-0.1,0c0,0,0,0,0,0c0,0,0,0-0.1,0c0,0,0,0,0,0
			c0,0-0.1,0-0.1,0c-0.3,0-0.6-0.1-0.9-0.4c-0.1,0-0.1-0.1-0.1-0.1c0,0,0,0,0,0c0,0-0.1-0.1-0.1-0.1c0,0,0,0,0,0c0,0,0-0.1-0.1-0.1
			c0,0,0,0,0,0c0-0.1,0-0.1,0-0.2c0,0,0,0,0,0c0-0.1,0-0.1,0-0.2v0c0-0.1,0-0.1,0-0.2c0,0,0,0,0,0c0-0.1,0-0.1,0.1-0.2c0,0,0,0,0,0
			c0-0.1,0.1-0.1,0.1-0.2l0,0c0,0,0,0,0,0.1c0,0,0,0.1,0.1,0.1c0,0.1,0.1,0.1,0.1,0.2c0,0,0.1,0.1,0.1,0.1c0.1,0.1,0.1,0.1,0.2,0.2
			c0,0,0,0,0.1,0.1c0.1,0.1,0.2,0.1,0.2,0.2l0,0c0.1,0.1,0.2,0.1,0.2,0.2c0,0,0.1,0,0.1,0.1c0.1,0,0.1,0.1,0.2,0.1
			c0,0,0.1,0,0.1,0.1c0.1,0,0.1,0.1,0.2,0.1C54.3,50.1,54.3,50.1,54.4,50.2C54.4,50.2,54.4,50.2,54.4,50.2
			C54.4,50.2,54.4,50.2,54.4,50.2z M51.9,48.2c-0.1,0-0.1,0-0.2,0c0,0,0,0,0,0c-0.1,0-0.1,0-0.2,0c0,0,0,0,0,0c-0.1,0-0.1,0-0.2-0.1
			c-0.3-0.1-0.4-0.4-0.5-0.8c0-0.1,0-0.2,0-0.2c0,0,0,0,0-0.1c0,0,0-0.1,0-0.1c0,0,0-0.1,0-0.1c0,0,0-0.1,0-0.1c0,0,0,0,0-0.1
			c0,0,0-0.1,0-0.1c0,0,0,0,0-0.1c0,0,0-0.1,0.1-0.1c0,0,0,0,0.1-0.1c0,0,0.1-0.1,0.1-0.1c0,0,0,0,0.1-0.1c0,0,0.1,0,0.1-0.1
			c0,0,0.1,0,0.1,0c0,0,0,0,0,0s0,0,0,0c0,0.1,0,0.2,0,0.3c0,0.1,0,0.2,0.1,0.3c0,0,0,0.1,0,0.1c0,0.1,0,0.1,0,0.2c0,0,0,0.1,0,0.1
			c0,0.1,0,0.1,0.1,0.2c0,0,0,0.1,0,0.1c0,0.1,0,0.1,0.1,0.2c0,0,0,0,0,0.1c0,0.1,0.1,0.1,0.1,0.2c0,0,0,0,0,0
			c0,0.1,0.1,0.1,0.1,0.2c0,0,0,0,0,0c0.1,0.1,0.1,0.2,0.2,0.3c0,0,0,0,0,0C52.1,48.2,52,48.2,51.9,48.2
			C51.9,48.2,51.9,48.2,51.9,48.2z M51,45C51,45,50.9,45,51,45C50.9,44.9,50.9,44.9,51,45c-0.1-0.1-0.1-0.1-0.1-0.1c0,0,0,0,0-0.1
			c0,0,0,0,0,0c0,0,0-0.1-0.1-0.1c-0.1-0.3-0.1-0.6,0-1c0,0,0-0.1,0.1-0.1c0,0,0,0,0,0c0,0,0-0.1,0-0.1c0,0,0,0,0,0
			c0,0,0-0.1,0.1-0.1c0,0,0,0,0,0c0,0,0.1-0.1,0.1-0.1c0,0,0,0,0,0c0,0,0,0,0.1-0.1c0,0,0,0,0,0c0,0,0,0,0.1,0c0,0,0,0,0,0
			c0,0,0.1,0,0.1,0l0,0c0,0,0.1,0,0.1,0c0,0,0,0,0,0c0,0,0,0,0.1,0c0,0,0,0,0.1,0c0,0,0,0,0.1,0c0,0,0,0,0.1,0c0,0,0,0,0.1,0
			c0,0,0,0,0.1,0c0,0,0,0,0.1,0c0,0,0,0,0,0c0,0,0,0,0,0.1c0,0,0,0.1,0,0.1c0,0.1-0.1,0.1-0.1,0.2c0,0,0,0.1,0,0.1
			c0,0.1-0.1,0.1-0.1,0.2c0,0,0,0.1,0,0.1c0,0.1-0.1,0.2-0.1,0.3l0,0c0,0.1,0,0.2-0.1,0.3c0,0,0,0.1,0,0.1c0,0.1,0,0.1,0,0.2
			c0,0,0,0.1,0,0.1c0,0.1,0,0.1,0,0.2c0,0,0,0.1,0,0.1c0,0,0,0,0,0.1c0,0,0,0-0.1,0c0,0,0,0,0,0c0,0-0.1,0-0.1-0.1c0,0,0,0,0,0
			C51.1,45.1,51.1,45.1,51,45C51.1,45.1,51,45,51,45C51,45,51,45,51,45z M52,41.7c0,0,0-0.1,0-0.1c0-0.3,0.2-0.6,0.5-0.8
			c0,0,0.1-0.1,0.1-0.1c0,0,0,0,0,0c0,0,0.1,0,0.1-0.1c0,0,0,0,0,0c0,0,0.1,0,0.1,0c0,0,0,0,0,0c0,0,0.1,0,0.1,0c0,0,0,0,0,0
			c0,0,0,0,0.1,0c0,0,0,0,0,0c0,0,0,0,0.1,0c0,0,0,0,0,0c0,0,0,0,0.1,0c0,0,0,0,0,0c0,0,0,0,0.1,0c0,0,0,0,0,0c0,0,0.1,0,0.1,0
			c0,0,0,0,0,0c0,0,0,0,0.1,0c0,0,0,0,0,0c0,0,0,0,0.1,0c0,0,0,0,0,0c0,0,0,0,0.1,0.1c0,0,0,0,0,0c0,0,0,0-0.1,0c0,0-0.1,0-0.1,0.1
			c-0.1,0-0.1,0.1-0.2,0.1c0,0-0.1,0-0.1,0.1c-0.1,0-0.1,0.1-0.2,0.1c0,0-0.1,0-0.1,0.1c-0.1,0.1-0.2,0.1-0.2,0.2c0,0,0,0,0,0
			c-0.1,0.1-0.1,0.1-0.2,0.2c0,0,0,0.1-0.1,0.1c0,0.1-0.1,0.1-0.1,0.2c0,0-0.1,0.1-0.1,0.1c0,0.1-0.1,0.1-0.1,0.2c0,0,0,0.1-0.1,0.1
			c0,0,0,0,0,0.1c0,0,0,0,0-0.1c0,0,0,0,0,0c0,0,0-0.1-0.1-0.1c0,0,0,0,0,0c0,0,0-0.1-0.1-0.1c0,0,0,0,0,0c0,0,0-0.1,0-0.1
			c0,0,0,0,0,0c0,0,0,0,0-0.1c0,0,0,0,0,0C52,41.7,52,41.7,52,41.7C52,41.7,52,41.7,52,41.7z M54.7,40C54.7,39.9,54.7,39.9,54.7,40
			c0-0.1,0-0.2,0.1-0.2c0,0,0,0,0,0c0-0.1,0.1-0.1,0.1-0.1c0,0,0.1-0.1,0.1-0.1c0,0,0,0,0,0c0,0,0.1-0.1,0.1-0.1c0,0,0,0,0,0
			c0.1,0,0.1-0.1,0.2-0.1c0,0,0,0,0,0c0.1,0,0.1,0,0.2,0c0,0,0,0,0,0c0.1,0,0.1,0,0.2,0c0.1,0,0.2,0,0.2,0c0,0,0,0,0.1,0
			c0,0,0.1,0,0.1,0c0,0,0,0,0.1,0c0,0,0.1,0,0.1,0c0,0,0,0,0.1,0c0,0,0.1,0,0.1,0.1c0,0,0,0,0.1,0.1c0,0,0.1,0.1,0.1,0.1
			c0,0,0,0,0.1,0.1c0,0,0,0.1,0.1,0.1c0,0,0,0.1,0,0.1c0,0,0,0.1,0,0.1c0,0,0,0.1,0,0.1c0,0,0,0,0,0c0,0,0,0-0.1,0c0,0-0.1,0-0.1,0
			c-0.1,0-0.1,0-0.2,0c0,0-0.1,0-0.1,0c-0.1,0-0.2,0-0.2,0c0,0-0.1,0-0.1,0c-0.2,0-0.4,0.1-0.6,0.1c0,0,0,0-0.1,0
			c-0.1,0-0.2,0-0.2,0.1c0,0-0.1,0-0.1,0c-0.1,0-0.1,0.1-0.2,0.1c0,0-0.1,0-0.1,0c0,0,0,0-0.1,0c0,0,0,0,0,0
			C54.7,40.2,54.7,40.1,54.7,40z M57.7,40C57.7,40,57.7,40,57.7,40c0-0.1,0.1-0.1,0.1-0.2l0,0c0,0,0.1-0.1,0.1-0.1c0,0,0,0,0,0
			c0,0,0,0,0.1-0.1c0,0,0,0,0,0c0,0,0,0,0.1,0c0,0,0,0,0,0c0,0,0,0,0.1,0c0,0,0,0,0,0c0,0,0.1,0,0.1,0c0.3-0.1,0.6,0,1,0.2
			c0.1,0,0.1,0.1,0.2,0.1c0,0,0,0,0,0c0.1,0,0.1,0.1,0.1,0.1c0,0,0,0,0,0c0,0,0.1,0.1,0.1,0.1c0,0,0,0,0,0c0,0,0.1,0.1,0.1,0.1l0,0
			c0,0.1,0,0.1,0,0.2v0c0,0.1,0,0.1,0,0.2c0,0,0,0,0,0c0,0.1,0,0.1,0,0.2c0,0,0,0,0,0c0,0.1,0,0.1-0.1,0.2c0,0,0,0,0,0
			c0,0,0,0-0.1,0c0,0-0.1,0-0.1-0.1c-0.1,0-0.1-0.1-0.2-0.1c0,0-0.1,0-0.1-0.1c-0.1,0-0.1-0.1-0.2-0.1c0,0-0.1,0-0.1,0
			c-0.1,0-0.2-0.1-0.3-0.1c0,0,0,0,0,0c-0.1,0-0.2-0.1-0.3-0.1c0,0-0.1,0-0.1,0c-0.1,0-0.1,0-0.2-0.1c0,0-0.1,0-0.1,0
			c-0.1,0-0.1,0-0.2,0C57.8,40.1,57.8,40.1,57.7,40C57.7,40.1,57.7,40.1,57.7,40C57.7,40.1,57.7,40,57.7,40z M60.6,41.3L60.6,41.3
			c0,0,0.1,0,0.1,0c0,0,0,0,0,0c0,0,0.1,0,0.1,0c0,0,0,0,0,0c0,0,0.1,0,0.1,0c0,0,0,0,0,0c0,0,0.1,0,0.1,0c0,0,0,0,0,0
			c0,0,0.1,0,0.1,0c0.3,0.1,0.5,0.3,0.7,0.7c0,0.1,0.1,0.1,0.1,0.2c0,0,0,0,0,0c0,0.1,0,0.1,0.1,0.2c0,0,0,0,0,0c0,0.1,0,0.1,0,0.2
			c0,0,0,0,0,0c0,0.1,0,0.1,0,0.2c0,0,0,0,0,0c0,0.1-0.1,0.2-0.1,0.3l0,0c0,0-0.1,0.1-0.1,0.1c0,0,0,0,0,0c0,0-0.1,0.1-0.1,0.1
			c0,0,0,0,0,0c0,0,0,0,0-0.1c0,0,0-0.1,0-0.1c0-0.1-0.1-0.1-0.1-0.2c0,0,0-0.1-0.1-0.1c0-0.1-0.1-0.1-0.1-0.2c0,0,0-0.1-0.1-0.1
			c-0.1-0.1-0.1-0.2-0.2-0.3c0,0,0,0,0,0c-0.1-0.1-0.1-0.2-0.2-0.2c0,0,0-0.1-0.1-0.1c0-0.1-0.1-0.1-0.1-0.2c0,0-0.1-0.1-0.1-0.1
			c0,0-0.1-0.1-0.1-0.1c0,0-0.1-0.1-0.1-0.1c0,0,0,0,0,0c0,0,0,0,0.1,0c0,0,0,0,0,0C60.5,41.3,60.6,41.3,60.6,41.3z M62.5,39.9
			c0.4,0.1,0.8,0.4,1.1,0.9c0.2,0.4,0.3,0.8,0.2,1.2c-0.2,0.6-1,1.1-1.6,1.3l0,0c0-0.1,0.1-0.1,0.1-0.2c0,0,0,0,0,0
			c0-0.1,0.1-0.1,0.1-0.2c0,0,0,0,0,0c0-0.1,0-0.1,0.1-0.2c0,0,0,0,0,0c0-0.1,0-0.1,0-0.2c0,0,0,0,0,0c0-0.1,0-0.1,0-0.2
			c0,0,0,0,0,0c0-0.1,0-0.1,0-0.2c0,0,0,0,0,0c0-0.1,0-0.1-0.1-0.2c0,0,0,0,0,0c0-0.1-0.1-0.1-0.1-0.2c-0.3-0.5-0.6-0.7-1-0.8
			c0,0-0.1,0-0.1,0c0,0,0,0,0,0c0,0-0.1,0-0.1,0c0,0,0,0,0,0c0,0-0.1,0-0.1,0c0,0,0,0,0,0l0,0c0,0,0,0-0.1,0c0,0-0.1,0-0.1,0
			c0,0-0.1,0-0.1,0c0,0-0.1,0-0.1,0c0,0,0,0,0,0C61,40.4,61.8,39.8,62.5,39.9z M58.6,37.7c0.4-0.2,0.9-0.1,1.4,0.2
			c0.4,0.2,0.7,0.5,0.8,0.9c0.2,0.6-0.3,1.4-0.6,2l0,0c0-0.1,0-0.1,0-0.2c0,0,0,0,0,0c0-0.1,0-0.1,0-0.2c0,0,0,0,0,0
			c0-0.1,0-0.1,0-0.2c0,0,0,0,0,0c0,0,0-0.1-0.1-0.1c0,0,0,0,0,0c0-0.1-0.1-0.1-0.1-0.2c0,0,0,0,0,0c0,0-0.1-0.1-0.1-0.1
			c0,0,0,0,0,0c0,0-0.1-0.1-0.2-0.1c0,0,0,0,0,0c-0.1,0-0.1-0.1-0.2-0.1c-0.1,0-0.1-0.1-0.2-0.1c0,0,0,0-0.1,0c0,0-0.1,0-0.1,0
			c0,0,0,0-0.1,0c0,0-0.1,0-0.1,0c0,0,0,0-0.1,0c0,0-0.1,0-0.1,0c0,0,0,0,0,0c0,0-0.1,0-0.1,0c0,0,0,0,0,0c0,0-0.1,0-0.1,0
			c0,0,0,0,0,0c0,0,0,0-0.1,0c0,0,0,0,0,0c-0.1,0-0.1,0-0.2,0c-0.1,0-0.1,0-0.2,0.1c0,0,0,0,0,0c0,0-0.1,0.1-0.1,0.1c0,0,0,0,0,0
			c0,0-0.1,0.1-0.1,0.1l0,0c0,0.1-0.1,0.1-0.1,0.2c0,0,0,0,0,0C57.7,38.9,58,38,58.6,37.7z M54.2,37.9c0.2-0.3,0.5-0.5,1.1-0.6
			c0.1,0,0.2,0,0.2,0c0.5,0,0.9,0.1,1.2,0.3c0.5,0.5,0.5,1.3,0.5,2l0,0c0-0.1-0.1-0.1-0.1-0.2c0,0,0,0,0,0c0,0-0.1-0.1-0.1-0.1l0,0
			c0,0-0.1-0.1-0.1-0.1c0,0,0,0,0,0c0,0-0.1-0.1-0.1-0.1l0,0c-0.1,0-0.1-0.1-0.2-0.1c0,0,0,0,0,0c-0.1,0-0.1,0-0.2,0l0,0
			c-0.1,0-0.1,0-0.2,0c0,0,0,0-0.1,0c-0.1,0-0.1,0-0.2,0c-0.5,0-0.9,0.2-1.2,0.5c0,0-0.1,0.1-0.1,0.2c0,0,0,0,0,0c0,0,0,0.1-0.1,0.1
			c0,0,0,0,0,0c0,0.1,0,0.1,0,0.2c0,0,0,0,0,0c0,0.1,0,0.1,0,0.2c0,0,0,0,0,0C54.1,39.5,53.8,38.6,54.2,37.9z M50.5,40.5
			c0-0.4,0.2-0.8,0.7-1.2c0.4-0.3,0.8-0.4,1.2-0.4c0.6,0.1,1.1,0.8,1.5,1.3c0,0,0,0,0,0c-0.1,0-0.1-0.1-0.2-0.1c0,0,0,0,0,0
			c-0.1,0-0.1,0-0.2-0.1c0,0,0,0,0,0c-0.1,0-0.1,0-0.2,0c0,0,0,0,0,0c-0.1,0-0.1,0-0.2,0l0,0c-0.1,0-0.1,0-0.2,0c0,0,0,0,0,0
			c-0.1,0-0.1,0-0.2,0.1l0,0c-0.1,0-0.1,0.1-0.2,0.1c0,0,0,0,0,0c-0.1,0-0.1,0.1-0.2,0.1c-0.4,0.3-0.6,0.7-0.7,1.1
			c0,0.1,0,0.1,0,0.2c0,0,0,0,0,0.1c0,0.1,0,0.1,0,0.2c0,0,0,0,0,0c0,0.1,0,0.1,0.1,0.2c0,0,0,0,0,0c0,0.1,0.1,0.1,0.1,0.2
			c0,0,0,0,0,0c0,0,0,0,0,0C51.3,41.9,50.5,41.3,50.5,40.5z M48.9,44.7c-0.2-0.4-0.3-0.8-0.1-1.4c0.2-0.5,0.4-0.8,0.8-0.9
			c0.6-0.2,1.4,0,2,0.3c0,0,0,0,0,0c-0.1,0-0.1,0-0.2,0c0,0,0,0,0,0c-0.1,0-0.1,0-0.2,0c0,0,0,0,0,0c0,0-0.1,0-0.1,0.1c0,0,0,0,0,0
			c0,0-0.1,0.1-0.1,0.1c0,0,0,0,0,0c0,0-0.1,0.1-0.1,0.1c0,0,0,0,0,0c0,0-0.1,0.1-0.1,0.1c0,0,0,0,0,0c0,0-0.1,0.1-0.1,0.2
			c0,0,0,0,0,0c0,0.1-0.1,0.1-0.1,0.2c-0.2,0.5-0.2,0.9,0,1.3c0,0.1,0.1,0.1,0.1,0.2c0,0,0,0,0,0c0,0,0.1,0.1,0.1,0.1c0,0,0,0,0,0
			c0.1,0,0.1,0.1,0.2,0.1c0,0,0,0,0,0c0,0,0.1,0.1,0.2,0.1c0,0,0,0,0,0c0,0,0,0-0.1,0C50.3,45.4,49.3,45.3,48.9,44.7z M49.8,49
			c-0.4-0.2-0.7-0.6-0.8-1.2c-0.1-0.5-0.1-0.9,0.1-1.2c0.3-0.4,0.9-0.7,1.5-0.8c0.1,0,0.2,0,0.3,0c0,0,0,0,0,0c0,0-0.1,0.1-0.1,0.1
			c0,0,0,0,0,0c0,0-0.1,0.1-0.1,0.1c0,0,0,0,0,0c0,0-0.1,0.1-0.1,0.1c0,0,0,0,0,0c0,0.1,0,0.1-0.1,0.2c0,0,0,0,0,0
			c0,0.1,0,0.1,0,0.2c0,0,0,0,0,0c0,0.1,0,0.1,0,0.2l0,0c0,0.1,0,0.1,0,0.2c0,0,0,0,0,0.1c0,0.1,0,0.1,0,0.2
			c0.1,0.5,0.4,0.9,0.7,1.1c0.1,0,0.1,0.1,0.2,0.1c0,0,0,0,0.1,0c0,0,0.1,0,0.2,0c0,0,0.1,0,0.1,0c0,0,0.1,0,0.1,0c0,0,0.1,0,0.1,0
			c0,0,0.1,0,0.1,0c0,0,0,0,0,0C51.4,48.9,50.4,49.3,49.8,49z M52.8,52.2C52.8,52.2,52.8,52.2,52.8,52.2c-0.4,0.1-0.9-0.1-1.3-0.5
			C51.2,51.3,51,51,51,50.6c0-0.7,0.6-1.3,1.1-1.7l0,0c0,0.1,0,0.1-0.1,0.2c0,0,0,0,0,0c0,0.1,0,0.1,0,0.2c0,0,0,0,0,0
			c0,0.1,0,0.1,0,0.2c0,0,0,0,0,0c0,0.1,0,0.1,0,0.2c0,0,0,0,0,0c0,0.1,0,0.1,0.1,0.2c0,0,0,0,0,0c0,0.1,0.1,0.1,0.1,0.2
			c0,0,0,0,0,0c0,0.1,0.1,0.1,0.1,0.2c0,0,0,0,0,0c0,0.1,0.1,0.1,0.1,0.2c0.4,0.4,0.8,0.5,1.2,0.5c0,0,0.1,0,0.1,0c0,0,0,0,0.1,0
			c0,0,0,0,0,0c0.1,0,0.1,0,0.2-0.1c0,0,0,0,0,0c0.1,0,0.1-0.1,0.2-0.1c0,0,0,0,0,0c0.1,0,0.1-0.1,0.2-0.1c0,0,0,0,0,0c0,0,0,0,0,0
			C54.1,51.3,53.6,52.1,52.8,52.2z M57.2,53.3c-0.3,0.3-0.8,0.4-1.4,0.3c-0.5-0.1-0.8-0.3-1-0.6c-0.3-0.6-0.2-1.4,0-2.1l0,0
			c0,0.1,0,0.1,0,0.2c0,0,0,0,0,0c0,0.1,0,0.1,0.1,0.1c0,0,0,0,0,0c0,0.1,0.1,0.1,0.1,0.1c0,0,0,0,0,0c0,0,0.1,0.1,0.1,0.1
			c0,0,0,0,0,0c0,0,0.1,0.1,0.1,0.1c0,0,0,0,0,0c0,0,0.1,0.1,0.2,0.1l0,0c0.1,0,0.1,0,0.2,0.1c0,0,0,0,0.1,0c0.1,0,0.1,0,0.2,0l0,0
			c0.1,0,0.1,0,0.2,0c0,0,0,0,0.1,0c0,0,0.1,0,0.1,0c0,0,0.1,0,0.1,0c0,0,0.1,0,0.1,0c0,0,0.1,0,0.1,0c0,0,0.1,0,0.1,0c0,0,0,0,0,0
			c0,0,0.1,0,0.1,0c0,0,0,0,0.1,0c0,0,0.1,0,0.1,0c0,0,0,0,0,0c0,0,0.1,0,0.1,0c0,0,0,0,0,0c0,0,0.1,0,0.1-0.1c0,0,0.1-0.1,0.1-0.1
			c0,0,0,0,0,0c0,0,0.1-0.1,0.1-0.1c0,0,0,0,0,0c0-0.1,0.1-0.1,0.1-0.2c0,0,0,0,0,0c0-0.1,0-0.1,0.1-0.2c0,0,0,0,0,0c0,0,0,0,0,0
			C57.7,51.8,57.7,52.8,57.2,53.3z M61.4,51.8c-0.1,0.4-0.5,0.7-1,1c-0.5,0.2-0.9,0.2-1.2,0c-0.6-0.3-0.9-1.1-1.1-1.8
			c0,0,0.1,0.1,0.1,0.1c0,0,0,0,0.1,0.1c0,0,0.1,0.1,0.1,0.1c0,0,0,0,0,0c0.1,0,0.1,0.1,0.2,0.1c0,0,0,0,0,0c0.1,0,0.1,0,0.2,0
			c0,0,0,0,0.1,0c0,0,0.1,0,0.1,0c0,0,0.1,0,0.1,0c0,0,0.1,0,0.1,0c0,0,0,0,0,0c0,0,0.1,0,0.1,0c0,0,0,0,0.1,0c0.1,0,0.1,0,0.2-0.1
			c0.5-0.2,0.8-0.5,0.9-0.8c0-0.1,0-0.1,0-0.2c0,0,0,0,0-0.1c0,0,0-0.1,0-0.1c0,0,0,0,0-0.1c0-0.1,0-0.1,0-0.2l0,0
			c0-0.1,0-0.1,0-0.2c0,0,0,0,0,0C61,50.2,61.6,51.1,61.4,51.8z M64.1,48.3c0.1,0.4,0,0.9-0.4,1.4c-0.3,0.4-0.6,0.6-1,0.7
			c-0.7,0.1-1.4-0.5-1.9-0.9c0,0,0,0,0,0c0.1,0,0.1,0,0.2,0c0,0,0,0,0,0c0.1,0,0.1,0,0.2,0c0,0,0,0,0,0c0.1,0,0.1,0,0.2,0l0,0
			c0,0,0,0,0,0c0.1,0,0.1,0,0.2,0c0,0,0,0,0,0c0.1,0,0.1,0,0.2-0.1c0,0,0,0,0,0c0,0,0.1-0.1,0.1-0.1c0,0,0,0,0,0
			c0,0,0.1-0.1,0.1-0.1c0,0,0,0,0,0c0-0.1,0.1-0.1,0.1-0.2c0.3-0.4,0.4-0.8,0.3-1.2c0-0.1,0-0.1-0.1-0.2c0,0,0,0,0,0
			c0,0,0-0.1-0.1-0.1c0,0,0,0,0-0.1c0,0-0.1-0.1-0.1-0.1c0,0,0,0,0,0c0-0.1-0.1-0.1-0.1-0.1c0,0,0,0,0,0
			C63,47.2,63.9,47.6,64.1,48.3z M65,45.2c0,0.5-0.2,0.9-0.5,1.1c-0.5,0.4-1.4,0.4-2.1,0.2c0,0,0,0,0,0c0,0,0.1,0,0.1,0
			c0,0,0.1,0,0.1-0.1c0,0,0.1,0,0.1,0c0,0,0.1,0,0.1-0.1c0,0,0,0,0.1-0.1c0,0,0.1-0.1,0.1-0.1c0,0,0,0,0.1-0.1c0,0,0.1-0.1,0.1-0.1
			c0,0,0-0.1,0-0.1c0,0,0-0.1,0.1-0.1c0,0,0-0.1,0-0.1c0,0,0-0.1,0-0.2c0,0,0-0.1,0-0.1c0-0.1,0-0.2,0-0.3c0-0.5-0.1-0.9-0.4-1.2
			c0,0-0.1-0.1-0.1-0.1c0,0,0,0,0,0c0,0-0.1,0-0.1-0.1c0,0,0,0-0.1,0c0,0-0.1,0-0.1-0.1c0,0,0,0,0,0c-0.1,0-0.1,0-0.2-0.1
			c0,0,0,0,0,0c0.7-0.2,1.7-0.3,2.3,0.2C64.8,44.1,65,44.6,65,45.2z"/>
		<ellipse transform="matrix(0.9847 -0.174 0.174 0.9847 -6.9626 8.6388)" class="st0" cx="45.8" cy="44" rx="0.7" ry="0.7"/>
		<ellipse transform="matrix(0.9849 -0.1733 0.1733 0.9849 -6.2999 8.687)" class="st0" cx="46.6" cy="40.4" rx="0.7" ry="0.7"/>
		<ellipse transform="matrix(0.9848 -0.1739 0.1739 0.9848 -5.7854 9.0482)" class="st0" cx="48.7" cy="37.5" rx="0.7" ry="0.7"/>
		<ellipse transform="matrix(0.9849 -0.1733 0.1733 0.9849 -5.3666 9.5558)" class="st0" cx="52" cy="35.5" rx="0.7" ry="0.7"/>
		<ellipse transform="matrix(0.9847 -0.174 0.174 0.9847 -5.1573 10.1954)" class="st0" cx="55.6" cy="34.5" rx="0.7" ry="0.7"/>
		<ellipse transform="matrix(0.9848 -0.1739 0.1739 0.9848 -5.2149 10.9247)" class="st0" cx="59.7" cy="35.2" rx="0.7" ry="0.7"/>
		<ellipse transform="matrix(0.9847 -0.174 0.174 0.9847 -5.4972 11.5728)" class="st0" cx="63.3" cy="37.1" rx="0.7" ry="0.7"/>
		<ellipse transform="matrix(0.9848 -0.1739 0.1739 0.9848 -5.9107 12.071)" class="st0" cx="65.9" cy="39.8" rx="0.7" ry="0.7"/>
		<path class="st0" d="M93.9,37.6c0.5-0.3,0.9-0.7,1-1.2c0.1-0.5,0-1.1-0.5-1.7c-0.4-0.5-0.8-0.7-1.3-0.7c-0.4,0-0.9,0.1-1.3,0.5
			c0.2-0.5,0.3-1.1,0.2-1.6c-0.2-0.5-0.6-0.9-1.3-1.1c-0.6-0.2-1.1-0.2-1.5,0.1c-0.4,0.3-0.7,0.7-0.9,1.2c-0.1-0.6-0.3-1.2-0.7-1.6
			c-0.4-0.4-1-0.5-1.8-0.3c-0.6,0.2-1,0.5-1.2,0.9c-0.2,0.4-0.2,0.9-0.1,1.4c-0.4-0.4-0.9-0.8-1.4-0.8c-0.5-0.1-1.1,0.2-1.6,0.7
			c-0.4,0.4-0.6,0.9-0.5,1.4c0,0.4,0.3,0.8,0.7,1.2c-0.6-0.1-1.1-0.2-1.6,0.1c-0.5,0.2-0.8,0.7-0.9,1.5c-0.1,0.6,0,1.1,0.3,1.5
			c0.3,0.3,0.7,0.6,1.2,0.7c-0.5,0.2-1,0.5-1.3,0.9c-0.3,0.5-0.3,1.1,0,1.7c0.2,0.6,0.6,0.9,1,1.1c0.3,0.1,0.6,0.1,0.9,0
			c0.2,0,0.3-0.1,0.5-0.1c-0.4,0.4-0.6,1-0.6,1.5c0,0.5,0.3,1,1,1.5c0.5,0.3,0.9,0.4,1.3,0.4c0,0,0.1,0,0.1,0
			c0.4-0.1,0.8-0.4,1.1-0.8c-0.1,0.6,0,1.1,0.3,1.6c0.3,0.4,0.9,0.7,1.6,0.7c0.2,0,0.3,0,0.5,0c0.4-0.1,0.7-0.2,0.9-0.5
			c0.3-0.3,0.5-0.8,0.5-1.3c0.2,0.5,0.6,1,1.1,1.2c0.3,0.1,0.6,0.1,0.9,0.1c0.3,0,0.6-0.2,0.9-0.3c0.5-0.3,0.8-0.7,0.9-1.2
			c0.1-0.4,0-0.9-0.3-1.4c0.5,0.3,1,0.5,1.5,0.4c0,0,0,0,0,0c0.5-0.1,1-0.5,1.3-1.2c0.3-0.5,0.3-1,0.1-1.5c-0.2-0.4-0.5-0.7-1-1
			c0.2,0,0.4,0,0.5,0c0.4-0.1,0.7-0.2,1-0.5c0.4-0.4,0.6-0.9,0.5-1.7c-0.1-0.6-0.3-1-0.7-1.3C94.9,37.7,94.4,37.6,93.9,37.6z
			 M93,38.4C93,38.4,93,38.4,93,38.4c0.1,0,0.1,0.1,0.2,0.1l0,0c0,0,0.1,0.1,0.1,0.1c0,0,0,0,0,0c0,0,0.1,0.1,0.1,0.1c0,0,0,0,0,0
			c0,0,0.1,0.1,0.1,0.1c0,0,0,0,0,0c0,0.1,0,0.1,0.1,0.2c0,0,0,0,0,0c0,0.1,0,0.1,0,0.2c0,0.4,0,0.8-0.2,1c0,0-0.1,0.1-0.1,0.1
			c0,0,0,0,0,0c0,0-0.1,0.1-0.2,0.1c0,0,0,0,0,0c-0.1,0-0.1,0-0.2,0.1c0,0,0,0,0,0c-0.1,0-0.1,0-0.2,0c0,0,0,0,0,0l0,0
			c0,0,0-0.1,0-0.1c0-0.1,0-0.1,0-0.2c0,0,0-0.1,0-0.1c0-0.1,0-0.1,0-0.2c0,0,0-0.1,0-0.1c0,0,0-0.1,0-0.1c0,0,0-0.1,0-0.1
			c0-0.1,0-0.1,0-0.2c0,0,0-0.1,0-0.1c0-0.1,0-0.1,0-0.2c0,0,0-0.1,0-0.1c0-0.1,0-0.1,0-0.2c0,0,0-0.1,0-0.1c0-0.1,0-0.2,0-0.3
			c0-0.1,0-0.2-0.1-0.3c0,0,0,0,0,0c0,0,0,0,0,0c0.1,0,0.1,0,0.2,0c0,0,0,0,0,0C92.9,38.4,93,38.4,93,38.4z M93,42.2
			c0,0.1,0,0.1,0,0.2c0,0,0,0,0,0c0,0.1,0,0.1,0,0.2c0,0,0,0,0,0c0,0.1-0.1,0.1-0.1,0.2c-0.2,0.4-0.4,0.6-0.7,0.7c0,0-0.1,0-0.1,0
			c0,0,0,0,0,0c0,0-0.1,0-0.1,0c0,0,0,0,0,0c0,0-0.1,0-0.1,0c0,0,0,0,0,0c0,0-0.1,0-0.1,0c0,0,0,0,0,0c0,0-0.1,0-0.1,0l0,0
			c0,0-0.1,0-0.1-0.1c0,0,0,0,0,0c0,0,0,0-0.1,0c0,0,0,0,0,0c0,0,0.1-0.1,0.1-0.1c0-0.1,0.1-0.1,0.1-0.2c0,0,0.1-0.1,0.1-0.1
			c0-0.1,0.1-0.1,0.1-0.2c0,0,0-0.1,0.1-0.1c0.1-0.1,0.1-0.2,0.2-0.3c0,0,0,0,0,0c0.1-0.1,0.1-0.2,0.2-0.3c0,0,0-0.1,0-0.1
			c0-0.1,0.1-0.1,0.1-0.2c0,0,0-0.1,0-0.1c0-0.1,0.1-0.1,0.1-0.2c0,0,0-0.1,0-0.1c0,0,0,0,0-0.1l0,0c0.1,0,0.1,0.1,0.2,0.1
			c0,0,0,0,0,0c0,0,0.1,0.1,0.1,0.1c0,0,0,0,0,0c0,0,0.1,0.1,0.1,0.1l0,0c0,0.1,0,0.1,0.1,0.2c0,0,0,0,0,0C93,42,93,42.1,93,42.2
			C93,42.2,93,42.2,93,42.2z M90.8,44.3c0,0.1,0,0.1,0,0.2v0c0,0.1,0,0.1,0,0.2c0,0,0,0,0,0c0,0.1,0,0.1-0.1,0.2c0,0,0,0,0,0
			c0,0-0.1,0.1-0.1,0.1c0,0,0,0,0,0c0,0-0.1,0.1-0.1,0.1c0,0,0,0,0,0c-0.1,0-0.1,0.1-0.2,0.1l0,0c-0.4,0.2-0.7,0.3-1,0.2
			c0,0-0.1,0-0.1,0c0,0,0,0,0,0c0,0,0,0-0.1,0c0,0,0,0,0,0c0,0,0,0-0.1,0c0,0,0,0,0,0c0,0,0,0-0.1-0.1c0,0,0,0,0,0
			c0,0-0.1-0.1-0.1-0.1c0,0,0,0,0,0c0,0-0.1-0.1-0.1-0.1c0,0,0,0,0,0c0,0,0,0,0-0.1c0,0,0,0,0.1,0c0,0,0.1,0,0.1,0
			c0.1,0,0.1,0,0.2-0.1c0,0,0.1,0,0.1,0c0.1,0,0.1,0,0.2-0.1c0,0,0.1,0,0.1,0c0.1,0,0.2-0.1,0.3-0.1l0,0c0.1,0,0.2-0.1,0.3-0.2
			c0,0,0.1,0,0.1,0c0.1,0,0.1-0.1,0.2-0.1c0,0,0.1,0,0.1-0.1c0.1,0,0.1-0.1,0.2-0.1c0,0,0.1,0,0.1-0.1c0,0,0,0,0.1,0c0,0,0,0,0,0
			c0,0.1,0,0.1,0.1,0.2c0,0,0,0,0,0C90.8,44.1,90.8,44.2,90.8,44.3C90.8,44.2,90.8,44.2,90.8,44.3z M87.8,45.1
			C87.8,45.2,87.8,45.2,87.8,45.1c0,0.1-0.1,0.1-0.1,0.2c0,0,0,0,0,0c0,0.1-0.1,0.1-0.1,0.1l0,0c0,0-0.1,0.1-0.1,0.1c0,0,0,0,0,0
			c0,0-0.1,0.1-0.1,0.1c0,0,0,0,0,0c-0.1,0-0.1,0-0.2,0.1c0,0,0,0,0,0c-0.1,0-0.1,0-0.2,0c0,0,0,0,0,0c-0.1,0-0.1,0-0.2,0
			c-0.4,0-0.8-0.1-0.9-0.4c0,0-0.1-0.1-0.1-0.1c0,0,0,0,0,0c0-0.1,0-0.1-0.1-0.2c0,0,0,0,0,0c0-0.1,0-0.1,0-0.2v0c0-0.1,0-0.2,0-0.2
			c0,0,0,0,0,0c0,0,0,0,0.1,0c0,0,0.1,0,0.1,0c0.1,0,0.1,0,0.2,0.1c0,0,0.1,0,0.1,0c0.1,0,0.1,0,0.2,0c0,0,0.1,0,0.1,0
			c0.1,0,0.2,0,0.3,0c0,0,0,0,0,0c0.1,0,0.2,0,0.3,0c0,0,0.1,0,0.1,0c0.1,0,0.2,0,0.2,0c0,0,0.1,0,0.1,0c0.1,0,0.1,0,0.2,0
			c0,0,0.1,0,0.1,0c0,0,0,0,0.1,0c0,0,0,0,0,0C87.9,45,87.9,45.1,87.8,45.1z M84.8,44.5C84.8,44.5,84.7,44.5,84.8,44.5
			c-0.1,0.1-0.1,0.1-0.2,0.1c0,0,0,0,0,0c-0.1,0-0.1,0.1-0.2,0.1c0,0,0,0,0,0c-0.1,0-0.1,0-0.2,0c0,0,0,0,0,0c-0.1,0-0.1,0-0.2,0
			c0,0,0,0,0,0c-0.1,0-0.1,0-0.2,0c0,0,0,0,0,0c-0.1,0-0.1,0-0.2-0.1c0,0,0,0,0,0c-0.1,0-0.1-0.1-0.2-0.1c-0.4-0.2-0.6-0.5-0.6-0.8
			c0,0,0-0.1,0-0.1c0,0,0,0,0,0c0,0,0-0.1,0-0.1c0,0,0,0,0,0c0,0,0,0,0-0.1c0,0,0,0,0,0c0,0,0-0.1,0-0.1c0,0,0,0,0,0
			c0,0,0-0.1,0-0.1c0,0,0,0,0,0c0,0,0-0.1,0.1-0.1c0,0,0,0,0,0c0,0,0,0,0-0.1c0,0,0,0,0,0.1c0,0,0,0.1,0.1,0.1
			c0,0.1,0.1,0.1,0.1,0.2c0,0,0.1,0.1,0.1,0.1c0,0.1,0.1,0.1,0.2,0.2c0,0,0,0.1,0.1,0.1c0.1,0.1,0.1,0.1,0.2,0.2c0,0,0,0,0,0
			c0.1,0.1,0.2,0.1,0.3,0.2c0,0,0.1,0,0.1,0.1c0.1,0,0.1,0.1,0.2,0.1c0,0,0.1,0,0.1,0.1c0.1,0,0.1,0.1,0.2,0.1c0,0,0.1,0,0.1,0.1
			c0,0,0,0,0.1,0c0,0,0,0,0,0C84.9,44.4,84.8,44.5,84.8,44.5z M82.4,42.3c0,0-0.1,0-0.1,0c0,0-0.1,0-0.1,0c0,0-0.1,0-0.1,0
			c0,0,0,0-0.1,0c0,0-0.1,0-0.1-0.1c0,0,0,0-0.1,0c0,0-0.1-0.1-0.1-0.1c0,0,0,0-0.1-0.1c0,0-0.1-0.1-0.1-0.1c0,0,0,0,0-0.1
			c0-0.1-0.1-0.1-0.1-0.2c-0.2-0.4-0.2-0.7-0.1-1c0,0,0-0.1,0.1-0.1c0,0,0,0,0,0c0,0,0,0,0-0.1c0,0,0,0,0,0c0,0,0,0,0.1-0.1
			c0,0,0,0,0,0c0,0,0,0,0.1,0c0,0,0,0,0,0c0,0,0.1,0,0.1-0.1c0,0,0,0,0,0c0,0,0.1,0,0.1-0.1c0,0,0,0,0,0c0,0,0,0,0.1,0
			c0,0,0,0.1,0,0.1c0,0,0,0.1,0,0.1c0,0.1,0,0.2,0,0.3c0,0.1,0,0.2,0,0.2c0,0,0,0.1,0,0.1c0,0.1,0,0.1,0,0.2c0,0,0,0.1,0,0.1
			c0,0,0,0.1,0,0.1c0,0,0,0.1,0,0.1c0,0,0,0.1,0,0.1c0,0,0,0.1,0,0.1c0,0,0,0.1,0.1,0.1c0,0,0,0.1,0,0.1c0,0,0,0.1,0.1,0.1
			c0,0,0,0.1,0,0.1c0,0,0,0.1,0.1,0.1c0,0,0,0.1,0,0.1c0,0,0,0,0,0c0,0,0,0,0,0c0,0-0.1,0-0.1,0C82.6,42.3,82.5,42.3,82.4,42.3
			C82.4,42.3,82.4,42.3,82.4,42.3z M81.5,39L81.5,39c0,0-0.1-0.1-0.1-0.1c0,0,0,0,0,0c0-0.1-0.1-0.1-0.1-0.2c0,0,0,0,0,0
			c0-0.1,0-0.1,0-0.2c0,0,0,0,0,0c0-0.1,0-0.1,0-0.2c0,0,0,0,0,0c0-0.1,0-0.1,0-0.2c0.1-0.4,0.2-0.7,0.5-0.9c0,0,0.1,0,0.1-0.1
			c0,0,0,0,0,0c0,0,0.1,0,0.1,0c0,0,0,0,0,0c0,0,0.1,0,0.1,0c0,0,0,0,0,0c0,0,0.1,0,0.1,0c0,0,0,0,0,0c0,0,0.1,0,0.1,0l0,0
			c0,0,0.1,0,0.1,0c0,0,0,0,0,0c0,0,0.1,0,0.1,0c0,0,0,0,0,0.1c0,0,0,0.1-0.1,0.1c0,0.1-0.1,0.1-0.1,0.2c0,0,0,0.1,0,0.1
			c0,0.1-0.1,0.1-0.1,0.2c0,0,0,0.1,0,0.1c0,0.1-0.1,0.2-0.1,0.3c0,0,0,0,0,0c0,0.1-0.1,0.2-0.1,0.3c0,0,0,0.1,0,0.1
			c0,0.1,0,0.1,0,0.2c0,0,0,0.1,0,0.1c0,0.1,0,0.1,0,0.2c0,0,0,0.1,0,0.1c0,0,0,0,0,0.1c0,0,0,0,0,0c-0.1,0-0.1,0-0.2-0.1
			c0,0,0,0,0,0c-0.1,0-0.1-0.1-0.2-0.1c0,0,0,0,0,0C81.6,39.1,81.5,39.1,81.5,39z M82.7,35.8C82.7,35.8,82.7,35.8,82.7,35.8
			C82.7,35.8,82.7,35.8,82.7,35.8c0-0.1,0-0.1,0-0.1c0,0,0,0,0-0.1c0,0,0,0,0,0c0,0,0,0,0-0.1c0,0,0,0,0,0c0,0,0,0,0-0.1
			c0,0,0,0,0,0c0,0,0,0,0-0.1c0,0,0,0,0,0c0,0,0,0,0-0.1c0,0,0,0,0,0c0,0,0,0,0-0.1c0,0,0,0,0,0c0,0,0.1-0.1,0.1-0.1
			c0,0,0.1-0.1,0.1-0.1c0,0,0,0,0,0c0,0,0,0,0.1-0.1c0,0,0,0,0,0c0,0,0,0,0.1,0c0,0,0,0,0,0c0,0,0,0,0.1,0c0,0,0,0,0,0
			c0,0,0,0,0.1,0c0,0,0,0,0.1,0c0,0,0,0,0.1,0c0,0,0,0,0,0c0,0,0,0,0.1,0c0,0,0.1,0,0.1,0c0,0,0.1,0,0.1,0c0,0,0,0,0,0
			c0,0,0,0,0.1,0c0,0,0,0,0,0c0,0,0,0,0.1,0c0,0,0,0,0,0c0,0,0,0,0.1,0c0,0,0,0,0,0c0,0,0.1,0,0.1,0.1c0,0,0,0,0,0
			c0,0,0.1,0.1,0.1,0.1c0,0,0,0,0,0c0,0,0,0,0.1,0.1c0,0,0,0-0.1,0c0,0-0.1,0-0.1,0.1c-0.1,0-0.1,0.1-0.2,0.1c0,0-0.1,0-0.1,0.1
			c-0.1,0-0.1,0.1-0.2,0.1c0,0-0.1,0-0.1,0.1c-0.1,0.1-0.2,0.1-0.2,0.2c0,0,0,0,0,0c-0.1,0.1-0.2,0.2-0.2,0.2c0,0,0,0-0.1,0.1
			c-0.1,0.1-0.1,0.1-0.2,0.2c0,0-0.1,0.1-0.1,0.1c0,0.1-0.1,0.1-0.1,0.2c0,0,0,0.1-0.1,0.1c0,0,0,0,0,0.1c0,0,0,0,0,0c0,0,0,0,0,0
			c0,0,0,0,0-0.1c0,0,0,0,0,0c0,0,0,0,0-0.1c0,0,0,0,0,0c0,0,0,0,0-0.1c0,0,0,0,0,0C82.8,36.1,82.7,36,82.7,35.8
			C82.7,35.9,82.7,35.9,82.7,35.8C82.7,35.9,82.7,35.9,82.7,35.8z M85.4,34.5c0,0,0-0.1,0-0.1c0,0,0-0.1,0-0.1c0,0,0-0.1,0-0.1
			c0,0,0-0.1,0-0.1c0,0,0-0.1,0-0.1c0,0,0-0.1,0-0.1c0,0,0-0.1,0.1-0.1c0,0,0,0,0.1-0.1c0,0,0.1-0.1,0.1-0.1c0,0,0,0,0.1,0
			c0,0,0.1,0,0.1-0.1c0,0,0,0,0.1,0c0.1,0,0.1-0.1,0.2-0.1c0.4-0.1,0.8-0.1,1,0.1c0.1,0,0.1,0.1,0.1,0.1c0,0,0,0,0,0
			c0,0,0.1,0.1,0.1,0.2c0,0,0,0,0,0c0,0.1,0.1,0.1,0.1,0.2l0,0c0,0.1,0,0.1,0.1,0.2c0,0,0,0,0,0c0,0,0,0-0.1,0c0,0-0.1,0-0.1,0
			c-0.1,0-0.2,0-0.2,0c0,0-0.1,0-0.1,0c-0.1,0-0.2,0-0.3,0c0,0,0,0-0.1,0c-0.1,0-0.2,0-0.4,0.1c-0.1,0-0.2,0-0.3,0.1c0,0,0,0,0,0
			c-0.1,0-0.2,0.1-0.3,0.1c0,0-0.1,0-0.1,0c-0.1,0-0.2,0.1-0.2,0.1c0,0-0.1,0-0.1,0c0,0,0,0-0.1,0c0,0,0,0,0,0
			C85.4,34.6,85.4,34.5,85.4,34.5z M88.4,34.3C88.4,34.3,88.5,34.3,88.4,34.3c0-0.1,0-0.1,0.1-0.1c0,0,0,0,0,0c0,0,0,0,0-0.1
			c0,0,0,0,0,0c0,0,0,0,0-0.1c0,0,0,0,0,0c0,0,0.1-0.1,0.1-0.1c0,0,0,0,0,0c0,0,0.1,0,0.1-0.1c0,0,0,0,0,0c0,0,0,0,0.1,0
			c0,0,0,0,0,0c0,0,0,0,0.1,0c0,0,0,0,0,0c0,0,0,0,0.1,0c0,0,0,0,0,0c0,0,0,0,0.1,0c0,0,0,0,0,0c0,0,0,0,0.1,0c0,0,0,0,0,0
			c0,0,0,0,0.1,0c0,0,0,0,0,0c0,0,0,0,0.1,0c0,0,0,0,0,0c0,0,0,0,0.1,0c0,0,0,0,0,0c0,0,0.1,0,0.1,0c0.4,0.1,0.7,0.3,0.8,0.6
			c0,0,0,0.1,0,0.1c0,0,0,0,0,0c0,0,0,0.1,0,0.1c0,0,0,0,0,0c0,0,0,0.1,0,0.1c0,0,0,0,0,0c0,0,0,0.1,0,0.1c0,0,0,0,0,0
			c0,0,0,0.1,0,0.1c0,0,0,0,0,0c0,0,0,0.1,0,0.1c0,0,0,0,0,0c0,0,0,0.1,0,0.1c0,0,0,0-0.1,0c0,0-0.1,0-0.1-0.1
			c-0.1,0-0.1-0.1-0.2-0.1c0,0-0.1,0-0.1-0.1c-0.1,0-0.1-0.1-0.2-0.1c0,0-0.1,0-0.1,0c-0.1,0-0.2-0.1-0.3-0.1c0,0,0,0,0,0
			c-0.1,0-0.2-0.1-0.3-0.1c0,0-0.1,0-0.1,0c-0.1,0-0.1,0-0.2-0.1c0,0-0.1,0-0.1,0c-0.1,0-0.1,0-0.2-0.1
			C88.6,34.4,88.5,34.4,88.4,34.3C88.5,34.4,88.4,34.3,88.4,34.3C88.4,34.3,88.4,34.3,88.4,34.3z M91.3,35.6
			C91.3,35.6,91.3,35.6,91.3,35.6c0.1,0,0.2-0.1,0.2-0.1l0,0c0.1,0,0.1,0,0.2,0h0c0.1,0,0.1,0,0.2,0c0,0,0,0,0,0c0.1,0,0.1,0,0.2,0
			c0,0,0,0,0,0c0.1,0,0.1,0,0.1,0.1c0,0,0,0,0,0c0,0,0.1,0.1,0.1,0.1c0,0,0,0,0,0c0.1,0.1,0.1,0.1,0.2,0.2c0.3,0.3,0.4,0.7,0.3,0.9
			c0,0,0,0.1,0,0.1c0,0,0,0,0,0c0,0,0,0,0,0.1c0,0,0,0,0,0c0,0,0,0,0,0.1c0,0,0,0,0,0c0,0,0,0,0,0.1c0,0,0,0,0,0c0,0,0,0.1-0.1,0.1
			c0,0,0,0,0,0c0,0-0.1,0.1-0.1,0.1c0,0,0,0,0,0c0,0,0,0-0.1,0c0,0,0,0,0-0.1c0,0,0-0.1,0-0.1c0-0.1-0.1-0.1-0.1-0.2
			c0,0,0-0.1-0.1-0.1c0-0.1-0.1-0.1-0.1-0.2c0,0,0-0.1-0.1-0.1c-0.1-0.1-0.1-0.2-0.2-0.3c0,0,0,0,0,0c-0.1-0.1-0.1-0.2-0.2-0.3
			c0,0,0-0.1-0.1-0.1c0-0.1-0.1-0.1-0.1-0.2c0,0-0.1-0.1-0.1-0.1c0-0.1-0.1-0.1-0.1-0.2c0,0-0.1-0.1-0.1-0.1c0,0,0,0-0.1-0.1
			c0,0,0,0,0,0C91.2,35.7,91.2,35.6,91.3,35.6z M93.1,34.3c0.4,0,0.7,0.2,1,0.6c0.4,0.5,0.5,1,0.4,1.4c-0.2,0.7-1.1,1.2-1.8,1.5l0,0
			c0,0,0,0,0,0c0,0,0.1-0.1,0.1-0.1c0,0,0,0,0,0c0-0.1,0.1-0.1,0.1-0.2c0,0,0,0,0,0c0,0,0-0.1,0.1-0.1c0,0,0,0,0-0.1
			c0-0.1,0-0.1,0-0.2c0.1-0.4-0.1-0.8-0.4-1.2c0-0.1-0.1-0.1-0.1-0.1c0,0,0,0,0,0c0,0-0.1-0.1-0.1-0.1c0,0,0,0,0,0
			c0,0-0.1-0.1-0.1-0.1c0,0,0,0,0,0c0,0-0.1-0.1-0.1-0.1c0,0,0,0,0,0c0,0-0.1,0-0.1,0c0,0,0,0-0.1,0c0,0-0.1,0-0.1,0c0,0,0,0,0,0
			c-0.1,0-0.1,0-0.2,0c0,0,0,0,0,0c0,0-0.1,0-0.1,0c0,0,0,0,0,0c0,0,0,0,0,0c0,0-0.1,0-0.1,0c0,0,0,0,0,0
			C91.8,34.8,92.5,34.3,93.1,34.3z M89.3,32.1c0.3-0.2,0.7-0.2,1.2-0.1c0.6,0.2,1,0.5,1.1,0.9c0.2,0.7-0.2,1.6-0.7,2.2c0,0,0,0,0,0
			c0-0.1,0-0.1,0-0.2c0,0,0,0,0,0c0-0.1,0-0.1,0-0.2c0,0,0,0,0-0.1c0-0.1,0-0.1,0-0.2c0,0,0,0,0-0.1c0-0.1,0-0.1-0.1-0.2
			c-0.2-0.4-0.5-0.6-1-0.8c-0.1,0-0.1,0-0.2-0.1c0,0,0,0-0.1,0c0,0-0.1,0-0.1,0c0,0,0,0-0.1,0c0,0-0.1,0-0.1,0c0,0,0,0,0,0
			c-0.1,0-0.1,0-0.2,0l0,0c0,0,0,0,0,0c-0.1,0-0.1,0-0.2,0c0,0,0,0,0,0c-0.1,0-0.1,0-0.2,0.1c0,0,0,0,0,0c-0.1,0-0.1,0.1-0.2,0.1
			c0,0,0,0,0,0c-0.1,0-0.1,0.1-0.1,0.1c0,0,0,0,0,0C88.5,33.1,88.8,32.4,89.3,32.1z M84.8,32.2c0.2-0.3,0.5-0.6,1-0.7
			c0.6-0.2,1.1-0.1,1.5,0.2c0.5,0.5,0.6,1.4,0.6,2.2c0,0,0,0,0,0c0-0.1-0.1-0.1-0.1-0.2l0,0c0-0.1-0.1-0.1-0.1-0.2c0,0,0,0,0,0
			c0,0-0.1-0.1-0.1-0.1c0,0,0,0,0,0c0,0-0.1-0.1-0.1-0.1c0,0-0.1,0-0.1-0.1c0,0,0,0,0,0c0,0-0.1,0-0.1,0c0,0,0,0-0.1,0
			c0,0-0.1,0-0.1,0c0,0,0,0-0.1,0c0,0-0.1,0-0.1,0c0,0,0,0-0.1,0c0,0-0.1,0-0.1,0c0,0,0,0-0.1,0c0,0-0.1,0-0.1,0c0,0,0,0,0,0
			c-0.1,0-0.1,0-0.2,0c0,0,0,0,0,0c-0.1,0-0.1,0-0.2,0c-0.1,0-0.1,0-0.2,0.1c0,0,0,0,0,0c-0.1,0-0.1,0.1-0.2,0.1c0,0,0,0,0,0
			c-0.1,0-0.1,0.1-0.2,0.1c0,0,0,0,0,0c0,0-0.1,0.1-0.1,0.1c0,0,0,0,0,0c0,0-0.1,0.1-0.1,0.1c0,0,0,0,0,0c0,0-0.1,0.1-0.1,0.1
			c0,0,0,0,0,0c0,0.1,0,0.1-0.1,0.2c0,0,0,0,0,0c0,0.1,0,0.1,0,0.2c0,0,0,0,0,0C84.8,33.6,84.6,32.8,84.8,32.2z M81.3,34.8
			c0-0.4,0.1-0.8,0.4-1.1c0.3-0.4,0.7-0.6,1-0.6c0.1,0,0.2,0,0.3,0c0.7,0.1,1.3,0.8,1.7,1.4l0,0c-0.1,0-0.1-0.1-0.2-0.1c0,0,0,0,0,0
			c0,0-0.1,0-0.1-0.1c0,0,0,0-0.1,0c0,0-0.1,0-0.1,0c0,0,0,0-0.1,0c-0.1,0-0.1,0-0.2,0c-0.4,0-0.8,0.2-1.1,0.6
			c-0.1,0.1-0.1,0.1-0.1,0.2c0,0,0,0,0,0c0,0.1-0.1,0.1-0.1,0.2l0,0c0,0.1-0.1,0.1-0.1,0.2c0,0,0,0,0,0c0,0.1,0,0.1,0,0.2l0,0
			c0,0.1,0,0.1,0,0.2c0,0,0,0,0,0c0,0.1,0,0.1,0,0.2c0,0,0,0,0,0c0,0.1,0,0.1,0,0.2c0,0,0,0,0,0c0,0.1,0,0.1,0.1,0.2l0,0
			C82,36,81.4,35.4,81.3,34.8z M79.6,38.8c-0.2-0.3-0.3-0.7-0.2-1.2c0.1-0.6,0.4-1,0.7-1.2c0.1-0.1,0.2-0.1,0.4-0.1
			c0.6-0.1,1.3,0.1,1.9,0.4c-0.1,0-0.1,0-0.2,0c0,0,0,0-0.1,0c0,0-0.1,0-0.1,0c0,0,0,0-0.1,0c0,0-0.1,0-0.1,0c0,0,0,0-0.1,0
			c-0.1,0-0.1,0.1-0.2,0.1c-0.3,0.2-0.6,0.6-0.6,1.1c0,0.1,0,0.1,0,0.2c0,0,0,0,0,0.1c0,0.1,0,0.1,0,0.2l0,0c0,0.1,0,0.1,0,0.2
			c0,0,0,0,0,0c0,0.1,0,0.1,0.1,0.2c0,0,0,0,0,0c0,0,0,0.1,0.1,0.1c0,0,0,0,0,0c0,0,0.1,0.1,0.1,0.1c0,0,0,0,0,0
			c0,0,0.1,0.1,0.1,0.1c0,0,0,0,0,0c0.1,0,0.1,0.1,0.2,0.1c0,0,0,0,0,0C80.9,39.5,80.1,39.3,79.6,38.8z M80.5,43.1
			c-0.4-0.1-0.6-0.4-0.8-0.9c-0.2-0.6-0.3-1.1,0-1.4c0.3-0.5,1.1-0.8,1.7-0.9c0.1,0,0.2,0,0.3,0c0,0,0,0,0,0c0,0-0.1,0.1-0.1,0.1
			c0,0,0,0-0.1,0c0,0-0.1,0.1-0.1,0.1c0,0,0,0,0,0c0,0-0.1,0.1-0.1,0.1c0,0,0,0,0,0c0,0.1-0.1,0.1-0.1,0.2c-0.2,0.4-0.1,0.8,0.1,1.3
			c0,0.1,0.1,0.2,0.1,0.2c0,0,0,0,0,0.1c0,0,0.1,0.1,0.1,0.1c0,0,0,0,0.1,0.1c0,0,0.1,0.1,0.1,0.1c0,0,0,0,0.1,0.1
			c0,0,0.1,0,0.1,0.1c0,0,0.1,0,0.1,0c0,0,0.1,0,0.1,0.1c0,0,0.1,0,0.1,0c0,0,0.1,0,0.1,0c0,0,0.1,0,0.1,0c0,0,0.1,0,0.1,0
			c0,0,0.1,0,0.1,0c0,0,0,0,0,0C81.9,43,81.1,43.4,80.5,43.1z M83.5,46.3c-0.4,0.1-0.8,0-1.2-0.3c-0.5-0.4-0.8-0.8-0.8-1.2
			c0-0.7,0.6-1.4,1.2-1.9v0c0,0.1-0.1,0.1-0.1,0.2c0,0,0,0,0,0.1c0,0,0,0.1,0,0.1c0,0,0,0,0,0.1c0,0,0,0.1,0,0.1c0,0,0,0,0,0.1
			c0,0.1,0,0.1,0,0.2c0.1,0.4,0.3,0.7,0.7,1.1c0.1,0,0.1,0.1,0.2,0.1c0,0,0,0,0,0c0.1,0,0.1,0.1,0.2,0.1c0,0,0,0,0,0
			c0.1,0,0.1,0,0.2,0c0,0,0,0,0,0c0.1,0,0.1,0,0.2,0c0,0,0,0,0,0c0.1,0,0.1,0,0.2,0c0,0,0,0,0,0c0,0,0,0,0,0c0.1,0,0.1,0,0.2,0
			c0,0,0,0,0,0c0.1,0,0.1,0,0.2-0.1c0,0,0,0,0,0c0.1,0,0.1-0.1,0.2-0.1c0,0,0,0,0,0C84.6,45.4,84.1,46.2,83.5,46.3z M87.7,47.4
			c-0.3,0.3-0.6,0.4-1.1,0.4c-0.6,0-1.1-0.2-1.3-0.6c-0.4-0.6-0.2-1.5,0-2.3c0,0,0,0,0,0c0,0.1,0,0.1,0,0.2c0,0,0,0,0,0
			c0,0.1,0,0.1,0,0.1c0,0,0,0,0,0.1c0,0,0,0.1,0.1,0.1c0,0,0,0,0,0.1c0,0.1,0.1,0.1,0.1,0.1c0.3,0.3,0.7,0.5,1.2,0.5
			c0.1,0,0.2,0,0.2,0c0,0,0,0,0.1,0c0,0,0.1,0,0.1,0c0,0,0,0,0,0c0,0,0.1,0,0.1,0c0,0,0.1,0,0.1,0c0,0,0.1,0,0.1-0.1c0,0,0,0,0.1,0
			c0.1,0,0.1-0.1,0.2-0.1c0,0,0,0,0,0c0.1,0,0.1-0.1,0.1-0.2c0,0,0,0,0-0.1c0,0,0.1-0.1,0.1-0.1c0,0,0-0.1,0-0.1c0,0,0-0.1,0-0.1
			C88.2,46.1,88.2,46.9,87.7,47.4z M91.9,46c-0.1,0.4-0.3,0.7-0.7,0.9c-0.5,0.3-1,0.4-1.4,0.2c-0.7-0.3-1-1.2-1.2-1.9c0,0,0,0,0,0
			c0.1,0.1,0.1,0.1,0.1,0.2l0,0c0,0,0.1,0.1,0.2,0.1c0,0,0,0,0,0c0,0,0.1,0.1,0.1,0.1c0,0,0,0,0,0c0.1,0,0.1,0.1,0.2,0.1
			c0,0,0.1,0,0.1,0c0,0,0,0,0,0c0,0,0.1,0,0.1,0c0,0,0,0,0.1,0c0,0,0.1,0,0.1,0c0,0,0,0,0.1,0c0,0,0,0,0.1,0l0,0c0,0,0.1,0,0.1,0
			c0,0,0,0,0.1,0c0,0,0.1,0,0.1,0c0,0,0,0,0.1,0c0,0,0.1,0,0.1-0.1c0,0,0,0,0.1,0c0,0,0.1,0,0.1-0.1c0,0,0,0,0.1,0l0,0
			c0.1,0,0.1-0.1,0.2-0.1c0,0,0,0,0,0c0.1,0,0.1-0.1,0.1-0.1l0,0c0,0,0.1-0.1,0.1-0.1c0,0,0,0,0,0c0,0,0.1-0.1,0.1-0.1c0,0,0,0,0,0
			c0-0.1,0-0.1,0.1-0.2c0,0,0,0,0,0c0-0.1,0-0.1,0-0.2c0,0,0,0,0,0c0-0.1,0-0.1,0-0.2c0,0,0,0,0,0c0-0.1,0-0.1,0-0.2c0,0,0,0,0,0
			C91.6,44.6,92,45.3,91.9,46z M94.6,42.6c0.1,0.3,0.1,0.8-0.1,1.2c-0.3,0.6-0.6,0.9-1.1,1h0c-0.7,0.1-1.5-0.5-2.1-1l0,0
			c0,0,0,0,0,0c0.1,0,0.1,0,0.2,0.1c0,0,0,0,0,0c0.1,0,0.1,0,0.2,0c0,0,0,0,0,0c0.1,0,0.1,0,0.2,0c0,0,0,0,0,0c0,0,0,0,0.1,0
			c0,0,0.1,0,0.1,0c0.4-0.1,0.7-0.4,0.9-0.9c0-0.1,0.1-0.1,0.1-0.2c0,0,0,0,0-0.1c0-0.1,0-0.1,0-0.2c0,0,0,0,0,0c0-0.1,0-0.1,0-0.2
			c0,0,0,0,0,0c0-0.1,0-0.1,0-0.2c0,0,0,0,0,0c0-0.1,0-0.1,0-0.2c0,0,0,0,0,0c0,0,0-0.1,0-0.1c0,0,0,0,0,0c0-0.1-0.1-0.1-0.1-0.2
			c0,0,0,0,0,0c0,0-0.1-0.1-0.1-0.1c0,0,0,0,0,0C93.6,41.6,94.4,42,94.6,42.6z M95.6,39.3c0.1,0.6-0.1,1.1-0.4,1.4
			c-0.5,0.5-1.5,0.5-2.3,0.3c0,0,0,0,0,0c0,0,0.1,0,0.1,0c0,0,0.1,0,0.1,0c0,0,0.1,0,0.1-0.1c0,0,0.1,0,0.1,0c0,0,0.1-0.1,0.1-0.1
			c0,0,0,0,0.1,0c0.1,0,0.1-0.1,0.2-0.2c0.3-0.3,0.4-0.7,0.3-1.2c0-0.1,0-0.1,0-0.2c0,0,0,0,0-0.1c0-0.1,0-0.1,0-0.2c0,0,0,0,0,0
			c0-0.1,0-0.1-0.1-0.2c0,0,0,0,0,0c0,0-0.1-0.1-0.1-0.1c0,0,0,0,0,0c0,0-0.1-0.1-0.1-0.1c0,0,0,0,0,0c0,0-0.1-0.1-0.1-0.1
			c0,0,0,0,0,0c0,0-0.1-0.1-0.2-0.1c0,0,0,0,0,0c0,0-0.1,0-0.1-0.1c0,0,0,0,0,0c0.6-0.1,1.5-0.2,2,0.1
			C95.4,38.4,95.5,38.8,95.6,39.3z"/>
		<ellipse transform="matrix(0.9849 -0.1733 0.1733 0.9849 -4.5241 17.3788)" class="st0" cx="97.2" cy="34.6" rx="0.7" ry="0.7"/>
		<ellipse transform="matrix(0.9847 -0.174 0.174 0.9847 -4.0236 17.0542)" class="st0" cx="95.3" cy="31.5" rx="0.7" ry="0.7"/>
		<ellipse transform="matrix(0.9849 -0.1732 0.1732 0.9849 -3.7149 16.4293)" class="st0" cx="92.3" cy="29.5" rx="0.7" ry="0.7"/>
		<ellipse transform="matrix(0.9849 -0.1733 0.1733 0.9849 -3.6395 15.7676)" class="st0" cx="88.5" cy="28.7" rx="0.7" ry="0.7"/>
		<ellipse transform="matrix(0.9847 -0.174 0.174 0.9847 -3.7515 15.1984)" class="st0" cx="84.8" cy="29" rx="0.7" ry="0.7"/>
		<ellipse transform="matrix(0.9848 -0.1739 0.1739 0.9848 -4.1696 14.5862)" class="st0" cx="81.1" cy="31.1" rx="0.7" ry="0.7"/>
		<ellipse transform="matrix(0.9847 -0.174 0.174 0.9847 -4.7348 14.1748)" class="st0" cx="78.5" cy="34.1" rx="0.7" ry="0.7"/>
		<ellipse transform="matrix(0.9849 -0.1733 0.1733 0.9849 -5.3301 13.8908)" class="st0" cx="76.9" cy="37.5" rx="0.7" ry="0.7"/>
		<path class="st0" d="M71,34.7c1.4-0.2,3.4-4.3,2.2-5c-0.3-0.2-0.5-0.2-0.7-0.2c-1.2,0.2-2,2.7-2,2.7s-2-1.9-3-1.7
			c-0.2,0-0.4,0.1-0.5,0.4C66.3,32.3,69.6,34.9,71,34.7z"/>
		<ellipse transform="matrix(0.9848 -0.1738 0.1738 0.9848 -3.7027 9.7959)" class="st0" cx="54.1" cy="26" rx="1.2" ry="1.2"/>
		<ellipse transform="matrix(0.9848 -0.1739 0.1739 0.9848 -2.9338 12.3132)" class="st0" cx="68.8" cy="22.9" rx="1.2" ry="1.2"/>
		<ellipse transform="matrix(0.9849 -0.1733 0.1733 0.9849 -2.2279 15.6712)" class="st0" cx="88.6" cy="20.6" rx="1.2" ry="1.2"/>
		<path class="st0" d="M50.8,11.6C50.8,11.6,50.8,11.6,50.8,11.6c0.1,0,0.1,0,0.2-0.1c0-0.1,0.1-0.1,0.1-0.2c0-0.2-0.1-0.5-0.2-0.7
			c-0.1-0.2-0.2-0.4-0.2-0.6c0-0.3,0-0.5,0-0.8c0-0.2,0.1-0.4,0.1-0.6c0-0.1-0.1-0.3-0.2-0.3c-0.1-0.1-0.3,0-0.4,0
			c-0.5,0.3-0.6,1-0.5,1.8C49.8,10.8,50.1,11.6,50.8,11.6z"/>
		<path class="st0" d="M51.9,9.4C51.9,9.4,51.9,9.4,51.9,9.4c0.1,0,0.2-0.1,0.2-0.2c0-0.1,0.1-0.2,0.1-0.3c0-0.1,0.1-0.2,0.1-0.3
			c0.1-0.3,0.4-0.5,0.6-0.7c0.3-0.3,0.7-0.5,1.2-0.7l0.2-0.1c0.1-0.1,0.2-0.2,0.2-0.4c0-0.2-0.2-0.3-0.4-0.3c-0.6,0-1.2,0.4-1.8,1
			c-0.5,0.5-0.9,1.2-0.5,1.8C51.7,9.4,51.8,9.4,51.9,9.4z"/>
		<path class="st0" d="M53.5,11.7c-0.2-0.3-0.4-0.6-0.4-1c0-0.1,0-0.3,0-0.4c0.1-0.3,0.1-0.6,0-0.9c0-0.1-0.2-0.1-0.2-0.1
			c-0.6,0.3-0.6,1.2-0.6,1.6c0,0.6,0.4,1.4,1.1,1.6c0.1,0,0.1,0,0.2,0c0.1,0,0.2-0.1,0.2-0.1c0.1-0.1,0.1-0.2,0-0.4
			C53.7,11.9,53.6,11.8,53.5,11.7z"/>
		<path class="st0" d="M54.9,8.6c0.4,0.2,0.7,0.4,0.9,0.7C55.9,9.4,56,9.6,56,9.8c0.1,0.2,0.1,0.4,0.2,0.5c0.1,0.1,0.2,0.2,0.3,0.2
			c0,0,0,0,0,0c0.1,0,0.3-0.1,0.3-0.2c0.2-0.4,0.1-0.9-0.4-1.5c-0.3-0.4-0.7-0.7-1.4-0.9c-0.2-0.1-0.4,0.1-0.5,0.2
			C54.7,8.3,54.7,8.5,54.9,8.6z"/>
		<path class="st0" d="M55.8,6.9c0.2,0,0.3,0,0.5,0.1c0.1,0.1,0.2,0.2,0.3,0.4c0.1,0.2,0.2,0.4,0.4,0.5c0.1,0,0.2,0.1,0.3,0
			c0,0,0.1,0,0.1,0c0.1-0.1,0.2-0.2,0.2-0.3c0.1-0.6-0.4-1.2-0.8-1.4c-0.5-0.2-1.3-0.3-1.7,0.1C55,6.4,55,6.5,55,6.5
			c0,0.1,0.1,0.2,0.1,0.2C55.3,6.9,55.6,6.9,55.8,6.9z"/>
		<path class="st0" d="M54.5,11.2L54.5,11.2c-0.1,0.2-0.1,0.3,0,0.4c0.1,0.1,0.2,0.1,0.2,0.1c0,0,0,0,0.1,0c0.9-0.4,1-1.5,0.7-2.3
			c-0.1-0.2-0.3-0.2-0.4-0.2c-0.2,0.1-0.3,0.3-0.2,0.5C55.1,10.2,54.8,10.6,54.5,11.2z"/>
		<path class="st0" d="M54.5,11c0.1-0.1,0.1-0.2,0.1-0.3c0-0.2-0.1-0.3-0.1-0.5c0,0,0-0.1,0-0.1c0-0.1,0-0.2,0-0.3
			c0-0.1,0-0.2,0-0.3c0-0.1-0.1-0.2-0.1-0.2c-0.1,0-0.1-0.1-0.2,0c-0.3,0.1-0.5,0.4-0.5,0.7c0,0.4,0.2,0.9,0.5,1c0.1,0,0.1,0,0.2,0
			C54.4,11,54.5,11,54.5,11z"/>
		<path class="st0" d="M91.4,11.1c-0.1,0.1-0.1,0.2-0.1,0.3c0.1,0.2,0.2,0.4,0.2,0.6c0.1,0.1,0.1,0.2,0.2,0.3
			c0.1,0.2,0.1,0.4,0.1,0.7c0,0.2,0,0.4,0.1,0.7c0,0.1,0.1,0.2,0.2,0.2c0,0,0.1,0,0.1,0c0.1,0,0.1,0,0.2-0.1c0.2-0.2,0.3-0.6,0.3-1
			c-0.1-0.7-0.5-1.3-1-1.6C91.6,11,91.5,11,91.4,11.1z"/>
		<path class="st0" d="M77.2,9.4C77.1,9.6,77,9.8,76.9,10c-0.2,0.5-0.5,0.9-1,1.2c-0.2,0.1-0.3,0.1-0.5,0.2c-0.4,0.1-0.8,0.2-1,0.6
			c-0.1,0.1,0,0.2,0,0.3c0.3,0.2,0.7,0.2,1,0.2c0.5-0.1,1-0.3,1.3-0.5c0.7-0.4,1.4-1.3,1.2-2.3c0-0.2-0.2-0.3-0.3-0.3
			C77.4,9.2,77.3,9.3,77.2,9.4L77.2,9.4z"/>
		<path class="st0" d="M71.3,5.1c0.1,0.2,0.2,0.3,0.4,0.3l0,0c2.2-0.2,3.6,0.3,4.5,1.6c0.1,0.1,0.2,0.2,0.4,0.2c0,0,0.1,0,0.1,0
			C76.9,7,77,6.9,77,6.7c-0.1-0.9-0.8-1.7-1.8-2.2C73.9,4,72.4,4,71.4,4.7C71.3,4.8,71.2,5,71.3,5.1z"/>
		<path class="st0" d="M75.5,9l0.1,0c0.1,0,0.3-0.1,0.3-0.2c0-0.1,0-0.3-0.1-0.3c-1-0.8-2.5-0.3-3.1,0.6c-0.1,0.2-0.1,0.4,0,0.6
			c0.1,0.1,0.2,0.1,0.4,0.1c0.1,0,0.2-0.1,0.2-0.1C74,8.9,74.7,9,75.5,9z"/>
		<path class="st0" d="M74.6,10.8c0.5-0.2,1-0.7,0.9-1.3c0-0.1-0.1-0.3-0.2-0.3c-0.1-0.1-0.3-0.1-0.4,0c-0.2,0.1-0.4,0.3-0.5,0.4
			c0,0.1-0.1,0.1-0.2,0.2C74.1,9.9,74,10,73.9,10c-0.1,0.1-0.2,0.1-0.4,0.2c-0.1,0.1-0.1,0.1-0.1,0.2c0,0.1,0,0.2,0.1,0.2
			c0.2,0.2,0.5,0.3,0.8,0.2C74.3,10.9,74.5,10.9,74.6,10.8z"/>
		<path class="st0" d="M96.2,17.8c-0.2-0.1-0.4-0.1-0.5-0.3c-0.2-0.2-0.4-0.4-0.5-0.6c-0.1-0.2-0.2-0.3-0.4-0.5
			c-0.1-0.1-0.2-0.2-0.4-0.1c-0.1,0-0.2,0.1-0.3,0.3c-0.1,0.6,0.2,1.1,0.9,1.7c0.3,0.3,0.9,0.5,1.3,0.4c0.2,0,0.3-0.1,0.4-0.2
			c0,0,0.1-0.1,0.1-0.2c0-0.1,0-0.1-0.1-0.2C96.7,18,96.4,17.9,96.2,17.8z"/>
		<path class="st0" d="M96.1,12.6c-0.1-0.1-0.3-0.1-0.4,0.1c-0.4,0.4-0.6,1.1-0.6,2c0,0.7,0.2,1.5,0.8,1.6c0,0,0.1,0,0.1,0
			c0.1,0,0.1,0,0.1-0.1c0.1-0.1,0.1-0.2,0-0.3c0-0.1-0.1-0.2-0.1-0.3c0-0.1-0.1-0.2-0.1-0.3c-0.1-0.3-0.1-0.6-0.1-0.9
			c0-0.4,0.2-0.9,0.4-1.3l0.1-0.2C96.3,12.8,96.3,12.7,96.1,12.6z"/>
		<path class="st0" d="M99,17.6c0.1,0,0.2-0.1,0.3-0.1c0.1-0.1,0.2-0.2,0.2-0.3c0-0.1-0.1-0.2-0.2-0.3c-0.2,0-0.3-0.1-0.4-0.1
			c-0.4-0.1-0.7-0.1-1-0.4c-0.1-0.1-0.2-0.2-0.2-0.3c-0.1-0.2-0.3-0.5-0.6-0.6c-0.1,0-0.2,0-0.2,0.1c-0.2,0.6,0.4,1.3,0.7,1.6
			C97.9,17.4,98.5,17.7,99,17.6z"/>
		<path class="st0" d="M100.1,13.9c0.1,0,0.1,0,0.2-0.1c0.1-0.1,0.1-0.3,0.1-0.4c-0.1-0.4-0.5-0.7-1.3-0.8c-0.5-0.1-1,0-1.6,0.3
			c-0.2,0.1-0.3,0.3-0.2,0.5c0.1,0.2,0.2,0.3,0.4,0.2c0.4-0.1,0.8-0.1,1.1-0.1c0.2,0,0.4,0.1,0.5,0.2c0.2,0.1,0.3,0.2,0.5,0.2
			C100,13.9,100,13.9,100.1,13.9z"/>
		<path class="st0" d="M96.7,12L96.7,12c0.2,0,0.4-0.2,0.6-0.3c0.1-0.1,0.3-0.2,0.4-0.2c0.1,0,0.3,0,0.5,0.1
			c0.2,0.1,0.4,0.1,0.6,0.1c0.1,0,0.2-0.1,0.3-0.3c0-0.1,0-0.2-0.1-0.4c-0.3-0.4-1.1-0.6-1.6-0.4c-0.5,0.1-1.2,0.6-1.1,1.2
			c0,0.1,0.1,0.2,0.1,0.2C96.5,12,96.6,12.1,96.7,12z"/>
		<path class="st0" d="M101.5,17.4c-0.2-0.1-0.4,0-0.5,0.1c-0.1,0.1-0.2,0.2-0.3,0.3c-0.3,0.3-0.6,0.6-1,0.8
			c-0.3,0.1-0.7,0.1-1.1,0.1c-0.2,0-0.4,0-0.6,0c-0.1,0-0.2,0.1-0.3,0.2c0,0.1,0,0.3,0.1,0.3c0.5,0.4,1.2,0.6,1.9,0.4
			c0.2,0,0.4-0.1,0.5-0.1c0.8-0.3,1.4-1,1.5-1.7C101.8,17.6,101.7,17.5,101.5,17.4z"/>
		<path class="st0" d="M100.8,10.4c-0.5-0.3-1-0.3-1.7-0.1c-0.1,0-0.1,0.1-0.1,0.1c0,0,0,0.1,0,0.2c0.2,0.4,0.5,0.4,0.8,0.5
			c0.1,0,0.2,0,0.3,0.1c0.3,0.1,0.5,0.3,0.7,0.5c0.1,0.1,0.3,0.2,0.4,0.3c-0.1,0-0.1,0-0.2,0.1c-0.1,0.1-0.2,0.3-0.1,0.4v0
			c0.5,1.4,0.5,2.5-0.2,3.4c-0.1,0.1-0.1,0.3,0,0.4c0.1,0.1,0.2,0.2,0.3,0.1c0,0,0,0,0.1,0c0.6-0.3,1.1-0.9,1.2-1.7
			c0.1-0.9-0.2-1.9-0.7-2.5c0,0,0,0,0,0c0.1,0,0.1,0,0.2,0c0.1,0,0.1,0,0.2-0.1c0.1-0.1,0.1-0.3,0.1-0.4
			C102,11,101.3,10.7,100.8,10.4z"/>
		<path class="st0" d="M99.3,15.8c0,0.1,0.1,0.2,0.3,0.2c0,0,0,0,0.1,0c0.1,0,0.2-0.1,0.2-0.2c0.4-0.9-0.3-1.8-1-2.1
			c-0.2-0.1-0.4,0-0.4,0.2c-0.1,0.2,0,0.4,0.2,0.5C99,14.6,99.1,15.1,99.3,15.8L99.3,15.8z"/>
		<path class="st0" d="M98.7,15c0,0-0.1,0-0.1-0.1c-0.1,0-0.1-0.1-0.2-0.2c-0.1-0.1-0.1-0.2-0.2-0.2c-0.1,0-0.2-0.1-0.2-0.1
			c-0.1,0-0.1,0.1-0.2,0.1c-0.2,0.3-0.1,0.6,0.1,0.9c0.2,0.3,0.6,0.5,1,0.4c0,0,0.1,0,0.1,0c0.1,0,0.2-0.1,0.2-0.3
			c0-0.1,0-0.2-0.1-0.3C99,15.1,98.8,15,98.7,15z"/>
		<path class="st0" d="M37.5,28.6c0.5-0.3,0.8-0.8,0.8-1.3c0,0,0-0.1,0-0.1c-0.1-0.3-0.3-0.5-0.6-0.5c-0.2,0-0.5,0-0.8,0.1
			c-0.6,0.2-1.2,0.6-1.5,0.9c-0.2,0.3-0.3,0.6-0.2,0.8c0,0.1,0,0.1,0.1,0.2c0.2,0.4,0.7,0.5,1.3,0.4c0.2,0,0.3-0.1,0.5-0.1
			C37.2,28.8,37.4,28.8,37.5,28.6z"/>
		<path class="st0" d="M53.8,20c-0.1,0-0.2,0.1-0.2,0.2c0,0.1,0,0.2,0.1,0.2c0.3,0.2,0.7,0.2,1.1,0.2c0.1,0,0.2-0.1,0.3-0.1l0,0
			c0.1-0.1,0.2-0.2,0.2-0.3c0,0,0-0.1,0-0.1c0-0.1-0.1-0.1-0.1-0.2c0,0-0.1,0-0.1,0C54.7,19.8,54.1,19.8,53.8,20z"/>
		<path class="st0" d="M53.9,17.1C53.9,17.1,53.9,17.2,53.9,17.1c-0.1,0.1-0.1,0.1-0.1,0.2c0,0,0,0.1,0,0.1c0,0.2,0,0.3-0.1,0.4
			c0,0.1-0.1,0.1-0.1,0.2c-0.1,0.1-0.1,0.3-0.2,0.4c0,0.1,0,0.3,0.1,0.3c0.1,0,0.1,0.1,0.2,0.1c0,0,0.1,0,0.1,0
			c0.3-0.2,0.4-0.4,0.5-0.8c0.1-0.4,0-0.8-0.2-0.9C54.1,17.1,54,17.1,53.9,17.1z"/>
		<path class="st0" d="M39.4,24.7c0.1,0.2,0.3,0.3,0.5,0.5c0.4,0.3,0.8,0.5,1.3,0.4c0.1,0,0.3-0.1,0.4-0.1h0c0.1,0,0.1-0.1,0.1-0.2
			c0-0.1,0-0.2-0.1-0.2c-0.2-0.3-0.5-0.5-0.7-0.6c-0.1,0-0.1-0.1-0.2-0.1c-0.2-0.1-0.3-0.3-0.5-0.4l0,0c-0.2-0.3-0.4-0.6-0.5-1
			c-0.1-0.3-0.2-0.5-0.3-0.8c-0.1-0.2-0.2-0.2-0.4-0.2c-0.2,0-0.3,0.1-0.4,0.3C38.3,22.8,38.5,23.6,39.4,24.7
			C39.3,24.6,39.4,24.7,39.4,24.7z"/>
		<path class="st0" d="M41,22.1c0.1,0,0.1,0,0.2,0c0,0,0.1,0,0.1,0c0.1-0.1,0.1-0.2,0.1-0.3c0-0.2-0.1-0.3-0.1-0.5
			c0-0.1-0.1-0.3-0.1-0.4c-0.1-0.4,0.1-0.9,0.2-1.3c0.2-0.6,0.6-1.1,0.9-1.7l0.1-0.2c0.1-0.2,0.1-0.4,0-0.5c0,0,0,0-0.1,0
			c-0.1-0.1-0.3-0.1-0.5,0l0,0c-0.7,0.4-1.2,1.3-1.5,2.4C40.2,20.5,40.2,21.7,41,22.1z"/>
		<path class="st0" d="M42.6,21.4c-0.5,0.7,0.1,1.8,0.4,2.3c0.4,0.7,1.4,1.3,2.3,1.2c0,0,0,0,0.1,0c0.2,0,0.3-0.2,0.3-0.4
			c0,0,0-0.1,0-0.1l0,0c0-0.1,0-0.1-0.1-0.2c0,0,0,0,0,0c0,0,0,0-0.1-0.1l0,0c-0.2-0.1-0.4-0.2-0.6-0.3c-0.5-0.2-0.9-0.4-1.2-1
			c-0.1-0.2-0.2-0.3-0.2-0.5c-0.1-0.4-0.3-0.8-0.6-1C42.7,21.3,42.6,21.3,42.6,21.4z"/>
		<path class="st0" d="M46.7,19.7c0.2,0.2,0.4,0.3,0.6,0.5c0.1,0,0.2,0.1,0.3,0c0.1,0,0.1,0,0.2-0.1c0.2-0.1,0.2-0.3,0.2-0.5
			c0-0.6-0.5-1.1-1.4-1.5c-0.6-0.3-1.4-0.3-2.2-0.1c-0.3,0.1-0.4,0.3-0.4,0.6c0,0.2,0.2,0.4,0.4,0.4c0.6,0,1.1,0.1,1.6,0.2
			C46.3,19.3,46.5,19.5,46.7,19.7z"/>
		<path class="st0" d="M43.5,16.6c0.3,0,0.6-0.1,0.8-0.2c0.2-0.1,0.5-0.2,0.7-0.2c0.2,0,0.4,0.1,0.6,0.2c0.2,0.1,0.5,0.3,0.8,0.3
			c0,0,0.1,0,0.1,0c0.1,0,0.3-0.1,0.3-0.2c0.1-0.1,0.1-0.3,0-0.4c-0.3-0.7-1.2-1.1-1.9-1.1c-0.1,0-0.2,0-0.3,0
			c-0.7,0.1-1.5,0.5-1.6,1.2c0,0.1,0,0.2,0.1,0.3C43.3,16.5,43.4,16.6,43.5,16.6z"/>
		<path class="st0" d="M47.6,25.5c-0.2,0.1-0.3,0.2-0.5,0.3c-0.5,0.4-1,0.7-1.7,0.8c-0.5,0.1-1.1-0.1-1.6-0.2
			c-0.3-0.1-0.6-0.2-0.8-0.2c-0.1,0-0.3,0-0.3,0.1c-0.1,0.1-0.1,0.3,0,0.4c0.6,0.9,1.9,1.3,3.1,1.2c0.1,0,0.1,0,0.2,0
			c1.1-0.2,2-0.9,2.4-1.8c0.1-0.2,0-0.4-0.1-0.5C48.1,25.4,47.8,25.4,47.6,25.5z"/>
		<path class="st0" d="M49.5,18.1c-0.2,0.1-0.3,0.3-0.3,0.4c0.3,2.1-0.2,3.6-1.4,4.6c-0.1,0.1-0.2,0.3-0.1,0.5c0,0,0,0.1,0.1,0.1
			c0.1,0.1,0.2,0.2,0.4,0.1l0,0c0,0,0,0,0.1,0c0.9-0.2,1.6-0.8,2-1.8c0.5-1.3,0.4-2.8-0.3-3.8C49.9,18.1,49.7,18,49.5,18.1z"/>
		<path class="st0" d="M48.1,16.3c0.1,0.1,0.3,0.1,0.4,0.2c0.3,0.2,0.6,0.5,0.9,0.9c0.3,0.3,0.5,0.7,0.9,0.9
			c0.1,0.1,0.2,0.1,0.3,0.1c0,0,0.1,0,0.1,0c0.2-0.1,0.2-0.3,0.2-0.4c-0.1-0.9-0.9-1.6-1.4-2c-0.1-0.1-0.2-0.1-0.2-0.2
			c-0.6-0.4-1.2-0.5-2-0.5l0,0h0c0,0,0,0,0,0c0,0,0,0,0,0c0,0,0,0,0,0c0,0,0,0,0,0c0,0,0,0,0,0c0,0,0,0,0,0c0,0,0,0,0,0
			c0,0-0.1,0.1,0,0.2C47.3,15.9,47.7,16.1,48.1,16.3z"/>
		<path class="st0" d="M45.8,22.6c0,0.1,0.1,0.3,0.2,0.3c0,0,0.1,0,0.1,0c0.1,0,0.1-0.1,0.2-0.1c0.7-1,0.2-2.5-0.7-3.1
			c-0.2-0.1-0.4-0.1-0.6,0.1c-0.1,0.2-0.2,0.4,0.1,0.6c0.7,0.6,0.7,1.3,0.6,2.1L45.8,22.6z"/>
		<path class="st0" d="M44,21.6c0,0.1,0.1,0.1,0.1,0.2l0,0c0,0,0,0,0,0c0.1,0.1,0.2,0.3,0.4,0.4c0.2,0.2,0.5,0.3,0.7,0.2l0,0
			c0.1,0,0.3-0.1,0.3-0.3c0.1-0.1,0.1-0.3,0-0.4c-0.1-0.2-0.3-0.3-0.4-0.5c-0.1,0-0.1-0.1-0.2-0.1c-0.1-0.1-0.2-0.2-0.2-0.4
			c-0.1-0.1-0.1-0.2-0.2-0.4c-0.1-0.1-0.2-0.1-0.2-0.1c-0.1,0-0.1,0-0.2,0c0,0-0.1,0-0.1,0.1l0,0C43.8,20.7,43.8,21.1,44,21.6
			C44,21.6,44,21.6,44,21.6z"/>
		<path class="st0" d="M89.6,4.1L89.6,4.1c0.3-0.1,0.7-0.5,0.8-0.9c0.1-0.3,0-0.5-0.1-0.6c-0.1-0.1-0.4-0.2-0.6,0
			c-0.3,0.3-0.6,1-0.4,1.3C89.4,4.1,89.5,4.2,89.6,4.1z"/>
		<path class="st0" d="M89.3,4.3c-0.4,0-1,0.9-1.3,1.4c-0.2,0.5-0.2,0.8-0.1,1c0,0.1,0.1,0.1,0.2,0.1c0.1,0,0.1,0,0.2-0.1
			C88.8,6.4,90,5,89.6,4.5C89.5,4.4,89.4,4.3,89.3,4.3z"/>
		<path class="st0" d="M87.6,5.2c0,0,0.1,0,0.2,0c0,0,0.1,0,0.2-0.1c0.3-0.2,0.6-1.1,0.6-1.7c0-0.4-0.2-0.5-0.4-0.5
			c-0.1,0-0.4-0.1-0.7,0.4C87.2,3.9,87.1,5,87.6,5.2z"/>
		<path class="st0" d="M87.9,2.4c0.1,0,0.1,0.1,0.2,0.1c0,0,0,0,0.1,0c0.3-0.1,0.5-0.7,0.5-1.1c0-0.4-0.1-0.7-0.3-0.8
			c-0.2-0.1-0.4-0.1-0.6,0.1C87.6,1.1,87.6,2.1,87.9,2.4z"/>
		<path class="st0" d="M86.5,3.9C86.5,3.9,86.6,3.9,86.5,3.9c0.2,0,0.2-0.1,0.3-0.2C87,3.4,86.9,2.5,86.6,2
			c-0.2-0.4-0.4-0.4-0.6-0.4c-0.1,0-0.4,0-0.4,0.6C85.6,2.6,86,3.8,86.5,3.9z"/>
		<path class="st0" d="M87.4,7C87.4,7,87.5,7,87.4,7c0.4-0.2,0.1-0.9-0.1-1.4C87,5.2,86.5,4.2,86,4.5c-0.1,0-0.2,0.1-0.2,0.3
			c0,0.6,0.9,1.8,1.3,2.1C87.2,7,87.3,7,87.4,7z"/>
		<path class="st0" d="M84.5,6.4c-0.1,0.1-0.1,0.2-0.1,0.4c0.2,0.5,1.5,1,2.1,1.1c0,0,0.2,0,0.3,0c0.1,0,0.2-0.1,0.2-0.1
			c0.1-0.2-0.1-0.5-0.6-0.9C85.8,6.3,84.9,5.9,84.5,6.4z"/>
		<path class="st0" d="M85.8,6.2c0,0,0.1,0,0.1,0c0.1,0,0.1-0.1,0.1-0.3c-0.1-0.4-0.6-1.4-1.1-1.5c-0.1,0-0.3,0-0.4,0.1
			c-0.3,0.3,0,0.8,0.3,1.2C85,5.8,85.4,6.3,85.8,6.2z"/>
		<path class="st0" d="M83.4,5.2c-0.6-0.2-1-0.2-1.1,0.1c-0.1,0.2,0,0.3,0.1,0.5c0.3,0.4,1.1,0.6,1.5,0.6c0,0,0,0,0.1,0
			c0.2,0,0.3-0.1,0.3-0.2C84.4,5.8,83.8,5.4,83.4,5.2z"/>
		<path class="st0" d="M40.8,31.4c0,0,0.1,0,0.1,0c0,0,0,0,0,0c0.6-0.1,0.8-0.9,0.8-1.6c-0.1-0.8-0.5-1.7-1.3-1.7
			c-0.3,0-0.5,0.1-0.7,0.4c0,0,0,0,0,0.1c0,0,0,0,0,0c0,0,0,0.1,0,0.1c0,0,0,0,0,0c0,0,0,0.1,0,0.1c0,0,0,0,0,0.1c0,0,0,0.1,0,0.1
			c0,0,0,0,0,0.1c0,0,0,0,0,0l0,0v0c0,0,0,0,0,0c0,0,0-0.1,0-0.1c0,0,0,0,0,0c0,0,0,0,0,0c0,0,0-0.1,0-0.1c0,0,0,0,0,0
			c0,0,0-0.1,0-0.1c0,0,0,0,0,0c0,0,0,0,0-0.1c0,0,0,0,0,0c0,0,0,0,0-0.1c0,0,0,0,0,0c0,0,0,0-0.1-0.1c0,0,0,0,0,0
			c0,0-0.1-0.1-0.1-0.1c-0.2-0.2-0.5-0.2-0.8,0c-0.7,0.3-1.2,1.5-1.2,2.2c0,0.5,0.2,0.7,0.4,0.8l0,0c0,0,0.1,0,0.1,0c0,0,0,0,0,0
			c0,0,0,0,0.1,0c0,0,0,0,0.1,0c0,0,0,0,0.1,0c0,0,0,0,0.1,0c0,0,0,0,0.1,0c0,0,0,0,0,0l0,0l0,0c0,0,0,0,0,0c0,0,0.1,0,0.1,0
			c0,0,0,0,0,0h0c0,0,0,0,0,0c0,0,0.1,0,0.1-0.1c0,0,0,0,0,0c0,0,0.1,0,0.1-0.1c0,0,0,0,0,0c0,0,0.1-0.1,0.1-0.1c0,0,0,0,0,0
			c0,0,0.1-0.1,0.1-0.1c0,0,0,0,0,0c0,0,0.1-0.1,0.1-0.1c0,0,0,0,0,0c0,0,0.1-0.1,0.1-0.1c0,0,0,0,0,0c0,0,0.1-0.1,0.1-0.1
			c0,0,0,0,0,0c0-0.1,0.1-0.1,0.1-0.2c0,0,0,0,0,0c0-0.1,0.1-0.1,0.1-0.2c0,0,0,0,0,0c0-0.1,0.1-0.2,0.1-0.2c0,0,0,0,0,0
			c0-0.1,0-0.2,0-0.2l0,0c0,0,0,0,0,0c0,0.1,0,0.1,0,0.2c0,0,0,0,0,0.1c0,0.1,0,0.1,0,0.2l0,0c0,0.1,0,0.1,0,0.2c0,0,0,0,0,0.1
			c0,0.1,0,0.1,0,0.2c0,0,0,0,0,0.1c0,0.1,0,0.1,0.1,0.2l0,0c0,0.1,0,0.1,0.1,0.2c0,0,0,0,0,0c0,0,0,0.1,0.1,0.1c0,0,0,0,0,0
			c0,0.1,0.1,0.1,0.1,0.1C40.3,31.2,40.5,31.4,40.8,31.4C40.7,31.4,40.8,31.4,40.8,31.4z"/>
		<path class="st0" d="M103,12.2c0.1-0.3,0.2-0.8,0.1-1.4c-0.2-0.7-0.7-1.3-1.6-1.8c0.1-0.2,0.1-0.4,0.1-0.6c-0.1-2.3-2.2-2.8-3-2.8
			c0.2-0.4,0.5-1.2,0.3-2c-0.2-0.6-0.7-1-1.4-1.4c-0.8-0.3-1.4-0.3-2,0c-0.6,0.3-1,1-1.1,1.4c-0.2-0.3-0.6-0.7-1.3-0.9
			c-0.6-0.2-1.3-0.1-2,0.3c-0.8,0.5-1.2,1.5-1.1,2.8c-0.4,0.2-0.9,0.7-1,1.1c0,0.2,0,0.3,0,0.3c0,0,0.1,0.1,0.1,0.1
			c-0.2,0-0.5,0.1-0.7,0.2c0,0,0,0-0.1,0c0-0.2-0.1-0.3-0.1-0.4c-0.1-0.1-0.2-0.2-0.3-0.2c-0.2,0-0.3,0.1-0.4,0.2
			c-0.1,0.2-0.1,0.6,0,0.9c-0.2-0.1-0.4,0-0.6,0c-0.3,0.1-0.4,0.3-0.4,0.5c0,0.1,0.1,0.2,0.2,0.3c0.1,0,0.2,0.1,0.3,0.1
			c-0.1,0.2-0.1,0.4-0.2,0.5c-0.1,0.1-0.2,0.3-0.2,0.4c0-0.1-0.1-0.2-0.2-0.3c0,0,0,0,0,0c0,0,0.1-0.1,0.1-0.1c0,0,0,0,0,0
			c0,0,0-0.1,0-0.1c0,0,0,0,0,0c0,0,0-0.1,0-0.1l0,0c0,0,0-0.1,0-0.1c0,0,0,0,0,0l0,0l0,0c0,0,0,0,0,0l0,0c0,0,0,0,0,0l0,0
			c0,0,0,0,0,0l0,0c-0.1-0.1-0.2-0.1-0.5,0l0,0c0.1-0.1,0.2-0.2,0.3-0.3c0-0.1,0-0.1,0-0.2c-0.2-0.2-1.1-0.4-1.7-0.3
			c0-0.1-0.1-0.2-0.1-0.2c0.1,0,0.2,0,0.3,0c0.2,0,0.3-0.1,0.3-0.2C85.1,7.5,85,7.3,84.7,7c-0.4-0.3-1.1-0.6-1.5-0.4
			c-0.3-0.2-0.6-0.3-1-0.5c0-0.2-0.4-0.5-0.5-0.6c-0.4-0.3-0.7-0.3-0.9-0.1c-0.1,0.1-0.1,0.2,0,0.3c-0.1,0-0.3,0-0.3-0.1
			c0-0.7-0.3-3.7-3.2-4.4c-3.3-0.7-4.6,0.9-4.9,1.6c-0.3-0.2-1-0.7-1.9-0.7c-1,0-2.1,0.5-3.1,1.6c-0.8,0.9-1.2,1.8-1,2.8
			c-0.4,0.2-0.7,0.6-0.8,0.8c-0.3-0.5-1.1-1.4-2.2-1.1c-1.4,0.3-2.1,1.9-2.3,2.4c0,0,0,0,0,0c-0.1,0-0.1,0-0.2,0
			c0-0.3-0.1-0.7-0.2-1C60.4,7,60,6.5,59.4,6.2C58.7,5.9,58,6,57.7,6.1c-0.1-0.3-0.3-0.8-0.6-1.3c-0.5-0.7-1.4-1.4-3.1-1.1l0,0
			c-2.1,0.4-2.5,2.2-2.5,2.8c-0.7,0-3.3,0.1-3.7,3c-0.2,1.1,0,1.9,0.5,2.5c0.5,0.6,1.3,0.8,1.7,0.8c-0.1,0.2-0.2,0.4-0.2,0.7
			c-1.8-0.8-3.2,0.4-3.6,0.9c-0.3-0.3-0.9-0.8-1.7-1.2c-1-0.5-2.7-0.7-4.4,0.7c-2.4,2-1.4,4.4-1.1,5.1c-0.8,0.4-3.8,2.3-2.6,5.8
			c-2.2,0.3-4,1.6-4.1,3c-0.1,2.3,2,2.9,2.8,3c-0.2,0.4-0.6,1.2-0.4,2c0.1,0.6,0.6,1.1,1.3,1.4c0.7,0.4,1.4,0.4,2,0.2
			c0.7-0.3,1.1-0.9,1.2-1.3c0.3,0.4,0.9,1.1,2,1.1c-0.6,9.2,1.9,17.9,6.3,22.1c1.8,1.7,5.1,2.8,9.9,3.3c3.1,0.3,5.9,0.3,6.5,0.3
			c0.2,0.9,1.6,5.4,4,5.2c0.6-0.1,1.1-0.3,1.4-0.8c0.6-0.7,0.7-1.7,0.7-2.5c0.5,1,1.4,2.4,2.9,2.4c0.2,0,0.3,0,0.4,0
			c0.6-0.1,1-0.4,1.4-0.8c0.5-0.6,0.7-1.4,0.7-2.1c0.3,0.6,0.7,1.2,1.4,1.6c0.7,0.4,1.4,0.5,2.3,0.2c0.9-0.3,1.6-1.1,1.9-2.3
			c0.1-0.4,0.1-0.7,0.2-1c0.5,0.9,1.8,2.4,4.2,1.8c0.9-0.2,1.5-0.7,1.9-1.4c0.7-1.4,0.3-3.2,0.2-3.7c1.6-0.6,13.7-4.9,15.4-10.9
			c1.1-3.9,0.5-14.2-3.2-23.2c0.4,0.1,0.9,0.1,1.3,0c0,0,0,0,0.1,0c2.1-0.4,2-3.1,1.9-3.8c0.6-0.2,2.5-1,2.4-3.1
			C104.9,12.9,103.6,12.4,103,12.2z M91.3,3.3C91.9,2.9,92.5,2.8,93,3c0.8,0.2,1.3,1,1.3,1.1c0,0.1,0.1,0.1,0.2,0.1
			c0.1,0,0.1-0.1,0.1-0.1c0,0,0.2-1.1,1.1-1.5c0.5-0.2,1-0.2,1.7,0c0.6,0.3,1,0.6,1.2,1.1c0.3,0.9-0.4,2-0.4,2c0,0.1,0,0.1,0,0.2
			c0,0.1,0.1,0.1,0.2,0.1c0.1,0,2.8,0,2.9,2.5c0,0.2,0,0.3-0.1,0.5c0,0,0,0,0,0c0,0-0.1,0-0.1,0c0,0-0.1,0-0.1-0.1c0,0-0.1,0-0.1,0
			c0,0-0.1,0-0.1,0c0,0-0.1,0-0.1,0c0,0-0.1,0-0.1,0c0,0-0.1,0-0.1,0c0,0-0.1,0-0.1,0c0,0-0.1,0-0.1,0c0,0-0.1,0-0.1,0
			c0,0-0.1,0-0.1,0c0,0-0.1,0-0.1,0c0,0,0,0-0.1,0c-0.1,0-0.1,0-0.2,0.1C99.3,8.8,99.1,8.9,99,9c-0.4,0.3-0.7,0.7-0.8,0.9
			c0,0-0.1,0-0.1-0.1c0,0,0,0,0,0c0,0-0.1,0-0.1-0.1c0,0,0,0,0,0c-0.1,0-0.1-0.1-0.2-0.1c0,0,0,0,0,0c-0.1,0-0.1-0.1-0.2-0.1
			c0,0,0,0,0,0l0,0c0.1,0,0.1-0.1,0.2-0.1c0,0,0,0,0,0c0,0,0.1-0.1,0.1-0.1l0,0c0.1,0,0.1-0.1,0.2-0.1c0,0,0,0,0,0
			C97.9,9.1,98,9,98,9c0,0,0,0,0,0c0,0,0.1-0.1,0.1-0.1c0,0,0,0,0,0c0,0,0.1-0.1,0.1-0.1l0,0c0,0,0.1-0.1,0.1-0.1c0,0,0,0,0,0
			c0,0,0.1-0.1,0.1-0.1c0.1-0.2,0.1-0.5,0-0.7c-0.3-0.6-1.1-0.5-1.8-0.2c-0.8,0.4-1.4,1.1-1.2,1.8c0,0,0,0,0,0.1
			c-0.1,0-0.1,0-0.2,0.1l0,0c-0.2,0.1-0.5,0.2-0.7,0.3c0,0,0,0,0,0c-0.1,0-0.1,0.1-0.2,0.2c0,0,0,0,0,0c0,0-0.1,0.1-0.1,0.1v0
			c0,0,0-0.1,0-0.1c0,0,0,0,0,0v0c0-0.1,0-0.1,0-0.2h0v0c-0.1-0.3-0.2-0.6-0.5-0.8c-0.1-0.1-0.2-0.2-0.4-0.3l0,0
			c0.3,0,0.5-0.2,0.6-0.5C94,8,94.1,7.8,94.1,7.6c0,0.3,0.2,0.6,0.5,0.8c0.2,0.1,0.3,0.1,0.5,0.1c0.1,0,0.2-0.1,0.3-0.1
			c0.6-0.4,1.1-1.5,1-2.3c0-0.5-0.3-0.7-0.5-0.8c-0.6-0.2-1.2,0.3-1.5,1c-0.2,0.3-0.3,0.7-0.3,1.1c0-0.6-0.3-1.3-0.6-1.6
			c-0.3-0.4-0.7-0.4-0.9-0.4C92,5.5,91.8,6.3,91.9,7c0.1,0.6,0.3,1.1,0.7,1.4c-0.3,0-0.7,0.1-0.9,0.1c0,0-0.1,0-0.1,0c0,0,0,0,0,0
			c0,0-0.1,0-0.1,0c0,0,0,0,0,0c-0.5-0.7-0.8-1.5-1-2.2c0-0.2-0.1-0.4-0.1-0.6C90.2,4.6,90.6,3.7,91.3,3.3z M90.2,6.7
			c0.1,0.3,0.2,0.7,0.4,1c-0.3-0.3-0.7-0.5-1.2-0.5C89.6,7.2,89.9,7,90.2,6.7z M88.6,7.8c1.3-0.5,1.9,0.3,2.3,0.8
			C91,8.8,91,8.9,91.1,8.9c0.1,0,0.2,0,0.2,0c0.1,0,0.3,0,0.5-0.1c0.5-0.1,1.2-0.3,1.7,0.2c0.2,0.2,0.3,0.4,0.4,0.6c0,0,0,0.1,0,0.1
			c0,0,0,0,0,0.1c0,0,0,0.1,0,0.1c0,0,0,0,0,0.1c0,0,0,0.1,0,0.1c0,0,0,0,0,0.1c0,0,0,0,0,0.1v0c0,0,0,0-0.1,0.1c0,0,0,0,0,0
			c0,0-0.1,0.1-0.1,0.1c0,0,0,0,0,0c-0.1,0.1-0.2,0.3-0.3,0.4c0,0,0,0,0,0.1c0,0,0,0.1-0.1,0.2c0,0,0,0.1,0,0.1c0,0,0,0.1,0,0.1
			c0,0,0,0.1,0,0.1c0,0,0,0.1,0,0.1c0,0,0,0.1,0,0.1c0,0,0,0.1,0,0.1c0,0,0,0.1,0,0.1c0,0,0,0.1,0,0.1c0,0,0,0.1,0,0.1
			c0,0,0,0.1,0,0.1c0,0,0,0.1,0,0.1c0,0.1,0,0.2,0,0.3c0,0.2,0,0.3,0,0.5c0,0.2-0.1,0.4-0.1,0.6c0,0.1-0.1,0.2-0.1,0.2
			c-0.1,0.2,0,0.4,0.2,0.5c0.1,0,0.2,0.1,0.3,0h0l0,0l0,0c0,0,0,0,0,0c0,0,0,0,0,0c0,0-0.1,0.1-0.1,0.1c0,0,0,0,0,0
			c0,0-0.1,0.1-0.1,0.1c0,0,0,0,0,0c0,0.1-0.1,0.1-0.1,0.2l0,0c0,0.1-0.1,0.1-0.1,0.2c0,0,0,0,0,0.1c0,0.1-0.1,0.1-0.1,0.2
			c0,0,0,0,0,0c0,0.1-0.1,0.1-0.1,0.2c0,0,0,0,0,0.1c0,0.1,0,0.1-0.1,0.2c0,0,0,0,0,0c0,0.1,0,0.1-0.1,0.2c0,0,0,0,0,0.1
			c0,0.1,0,0.1,0,0.2c0,0,0,0,0,0.1c0,0.1,0,0.2,0,0.2c0,0,0,0,0,0.1c0,0,0,0.1,0,0.1c-1.2,0.4-2.8-0.2-2.9-0.2l0,0
			c0,0,0-0.1-0.1-0.1c0,0,0,0,0-0.1c0-0.1-0.1-0.1-0.1-0.1c0,0,0.1,0,0.1,0c0,0,0,0,0,0c0,0,0.1,0,0.1,0c0,0,0,0,0,0c0,0,0,0,0.1,0
			c0,0,0,0,0.1,0c0,0,0,0,0.1,0c0,0,0,0,0.1,0c0,0,0,0,0.1,0c0,0,0,0,0.1,0c0,0,0,0,0.1,0c0,0,0,0,0.1,0c0,0,0,0,0.1,0
			c0,0,0,0,0.1,0c0,0,0,0,0.1,0c0,0,0,0,0.1,0c0,0,0,0,0.1,0c0,0,0,0,0.1,0c0,0,0,0,0.1,0c0,0,0,0,0.1,0c0,0,0,0,0.1,0
			c0,0,0,0,0.1,0c0,0,0,0,0.1,0c0,0,0,0,0.1,0c0,0,0,0,0.1,0c0,0,0,0,0.1,0c0,0,0,0,0.1-0.1c0,0,0,0,0.1,0c0,0,0,0,0.1-0.1
			c0,0,0,0,0.1-0.1c0,0,0,0,0,0h0c0.1,0,0.1,0,0.2,0c0,0,0,0,0,0c0.1,0,0.1,0,0.2,0c0,0,0,0,0,0c0,0,0,0,0,0c0,0,0.1,0,0.1,0
			c0,0,0,0,0.1,0c0.1,0,0.1,0,0.2-0.1c0.1-0.1,0.2-0.2,0.2-0.3c0-0.2-0.1-0.3-0.3-0.3c-0.1,0-0.2,0-0.3,0l0,0c0,0,0-0.1,0-0.1
			c0,0,0,0,0-0.1c0-0.1,0-0.1,0-0.2l0,0c0-0.1,0-0.1,0-0.2c0,0,0,0,0-0.1c0,0,0-0.1,0-0.1c0,0,0,0,0-0.1c0,0,0-0.1-0.1-0.1
			c0,0,0,0,0-0.1c0,0,0-0.1-0.1-0.1c0,0,0,0-0.1-0.1c0,0-0.1-0.1-0.1-0.1c0,0,0,0-0.1-0.1c0,0,0,0,0,0c0,0,0,0,0,0c0,0,0-0.1,0-0.1
			c0,0,0,0,0,0c0,0,0-0.1,0-0.1c0.1-0.4,0-0.8-0.2-0.9c-0.1,0-0.2,0-0.2,0c0,0,0,0,0,0c0,0,0,0,0-0.1c0,0,0-0.1,0-0.1
			c0,0,0-0.1,0-0.1c0,0,0-0.1,0-0.1c0,0,0,0,0,0l0,0c0,0,0.1,0,0.1,0l0,0c0,0,0,0,0.1-0.1c0.1-0.1,0.1-0.2,0-0.3c0,0,0-0.1-0.1-0.1
			c0,0,0,0,0,0c0,0-0.1-0.1-0.1-0.1l0,0c0,0,0-0.1,0-0.1c0,0,0-0.1,0-0.1c0,0,0-0.1,0-0.1c0,0,0-0.1,0-0.1c0,0,0-0.1-0.1-0.1
			c0,0,0,0,0-0.1c0-0.1-0.1-0.1-0.1-0.2c-0.2-0.2-0.4-0.3-0.6-0.3c0,0-0.1,0-0.1,0c0,0,0,0,0,0c0,0-0.1,0-0.1,0c0,0,0,0,0,0
			c0,0-0.1,0-0.1,0c0,0,0,0,0,0c0,0-0.1,0-0.1,0c0,0,0,0,0,0c0,0-0.1,0-0.1,0.1c0,0,0,0,0,0c-0.1,0.1-0.1,0.1-0.2,0.2l0,0
			c0,0,0.1-0.1,0.1-0.1c0,0,0,0,0,0c0,0,0.1-0.1,0.1-0.1c0.2-0.2,0.4-0.3,0.7-0.4c0.1,0,0.1,0,0.2-0.1c0.1-0.1,0.2-0.2,0.2-0.3
			c0-0.2-0.1-0.3-0.3-0.3c-0.1,0-0.1,0-0.2,0c0,0,0,0-0.1,0c0,0-0.1,0-0.1,0c0,0,0,0-0.1,0c0,0-0.1,0-0.1,0c0,0,0,0-0.1,0
			c0,0-0.1,0-0.1,0.1c0,0,0,0-0.1,0c-0.1,0-0.1,0.1-0.2,0.1l0,0c-0.1,0-0.1,0.1-0.2,0.1c0,0,0,0-0.1,0.1c0,0-0.1,0-0.1,0.1
			c0,0,0,0,0,0c0-0.1-0.1-0.1-0.1-0.2c0,0,0,0,0,0c0-0.1-0.1-0.1-0.1-0.2c0,0,0,0,0,0C88.4,9.1,88.4,9,88.3,9c0,0,0,0,0,0
			c-0.1,0-0.1-0.1-0.2-0.1c0,0,0,0-0.1,0c0,0,0,0,0,0c0,0,0,0-0.1,0c0,0,0,0,0,0c0,0,0,0-0.1,0c0,0,0,0,0,0c0,0,0,0-0.1,0
			c0,0,0,0,0,0c0,0,0,0-0.1,0c0,0,0,0,0,0c-0.1,0-0.1,0-0.2,0c0,0,0,0,0,0c0,0,0,0-0.1,0c0,0,0,0,0,0c0-0.1,0.1-0.1,0.1-0.2
			c0.1-0.1,0.2-0.2,0.2-0.3l0,0c0-0.1,0.1-0.1,0.1-0.1C88,8.1,88.1,8,88.3,7.9C88.4,7.8,88.5,7.8,88.6,7.8z M78.4,13.9
			c0-0.1,0-0.1,0.1-0.2c0.4-0.7,1.7-0.7,1.8-0.7h0l0,0l0,0c0,0,0,0,0.1,0c-0.1,0.2-0.2,0.4-0.1,0.6c0.1,0.4,0.3,0.7,0.5,0.9
			c-0.3,0-0.6,0.1-0.8,0.3c-0.2,0.2-0.3,0.5-0.2,0.8c0.1,0.4,0.2,0.6,0.5,0.8c0.3,0.2,0.6,0.3,0.8,0.3c-0.2,0.2-0.4,0.5-0.4,0.8
			c-0.1,0.4,0.1,0.7,0.3,1c0,0-0.1,0-0.1,0c0,0,0,0,0,0c0,0,0,0-0.1,0c0,0-0.1,0-0.1,0c0,0-0.1,0-0.2,0l0,0c-0.4,0-0.9-0.2-1.2-0.9
			c0,0,0-0.1,0-0.1l0,0h0l0,0l0,0c0-0.1-0.1-0.1-0.1-0.2l0,0h0v0l0,0c0,0,0,0,0,0c0-0.1,0-0.1,0-0.1l0,0l0,0v0l0,0l0,0l0,0l0,0l0,0
			l0,0l0,0c0,0,0-0.1,0-0.1c0,0,0-0.1,0-0.1l0,0l0,0c0-0.1,0-0.1,0-0.2v0c0-0.1,0-0.1,0-0.2c0,0,0-0.1,0-0.1l0,0l0,0
			c0-0.1,0-0.1,0-0.2c0,0,0,0,0,0c0,0,0-0.1,0-0.1c0,0,0,0,0,0c0,0,0-0.1,0.1-0.1c0,0,0,0,0,0c0,0,0,0,0-0.1c0,0,0,0,0,0
			c0,0,0,0,0,0l0,0l0,0c0,0,0,0,0-0.1l0,0c0,0,0,0,0-0.1l0,0c0,0,0,0,0,0c0,0,0,0,0-0.1c0,0,0,0,0,0c0,0,0,0,0,0c0,0,0,0,0,0l0,0
			c0,0-0.7-0.6-0.8-1.3C78.3,14.3,78.4,14.1,78.4,13.9z M89,11.2C88.9,11.1,88.9,11.1,89,11.2c0-0.1,0-0.1,0-0.1c0,0,0,0,0,0
			c0.2-0.2,0.6-0.7,1-0.7h0c0.1,0,0.1,0,0.1,0c0.1,0,0.1,0.1,0.2,0.1c0,0,0.1,0.1,0.1,0.2c0.1,0.2,0.1,0.3,0.2,0.5
			c0,0.1,0,0.2,0,0.4c-0.1,0.7-0.5,1.3-0.5,1.3c0,0,0,0.1,0,0.2c0,0.1,0.1,0.1,0.1,0.1c0,0,0,0,0,0c0,0,0.2,0.1,0.4,0.2h0
			c0.1,0.1,0.2,0.1,0.3,0.2c0.4,0.3,0.6,0.8,0.5,1.2c0,0,0,0.1,0,0.1l0,0c-0.1,0.1-0.1,0.3-0.2,0.4c-0.7,0.8-2.3,1.1-2.3,1.1
			c-0.1,0-0.1,0.1-0.1,0.1c0,0.1,0,0.1,0.1,0.2c0,0,0.3,0.2,0.5,0.5c0.2,0.3,0.2,0.6-0.1,1c-0.6,0.8-1.8,0.7-2.2,0.6
			c-0.1,0-0.1,0-0.2,0c-0.1,0-0.2,0.1-0.2,0.1c0,0-0.4,1.6-1.5,1.9c-0.8,0.2-1.3-0.5-1.5-0.7c0.1,0,0.2,0,0.3,0c0,0,0.1,0,0.1,0
			c0.2,0,0.4-0.2,0.5-0.3c0.2-0.3,0.2-0.6,0.2-1c0.3,0.2,0.7,0.4,1.2,0.4c0.1,0,0.2-0.1,0.4-0.1c0.3-0.1,0.5-0.4,0.5-0.6
			c0.1-0.3,0-0.6-0.1-0.9c0.3,0,0.7,0,1.3-0.4c0.2-0.2,0.4-0.4,0.4-0.6c0.1-0.4-0.1-0.8-0.3-1.1c0.1,0,0.1-0.1,0.1-0.1
			c0,0,0.1,0,0.1,0c0.6-0.1,0.9-0.4,0.9-1c0-0.3-0.1-0.6-0.3-0.8c-0.2-0.2-0.6-0.3-0.9-0.3C88.8,12.6,89.4,11.8,89,11.2z M82.4,20.8
			c-0.1,0-0.3,0-0.4-0.1c-0.6-0.2-0.9-0.8-0.9-1.3c-0.1-0.3,0-0.6,0-0.6c0,0,0-0.1,0-0.1c0.3,0.3,0.6,0.5,0.9,0.5
			c0.3,0,0.5-0.2,0.7-0.4c0.1,0.4,0.4,0.8,0.8,1c0,0,0,0,0,0.1C83.3,20,83.1,20.8,82.4,20.8z M83.6,11.9c0.6-0.1,1,1.2,1,1.2
			c0,0.1,0.1,0.1,0.2,0.1h0c0.1,0,0.2-0.1,0.1-0.2c0,0,0,0,0,0c0-0.1,0-0.6,0.2-0.8c0.1,0,0.2-0.1,0.3-0.1c0.1,0,0.2,0.1,0.3,0.2
			c0.2,0.3,0.2,0.9,0.2,1.1c0,0.1,0,0.2,0.1,0.2c0.1,0,0.2,0,0.2-0.1c0.2-0.2,0.5-0.6,0.6-0.6c0,0,0,0,0.1,0c0.2,0.3,0.2,0.8,0.1,1
			c0,0.1,0,0.1,0,0.2c0,0,0.1,0.1,0.1,0.1c0.1,0,0.6,0,0.8,0.2c0.1,0.1,0.1,0.2,0.1,0.3c0,0,0,0.1,0,0.1c0,0,0,0.1-0.1,0.1v0
			c0,0.1-0.1,0.1-0.2,0.2c-0.3,0.2-0.8,0.2-0.8,0.2c-0.1,0-0.1,0.1-0.2,0.1c0,0.1,0,0.1,0.1,0.2c0,0,0.4,0.3,0.5,0.6
			c0,0.2,0,0.3-0.1,0.4C87.3,17,87.2,17,87.1,17c-0.2,0-0.5-0.3-0.5-0.4c0-0.1-0.1-0.1-0.2-0.1c-0.1,0-0.1,0.1-0.1,0.2
			c0,0.3,0,0.9-0.2,1.1c-0.1,0.1-0.1,0.1-0.2,0.1c-0.6-0.1-0.7-0.5-0.7-0.5c0-0.1-0.1-0.1-0.2-0.1c-0.1,0-0.2,0.1-0.2,0.2
			c0,0.1-0.1,0.5-0.3,0.7l0,0c-0.1,0.1-0.2,0.1-0.3,0.1c-0.5-0.1-0.5-1.1-0.5-1.1c0-0.1-0.1-0.2-0.2-0.2c0,0,0,0-0.1,0l0,0
			c0,0,0,0,0,0c0,0,0,0,0,0l0,0c0,0,0,0,0,0l0,0c0,0,0,0,0,0.1c-0.1,0.3-0.3,0.7-0.5,0.8c0,0-0.1,0-0.2-0.1
			c-0.5-0.4-0.1-1.4-0.1-1.4c0-0.1,0-0.2,0-0.2c-0.1,0-0.1-0.1-0.2,0c0,0-0.3,0.1-0.4,0.1c-0.1-0.1-0.2-0.3-0.2-0.6
			c0-0.3,0.1-0.6,0.2-0.7c0.2-0.2,0.6-0.2,0.6-0.2c0.1,0,0.2,0,0.2-0.1c0-0.1,0-0.2-0.1-0.2c0,0-0.7-0.5-0.4-1.2
			c0-0.1,0.1-0.3,0.2-0.3c0.2,0,0.4,0.2,0.5,0.4c0.1,0.1,0.1,0.1,0.2,0.1c0.1,0,0.1-0.1,0.1-0.2c0,0,0-0.1-0.1-0.2l0,0
			C83.2,12.6,83.2,12,83.6,11.9C83.6,11.9,83.6,11.9,83.6,11.9z M88,15.5c0.2,0.3,0.3,0.6,0.3,0.8c0,0.2-0.1,0.3-0.3,0.4
			c-0.1,0-0.1,0.1-0.2,0.1l0,0c0,0,0,0,0-0.1c0,0,0-0.1,0-0.1c0,0,0,0,0-0.1c0,0,0-0.1,0-0.1c0,0,0,0,0-0.1c0-0.1,0-0.1,0-0.2
			c0-0.2-0.2-0.5-0.3-0.6c0.1,0,0.1,0,0.2-0.1c0,0,0,0,0,0C87.9,15.6,88,15.6,88,15.5L88,15.5z M81.2,10.9c0.3-0.2,0.5-0.3,0.7-0.3
			c0.8-0.1,1.4,0.4,1.4,0.5c0,0,0,0,0,0c-0.1,0-0.2,0.1-0.3,0.2c-0.3,0.2-0.5,0.5-0.6,0.9c0,0.2,0,0.3,0.1,0.5
			c-0.6-0.2-1.5-0.4-2.1,0.2c0,0,0,0-0.1,0.1c0,0,0,0,0-0.1c0,0-0.2-0.8,0.4-1.6c0.1-0.1,0.2-0.2,0.3-0.3
			C81.2,10.9,81.2,10.9,81.2,10.9z M88.7,22.6c-2,0.4-4-0.2-5.8-1.5c0.4-0.1,0.6-0.5,0.7-0.7c0.3,0.4,0.9,0.9,1.6,0.7
			c0.1,0,0.1,0,0.2,0c1-0.3,1.5-1.5,1.6-2c0.5,0.1,1.9,0.3,2.5-0.7c0.3-0.4,0.3-0.7,0.2-1c0.5,0.1,1.4,0.4,2.4,0.2
			c0.1,0,0.2,0,0.3-0.1c0.1,0.6,0.3,1.1,0.7,1.6c0.2,0.2,0.3,0.4,0.5,0.6C92.6,21.2,90.9,22.2,88.7,22.6z M86.6,10.4
			c0.1,0,0.1-0.1,0.2-0.1c0,0,0.1-0.4,0.3-0.7c0.3-0.4,0.5-0.5,0.9-0.4c0.1,0,0.2,0.1,0.3,0.2c0.2,0.1,0.3,0.3,0.3,0.6l0,0
			c0.1,0.2,0.1,0.4,0.1,0.6c0,0.2,0,0.4,0,0.4c0,0,0,0,0,0c-0.1,0-0.2-0.1-0.3-0.1c-0.5-0.1-1.1,0.3-1.4,0.5
			c-0.2-0.3-0.5-0.9-1.2-0.9c-0.2,0-0.3,0-0.5,0.2c-0.3,0.2-0.4,0.7-0.4,1c-0.2-0.3-0.5-0.5-0.9-0.6c-0.1,0-0.3,0-0.4,0
			c0,0,0-0.1,0-0.1c0,0,0-0.5,0.1-0.9c0.1-0.4,0.4-0.7,0.8-0.8c0.1,0,0.1,0,0.2,0c0.2,0,0.3,0,0.5,0c0.1,0,0.3,0.1,0.4,0.2
			c0.1,0.1,0.2,0.2,0.4,0.3l0,0c0.3,0.3,0.4,0.7,0.4,0.7C86.4,10.4,86.5,10.4,86.6,10.4z M67.6,4.1c0.9-1,1.9-1.5,2.8-1.5
			c1.1,0,1.8,0.7,1.8,0.7c0,0,0.1,0.1,0.2,0c0.1,0,0.1-0.1,0.1-0.1c0,0,0.9-2.4,4.6-1.6c1.3,0.3,2.2,1.1,2.6,2.3
			c0.4,1,0.3,1.8,0.3,1.8c0,0.1,0.1,0.2,0.2,0.2c0,0,0.4,0,0.9,0.2v0c0.3,0.1,0.5,0.1,0.8,0.2h0c0.4,0.2,0.8,0.3,1.2,0.6
			c0.3,0.2,0.6,0.5,0.9,0.8c0.1,0.2,0.3,0.4,0.3,0.6v0h0c0,0.1,0,0.1,0.1,0.2c0,0,0,0,0,0c0,0.1,0,0.1,0,0.2l0,0l0,0c0,0,0,0-0.1,0
			c0,0-0.1,0-0.1,0c0,0,0,0-0.1,0c0,0,0,0-0.1,0c0,0,0,0-0.1,0c0,0,0,0-0.1,0.1c0,0,0,0,0,0c0,0,0,0-0.1,0.1c0,0,0,0,0,0
			c0,0,0,0,0,0.1c0,0,0,0,0,0.1c0,0,0,0,0,0.1c0,0,0,0,0,0.1c0,0,0,0,0,0.1c0,0,0,0,0,0.1c0,0,0,0,0,0.1c0,0,0,0,0,0.1
			c0,0,0,0,0,0.1c0,0,0,0,0,0.1c0,0,0,0,0,0.1c0,0,0,0,0,0.1c0,0,0,0,0,0.1c0,0,0,0,0,0.1c0,0,0,0,0,0.1c0,0,0,0,0,0.1
			c0,0,0,0,0,0.1c0,0,0,0,0,0.1c0,0,0,0,0,0c0,0.1,0,0.1,0,0.2c-0.1-0.1-0.3-0.1-0.4-0.2c-0.5-0.2-1.3-0.3-2,0.3
			c-0.1,0-0.1,0.1-0.1,0.1c0.2-0.5,0.2-1,0.2-1.6C80.8,8,80.2,7,79.2,6.6c-0.2-0.1-0.4,0-0.5,0.1c-0.1,0.2-0.2,0.4-0.1,0.6
			c0.1,0.2,0.2,0.3,0.3,0.5c0.4,0.5,0.7,1,0.7,1.7c0.1,0.5-0.1,1.1-0.3,1.6c-0.1,0.3-0.2,0.5-0.2,0.8c0,0.1,0,0.3,0.1,0.3
			c0.1,0.1,0.2,0.1,0.3,0.1c0,0,0.1,0,0.1-0.1c0.2-0.1,0.3-0.2,0.4-0.4c-0.1,0.3-0.1,0.6,0,0.8c0,0-0.1,0-0.1,0c0,0,0,0,0,0
			c0,0-0.1,0-0.1,0c0,0,0,0,0,0c0,0,0,0-0.1,0c0,0,0,0,0,0c0,0-0.1,0-0.1,0c0,0,0,0,0,0c0,0-0.1,0-0.1,0c0,0,0,0,0,0
			c0,0-0.1,0-0.1,0c0,0,0,0,0,0c0,0-0.1,0-0.1,0c0,0,0,0,0,0c0,0-0.1,0-0.1,0c0,0,0,0,0,0c0,0-0.1,0-0.1,0c0,0,0,0-0.1,0
			c0,0-0.1,0-0.1,0c0,0,0,0-0.1,0c0,0,0,0-0.1,0c0,0,0,0,0,0c0,0,0,0-0.1,0c0,0,0,0,0,0c0,0-0.1,0-0.1,0.1c0,0,0,0,0,0
			c0,0-0.1,0.1-0.1,0.1l0,0c0,0,0,0,0,0c0,0,0,0,0,0c0,0,0,0-0.1,0c0,0,0,0,0,0c0,0-0.1,0-0.1,0c0,0-0.1,0-0.1,0c0,0,0,0,0,0
			c-0.3,0.2-0.5,0.5-0.7,0.7c-0.2,0.2-0.3,0.5-0.6,0.6c-0.3,0.2-0.6,0.3-1,0.5c0,0,0,0,0,0c-0.2,0.1-0.5,0.2-0.7,0.3c0,0,0,0-0.1,0
			c-0.1,0.1-0.2,0.2-0.2,0.4l0,0c0,0.2,0.1,0.3,0.3,0.4c0.1,0,0.1,0.1,0.2,0.1c0,0,0,0,0,0c0.1,0,0.1,0,0.2,0c0,0,0,0,0,0
			c0.1,0,0.1,0,0.2,0c0,0,0,0,0,0c0.1,0,0.2,0,0.2,0c0,0,0,0,0,0c0,0,0,0,0.1,0c0,0,0.1,0,0.1,0c0,0,0.1,0,0.1,0c0,0,0.1,0,0.1,0
			c0,0,0.1,0,0.1,0c0,0,0.1,0,0.1,0c0,0,0.1,0,0.1,0c0,0,0.1,0,0.1,0c0,0,0.1,0,0.1,0c0,0,0.1,0,0.1-0.1c0,0,0.1,0,0.1,0
			c0,0,0.1,0,0.1-0.1c0,0,0,0,0.1,0c0,0,0.1-0.1,0.1-0.1c0,0,0,0,0.1,0c0.1,0,0.1-0.1,0.2-0.1l0,0c0,0,0.1-0.1,0.1-0.1c0,0,0,0,0,0
			c0,0,0.1-0.1,0.1-0.1c0,0,0,0,0,0c0.1-0.1,0.1-0.1,0.2-0.2c0,0,0,0,0,0c0-0.1,0.1-0.1,0.1-0.2c0,0,0,0,0,0c0,0,0,0,0,0
			c0,0,0,0,0,0.1c0,0,0,0.1,0.1,0.1c0,0,0,0,0,0.1c0,0,0.1,0.1,0.1,0.1c0,0,0,0,0,0c0,0.1,0.1,0.1,0.1,0.1c0,0,0,0,0,0
			c0,0,0.1,0.1,0.1,0.1c0,0,0,0,0,0c0,0,0,0.1,0.1,0.1c0,0,0,0,0,0c0,0,0.1,0.1,0.1,0.1v0c0,0,0,0.1-0.1,0.1c0,0,0,0,0,0
			c0,0,0,0.1,0,0.1c0,0,0,0,0,0c0,0,0,0.1,0,0.1c0,0,0,0,0,0c0,0,0,0,0,0c0,0,0,0.1,0,0.2c0,0,0,0,0,0v0l0,0c0,0.1,0,0.1,0,0.2l0,0
			c0,0,0,0,0,0c0,0.1,0,0.1,0,0.2v0v0v0v0v0c0,0,0,0,0,0.1v0l0,0l0,0c0,0,0,0,0,0v0l0,0c0,0,0,0,0,0l0,0c0,0,0,0.1,0,0.1l0,0v0l0,0
			l0,0l0,0l0,0v0c0,0,0,0,0,0.1l0,0v0c0,0,0,0.1,0,0.1c0,0,0,0,0,0v0l0,0l0,0l0,0l0,0c0,0,0,0,0,0.1l0,0c0,0,0,0.1,0,0.1
			c0,0,0,0,0,0l0,0l0,0l0,0l0,0l0,0l0,0l0,0l0,0l0,0l0,0c0,0,0,0,0,0c0,0,0,0,0,0.1l0,0c-0.1,0-0.1,0.1-0.2,0.1c0,0,0,0-0.1,0
			c-0.1,0-0.1,0.1-0.2,0.1c0,0,0,0,0,0l0,0c-0.2,0.1-0.4,0.2-0.6,0.2c0,0,0,0-0.1,0l0,0c-0.5,0.2-0.9,0.2-1.4,0.3
			c-2.2,0.1-3.5-1.7-4-2.5c0,0,0-0.1,0-0.1c0,0,0,0,0,0c0-0.1,0-0.1,0-0.2c0,0,0,0,0,0c0-0.1,0-0.1,0-0.1c0,0,0,0,0,0
			c0-0.1,0-0.1,0-0.2l0,0c0-0.1,0-0.1,0-0.2c0,0,0,0,0,0c0,0,0-0.1,0-0.1c0,0,0,0,0,0c0-0.1,0-0.1-0.1-0.2c0,0,0,0,0,0
			c0,0,0-0.1-0.1-0.1c0,0,0,0,0,0c0,0,0-0.1-0.1-0.1l0,0c0-0.1-0.1-0.1-0.1-0.1c0,0,0,0,0,0c0,0,0-0.1-0.1-0.1c0,0,0,0,0,0
			c0,0-0.1-0.1-0.1-0.1c0,0,0,0,0,0c0,0,0.1,0,0.1,0.1c0,0,0.1,0,0.1,0c0,0,0.1,0,0.1,0.1c0,0,0.1,0,0.1,0c0.1,0,0.1,0,0.2,0.1
			c0,0,0,0,0.1,0c0.1,0,0.2,0.1,0.3,0.1c0.1,0,0.1,0,0.2,0c0,0,0,0,0.1,0c0,0,0.1,0,0.1,0c0,0,0,0,0.1,0c0,0,0.1,0,0.1,0
			c0,0,0.1,0,0.1,0c0,0,0.1,0,0.1,0c0,0,0.1,0,0.1,0c0,0,0.1,0,0.1,0c0,0,0.1,0,0.1,0c0,0,0.1,0,0.1,0c0,0,0.1,0,0.1,0
			c0,0,0.1,0,0.1,0c0,0,0.1,0,0.1,0c0,0,0.1,0,0.1,0c0,0,0,0,0.1,0c0,0,0,0,0,0c0,0,0,0,0.1,0c0,0,0.1,0,0.1,0c0,0,0,0,0.1,0
			c0,0,0.1,0,0.1,0c0,0,0,0,0.1,0c0,0,0.1,0,0.1,0c0,0,0,0,0.1,0c0,0,0.1,0,0.1,0c0,0,0,0,0,0c0,0,0,0,0.1-0.1c0,0,0,0,0,0
			c0,0,0,0,0.1-0.1c0,0,0,0,0,0c0,0,0.1-0.1,0.1-0.1l0,0c0,0,0,0,0,0c0-0.1,0-0.2,0-0.3c0,0,0,0,0-0.1c0,0-0.1-0.1-0.1-0.1
			c0,0,0,0,0,0c0,0-0.1,0-0.1,0c-0.2,0-0.3,0-0.5,0.1c-0.1,0-0.3,0.1-0.4,0.1c-0.3,0-0.7-0.1-1-0.2c-0.1,0-0.2-0.1-0.3-0.1
			c-0.1,0-0.1-0.1-0.2-0.1c0,0,0,0,0,0c-0.1,0-0.1-0.1-0.2-0.1c0,0,0,0,0,0C72,13,72,13,71.9,13c0,0,0,0,0,0c-0.1,0-0.2-0.1-0.2-0.1
			c0,0,0,0,0,0l0,0c0,0,0-0.1,0-0.2c0,0,0,0,0,0c0-0.1,0-0.1,0-0.2c0,0,0,0,0,0c0-0.1,0-0.1,0-0.2l0,0c0-0.1,0-0.1,0-0.2
			c0,0,0,0,0,0c0-0.1,0-0.1,0-0.2c0,0,0,0,0,0c0-0.1,0-0.2,0-0.2c0,0,0,0,0,0c0-0.1,0-0.2-0.1-0.3c0,0,0,0,0,0
			c0-0.1-0.1-0.2-0.1-0.3c0,0,0-0.1-0.1-0.1c0.1,0,0.2,0.1,0.3,0.1c0,0,0,0,0,0c0.2,0,0.3-0.2,0.3-0.4c0-0.6,0.1-1.1,0.3-1.6
			c0.1-0.3,0.3-0.5,0.5-0.7c0.2-0.2,0.4-0.4,0.5-0.6c0.1-0.1,0.1-0.3,0-0.4c-0.1-0.2-0.3-0.3-0.5-0.3c-0.6,0-1.1,0.5-1.5,1.3
			c-0.3,0.6-0.4,1.3-0.2,2c0,0,0,0,0,0c0,0,0,0-0.1-0.1c0,0-0.1-0.1-0.1-0.1c0,0,0,0-0.1-0.1c0,0-0.1-0.1-0.1-0.1c0,0,0,0-0.1-0.1
			c0,0-0.1,0-0.1-0.1c0,0,0,0-0.1,0c0,0-0.1,0-0.1-0.1c0,0,0,0-0.1,0c0,0-0.1,0-0.1-0.1c0,0,0,0-0.1,0c-0.1,0-0.1,0-0.2-0.1
			c0,0,0,0,0,0c0,0-0.1,0-0.1,0c0,0,0,0-0.1,0c0,0-0.1,0-0.1,0c0,0,0,0-0.1,0c0,0-0.1,0-0.1,0c0,0,0,0-0.1,0c0,0,0,0-0.1,0
			c0,0,0,0-0.1,0c0,0,0,0-0.1,0c0,0,0,0-0.1,0c0,0,0,0,0,0c0,0,0,0,0,0c0,0,0-0.1,0.1-0.1c0,0,0,0,0,0c0,0,0.1-0.1,0.1-0.1
			c0,0,0,0,0,0c0.1-0.1,0.1-0.2,0.2-0.3c0.1-0.1,0.1-0.3,0.1-0.4c0-0.2-0.1-0.3-0.2-0.4c-0.1-0.1-0.3-0.1-0.4-0.1c0,0,0,0,0,0
			c0,0-0.1,0-0.1,0.1c0,0,0,0,0,0c0,0,0,0-0.1,0l0,0l0,0c0,0,0,0,0,0c0-0.1-0.1-0.1-0.1-0.2c0,0,0,0,0-0.1c0,0,0-0.1-0.1-0.1
			c0,0,0,0,0,0c0.4-0.1,0.6-0.5,0.8-0.8c0.1-0.1,0.1-0.3,0.2-0.4c0.2-0.3,0.6-0.6,0.9-0.8c0.3-0.3,0.7-0.5,1-0.9
			c0.1-0.1,0.1-0.3,0-0.4c-0.1-0.2-0.2-0.3-0.4-0.2c-0.9,0-1.6,0.8-2.1,1.3c-0.5,0.5-0.7,1.1-0.8,1.9c0,0-0.1-0.1-0.1-0.1
			c0,0,0,0-0.1-0.1c0,0-0.1-0.1-0.1-0.1c0,0,0,0-0.1,0c-0.1,0-0.1-0.1-0.2-0.1c-0.1,0-0.1,0-0.2-0.1c0,0,0,0,0,0c0,0-0.1,0-0.1,0
			c0,0,0,0,0,0c0,0-0.1,0-0.1,0c0,0,0,0,0,0c-0.2,0-0.3,0-0.5,0c0,0,0,0,0,0c0,0-0.1,0-0.1,0C66.6,5.6,66.9,4.8,67.6,4.1z
			 M50.5,13.7C50.5,13.7,50.5,13.7,50.5,13.7c0.1-0.1,0.1-0.1,0.1-0.2c0,0,0-0.1,0.1-0.1c0,0,0,0,0.1-0.1c0,0,0.1-0.1,0.1-0.1
			c0,0,0,0,0.1-0.1c0,0,0.1-0.1,0.1-0.1c0,0,0,0,0.1-0.1c0,0,0.1,0,0.1-0.1c0,0,0,0,0.1,0c0,0,0.1,0,0.1-0.1c0,0,0,0,0.1,0
			c0.1,0,0.1-0.1,0.2-0.1c1.3-0.5,1.9,0.3,2.3,0.8c0.1,0.2,0.2,0.3,0.3,0.3c0,0,0.1,0,0.1,0c0,0,0,0,0,0c0,0,0,0,0.1,0c0,0,0,0,0,0
			c0,0,0,0,0.1,0c0,0,0,0,0,0c0,0,0,0,0,0c0,0,0,0,0,0c0,0,0,0.1,0,0.1c0,0,0,0.1,0,0.1c0,0,0,0.1,0,0.1c0,0,0,0.1,0,0.1
			c0,0,0,0.1,0,0.1c0,0,0,0.1,0,0.1c0,0,0,0.1,0,0.1c0,0,0,0.1,0,0.1c0,0,0,0.1,0,0.1c0,0,0,0.1,0,0.1c0,0,0,0.1,0,0.1
			c0,0,0,0.1,0.1,0.1c0,0,0,0.1,0,0.1c0,0,0,0.1,0.1,0.1c0,0,0,0.1,0.1,0.1c0,0,0,0.1,0.1,0.1c0,0,0,0,0.1,0.1c0,0,0,0.1,0.1,0.1
			c0,0,0,0,0.1,0.1c0,0,0.1,0,0.1,0.1c0,0,0,0,0.1,0.1c0,0,0.1,0,0.1,0.1c0,0,0,0,0.1,0.1c0,0,0.1,0,0.1,0.1c0,0,0,0,0.1,0
			c0,0,0.1,0,0.1,0.1c0,0,0,0,0.1,0c0,0,0.1,0,0.1,0.1c0,0,0,0,0,0c0.1,0,0.1,0.1,0.2,0.1c-0.1,0.2-0.3,0.5-0.5,0.8
			c-0.2-0.5-0.5-0.9-0.8-1.2h0c-0.1-0.1-0.2,0-0.3,0c-0.1,0.1-0.1,0.2-0.1,0.3c0.1,0.2,0.2,0.4,0.2,0.6c0.1,0.1,0.1,0.2,0.2,0.3
			c0.1,0.2,0.1,0.4,0.1,0.7c0,0.2,0,0.4,0.1,0.7c0,0.1,0.1,0.2,0.2,0.2c0,0,0.1,0,0.1,0l0,0c0,0.3,0.1,0.6,0.4,0.9l0,0
			c0,0,0,0,0,0.1l0,0c0,0,0,0,0,0c0,0,0,0,0,0c0,0,0,0,0,0c0,0,0,0,0,0c0,0,0,0,0,0c0,0,0,0,0,0c0,0,0,0,0,0c0,0,0,0,0,0
			c0,0,0,0,0,0c0,0,0,0,0,0c0,0,0,0,0,0c0,0,0,0,0,0c0,0,0,0,0,0c0,0,0,0,0,0c0,0,0,0,0,0c0,0,0,0,0.1,0c0,0,0,0,0,0c0,0,0,0,0.1,0
			c0,0,0,0,0,0c0,0,0,0,0.1,0c0,0,0,0,0.1,0c0,0,0.1,0,0.1,0c0,0,0.1,0,0.1,0c0,0,0,0,0,0c0,0,0.1,0,0.1,0c0,0,0,0,0,0
			c0,0,0,0,0.1,0c0,0.3,0,0.8-0.7,1.5c-0.7,0.7-1.7,0.8-2.6,0.6c0,0,0,0,0-0.1c0,0,0-0.1,0-0.1c0,0,0-0.1,0-0.1c0,0,0-0.1,0-0.1
			c0,0,0-0.1,0-0.1c0,0,0-0.1,0-0.1c0,0,0-0.1,0-0.1c0,0,0-0.1,0-0.1c0,0,0-0.1,0-0.1c0,0,0-0.1,0-0.1c0,0,0-0.1,0-0.1
			c0,0,0-0.1,0-0.1c0,0,0-0.1,0-0.1c0,0,0-0.1,0-0.1c0,0,0-0.1,0-0.1c0,0,0-0.1,0-0.1c0,0,0-0.1,0-0.1c0,0,0-0.1,0-0.1
			c0,0,0-0.1,0-0.1c0,0,0-0.1,0-0.1c0,0,0,0,0-0.1c0,0,0,0,0-0.1c0,0,0,0,0-0.1c0,0,0,0,0-0.1c0,0,0,0,0-0.1c0,0,0,0,0-0.1
			c0,0,0,0,0,0c0,0,0,0,0-0.1c0,0,0,0,0,0c0-0.1-0.1-0.1-0.1-0.2c-0.3-0.3-0.6-0.5-0.8-0.6l0,0c0,0,0,0,0,0c0,0,0,0,0,0
			c0,0,0,0,0-0.1c0,0,0,0,0,0v0l0,0l0,0l0,0c0,0,0,0,0,0c0,0,0-0.1,0-0.1l0,0l0,0h0h0c0,0,0,0,0-0.1l0,0l0,0l0,0l0,0l0,0
			c0,0,0,0,0-0.1l0,0l0,0h0v0l0,0l0,0l0,0l0,0c0,0,0-0.1,0-0.1l0,0l0,0c0,0,0-0.1,0-0.1l0,0l0-0.1c0,0,0-0.1,0-0.1l0,0l0-0.1
			c0,0,0-0.1,0-0.1c0,0,0,0,0-0.1l0,0c0,0,0-0.1,0-0.1v0l0,0c0,0,0-0.1,0-0.1c0,0,0,0,0,0c0,0,0,0,0,0l0,0l0,0c0,0,0-0.1,0-0.1v0v0
			c0,0,0-0.1,0-0.1v0l0,0c0,0,0-0.1,0-0.1l0,0l0,0l0,0c0,0,0,0,0-0.1c0,0,0,0,0,0v0l0,0c0,0,0-0.1,0-0.1l0,0v0h0c0,0,0,0,0,0h0
			c0,0,0,0,0,0c0,0,0,0,0-0.1v0c0,0,0,0,0,0c0,0,0,0,0,0c0,0,0,0,0,0c0,0,0,0,0,0l0,0l0,0l0,0v0c0,0,0-0.1,0-0.1
			c0.2,0.1,0.4,0,0.6,0c0,0,0.1,0,0.1,0l0.1,0c0,0,0.1,0,0.1,0c0,0,0,0,0,0c0,0,0,0,0.1,0h0c0.1,0,0.1,0,0.2,0c0.1,0,0.2,0,0.3,0
			c0,0,0,0,0.1,0c0.1,0,0.2-0.1,0.2-0.1c0.1-0.1,0.1-0.2,0-0.3c-0.1-0.4-0.5-0.5-1-0.4c-0.2,0-0.7,0.1-0.9,0.5l0,0
			c0,0,0-0.1-0.1-0.2l0,0l0,0c0,0,0-0.1,0-0.1c0,0,0,0,0,0l0,0l0,0c0,0,0-0.1-0.1-0.1l0-0.1c0,0,0-0.1-0.1-0.1c0,0,0,0,0-0.1
			c0,0,0,0,0-0.1c0,0,0-0.1,0.1-0.1c0,0,0,0,0-0.1c0,0,0-0.1,0.1-0.1c0,0,0,0,0,0c0,0,0.1-0.1,0.1-0.1c0.2-0.2,0.4-0.3,0.7-0.4
			c0.1,0,0.1,0,0.2-0.1c0,0,0.1,0,0.1-0.1c0.1-0.1,0.1-0.2,0.1-0.3l0,0l0,0c0-0.2-0.1-0.3-0.3-0.3c0,0-0.1,0-0.1,0c0,0,0,0,0,0
			c0,0-0.1,0-0.1,0c0,0,0,0,0,0c0,0-0.1,0-0.1,0c0,0,0,0,0,0c0,0-0.1,0-0.1,0c0,0,0,0,0,0c0,0-0.1,0-0.1,0l0,0
			c-0.1,0-0.2,0.1-0.3,0.1c0,0,0,0,0,0c0,0-0.1,0-0.1,0.1c0,0,0,0,0,0c0,0-0.1,0-0.1,0.1c0,0,0,0,0,0c0,0-0.1,0-0.1,0.1c0,0,0,0,0,0
			c-0.1,0.1-0.1,0.1-0.2,0.2c0,0,0,0,0,0c0,0,0,0.1-0.1,0.1c0,0,0,0,0,0c0,0,0,0,0,0c-0.2-0.3-0.5-0.6-0.8-0.9
			c-0.1-0.1-0.2-0.2-0.3-0.2c0,0,0,0,0,0C50.4,13.8,50.4,13.8,50.5,13.7C50.5,13.8,50.5,13.8,50.5,13.7z M53.7,22.6
			c0.4,0.1,0.9,0.1,1.4,0c0.5-0.1,1-0.3,1.4-0.7c0.8-0.9,0.8-1.5,0.7-1.9c0.2-0.1,0.3-0.2,0.4-0.3c0,0.6,0.1,1.6,0.9,2.1
			c-0.4,2.9-1.6,6.3-4.9,6.9c-1.4,0.2-2.9-0.1-4.4-0.9c0-0.2,0.1-0.4,0.1-0.5c0.7,0,3.7-0.4,4.3-3.4C53.7,23.4,53.7,23,53.7,22.6z
			 M72,16.4c0.6,0.9,1.8,2.4,3.8,2.4c-1.3,2.6-3.5,5.8-7.1,6.4c-1.7,0.3-4.3-0.1-7.4-3.8c0.5,0.5,1,0.7,1.7,0.7c0.1,0,0.2,0,0.3,0
			c1.1-0.2,1.5-1.4,1.6-2.2c0.5,0.4,1.8,1.1,3.2,0.1c1.2-0.8,1.3-2.1,1.2-2.6C70,17.5,71.5,17.4,72,16.4z M68.9,11.5
			C68.9,11.4,69,11.4,68.9,11.5c0.1-0.1,0.1-0.1,0.1-0.1c0-0.1,0.1-0.2,0.1-0.3c0,0,0,0,0,0c0,0,0,0,0-0.1c0,0,0-0.1,0-0.1
			c0,0,0,0,0-0.1c0,0,0-0.1,0-0.1c0,0,0-0.1,0-0.1c0,0,0-0.1,0-0.1c0,0,0-0.1,0-0.1c0,0,0-0.1,0-0.1c0,0,0-0.1,0-0.1
			c0,0,0-0.1,0-0.1c0,0,0-0.1,0-0.1c0,0,0-0.1-0.1-0.1c0,0,0,0,0-0.1c0-0.1-0.1-0.1-0.1-0.2c0-0.1-0.1-0.1-0.1-0.2c0,0,0,0,0-0.1
			c0,0-0.1-0.1-0.1-0.1c0,0,0,0-0.1-0.1c0,0-0.1-0.1-0.1-0.1c0,0,0,0,0,0l0,0c0,0-0.1-0.1-0.1-0.1c0,0,0,0-0.1,0c0,0-0.1,0-0.1,0
			c0,0,0,0-0.1,0c0,0-0.1,0-0.1,0c0,0,0,0,0,0c0,0-0.1,0-0.1,0c0,0,0,0,0,0c0,0-0.1,0-0.1,0c0,0,0,0,0,0c0,0,0,0,0,0
			c0,0-0.1,0-0.1,0h0l0,0c0,0,0,0-0.1,0c0,0,0,0-0.1,0c0,0,0,0-0.1,0c0,0,0,0-0.1,0c0,0,0,0-0.1,0c0,0,0,0-0.1,0c0,0,0,0-0.1,0
			c0,0,0,0,0,0c0,0,0,0-0.1,0c0,0,0,0,0,0c0,0,0,0-0.1,0c0,0,0,0,0,0c0,0,0,0,0,0c0,0,0,0,0,0c0,0,0,0,0,0c-0.1-0.4-0.4-1.2-1-1.5
			c0,0,0.1-0.1,0.1-0.1c0,0,0.3-0.8,0.9-1c0.3-0.1,0.6-0.1,1,0.1C67.7,7,67.8,7,67.8,7c0.4,0.2,0.7,0.6,0.9,1.1c0,0,0,0.1,0,0.1
			c0,0.1,0,0.2,0,0.2c0.1,0.5,0,1,0,1c0,0,0,0,0,0c0,0,0,0,0,0c0,0,0,0,0,0c0,0,0,0.1,0,0.1h0c0,0,0,0,0.1,0l0,0c0,0,0,0,0.1,0
			c0,0,0,0,0,0l0,0c0,0,0,0,0,0c0,0,0,0,0.1,0c0.4-0.1,1.4-0.1,2,1.3c0.3,0.7,0.4,1.3,0.2,1.8c-0.1,0.2-0.2,0.4-0.3,0.5l0,0
			c0,0.1-0.1,0.1-0.1,0.1c0,0-0.1,0.1-0.1,0.1c0,0,0,0.1,0.1,0.1c0,0,1.3,1.1,0.9,2.4c0,0,0,0,0,0.1c-0.4,1.2-2.6,1.1-2.6,1.1
			c-0.1,0-0.1,0-0.1,0.1c0,0,0,0.1,0,0.2c0,0,0.3,1.5-1.1,2.4c-1.6,1.1-3-0.2-3-0.3c0-0.1-0.1-0.1-0.2,0c-0.1,0-0.1,0.1-0.1,0.2
			c0,0-0.1,2.2-1.6,2.2c-1.5,0.1-2-1.6-2-1.7c0-0.1-0.1-0.1-0.2-0.1c0,0,0,0,0,0c-0.1,0-0.1,0.1-0.1,0.1c0,0-0.1,0.2-0.2,0.5
			c-0.2,0.3-0.4,0.6-0.6,0.7c-0.1,0-0.1,0.1-0.2,0.1c-0.2,0.1-0.3,0.1-0.5,0c-0.1,0-0.1,0-0.2-0.1h0c0,0-0.1,0-0.1,0l0,0
			c-1-0.5-0.8-2.3-0.8-2.3c0-0.1,0-0.2-0.1-0.2c-0.1,0-0.2,0-0.2,0c0,0-0.4,0.4-0.8,0.7c-0.1,0.1-0.2,0.1-0.3,0.2
			c-0.4,0.1-0.6-0.1-0.7-0.2c-0.2-0.4-0.3-0.8-0.3-1.1c0.1-0.2,0.1-0.3,0.1-0.5c0.2-0.7,0.6-1.2,0.7-1.4c0,0,0,0,0,0
			c0,0,0.1-0.1,0-0.2c0-0.1-0.1-0.1-0.1-0.1c0,0-2-0.8-1.5-2.3c0,0,0-0.1,0-0.1c0,0,0-0.1,0.1-0.1c0.1-0.3,0.4-0.6,0.8-0.8
			c0.3-0.2,0.7-0.4,1-0.5h0c0,0,0.1,0,0.1,0c0,0,0,0,0,0c0,0,0.1,0,0.1,0c0,0,0.1,0,0.1,0c0,0,0,0,0,0c0.7-0.2,1.2-0.3,1.2-0.3l0,0
			l0,0c0,0,0,0,0,0c0,0,0,0,0,0c0,0,0,0,0,0c0,0,0,0,0,0c0,0,0,0,0,0c0,0,0-0.1,0.1-0.1l0,0l0,0l0,0c0,0,0,0,0,0v0c0,0,0-0.1,0-0.1
			l0,0l0,0c0,0,0,0,0,0l0,0l0,0l0,0l0,0l0,0h0l0,0c0,0-0.1,0-0.2-0.1c0,0,0,0-0.1-0.1v0c-0.1-0.1-0.3-0.3-0.4-0.5
			c0-0.1,0-0.1-0.1-0.2l0,0c0-0.1-0.1-0.2-0.1-0.3c0,0,0,0,0,0c0-0.1,0-0.1,0-0.2c0,0,0,0,0,0c0-0.1,0-0.2,0.1-0.3c0,0,0,0,0,0
			c0,0,0-0.1,0.1-0.1c0,0,0,0,0,0c0,0,0.1-0.1,0.1-0.1l0,0c0,0,0,0,0,0c0-0.1,0.1-0.1,0.1-0.1c0,0,0,0,0,0c0,0,0.1-0.1,0.1-0.1
			c0,0,0,0,0,0c0.1-0.1,0.2-0.2,0.4-0.2h0C58.8,9.1,59,9,59.1,9c0,0,0.1,0,0.1,0c0.2,0,0.4,0,0.7,0l0,0c0.1,0,0.2,0,0.3,0
			c0,0,0,0,0,0c0.1,0,0.2,0,0.4,0.1h0l0,0c0.1,0,0.2,0,0.3,0.1c0.1,0,0.2,0,0.2,0c0.1,0,0.2,0,0.2-0.1c0,0,0.7-2,2.1-2.3
			c1.3-0.3,1.9,1,2,1.2c-0.2-0.1-0.3-0.1-0.5-0.1c-0.1,0-0.2,0-0.3,0c-0.2,0-0.4,0.2-0.6,0.3c0,0-0.1,0.1-0.1,0.1c0,0,0,0,0,0
			c0,0,0,0.1-0.1,0.1c0,0,0,0,0,0c0,0,0,0.1,0,0.1c0,0,0,0,0,0c0,0,0,0.1,0,0.1c0,0,0,0,0,0c0,0,0,0.1,0,0.1c0,0,0,0,0,0
			c0,0.1,0,0.1,0,0.2c0,0,0,0,0,0c0,0,0,0.1,0,0.1c0,0,0,0,0,0c0,0,0,0.1,0,0.1c0,0,0,0,0,0c0,0,0,0-0.1-0.1c0,0,0,0,0,0
			c0,0-0.1-0.1-0.1-0.1c0,0,0,0,0,0c0,0-0.1,0-0.1-0.1c0,0,0,0,0,0c0,0-0.1-0.1-0.1-0.1l0,0l0,0c0,0-0.1,0-0.1-0.1c0,0,0,0,0,0
			C63,9,63,9,63,9c0,0,0,0,0,0c-0.1,0-0.1,0-0.2,0c0,0,0,0,0,0c0,0-0.1,0-0.1,0c0,0,0,0-0.1,0c0,0-0.1,0-0.1,0c0,0,0,0,0,0
			c-0.1,0-0.1,0-0.2,0c0,0,0,0,0,0c0,0-0.1,0-0.1,0c0,0,0,0-0.1,0c-0.1,0-0.1,0-0.2,0.1l0,0c0,0-0.1,0-0.1,0
			c-0.3,0.1-0.5,0.3-0.6,0.6c0,0,0,0.1,0,0.1c-0.1,0.4-0.1,0.9,0,1.2c0,0,0,0,0,0c0,0-0.1,0-0.1,0c0,0,0,0-0.1,0c0,0-0.1,0-0.1,0
			c0,0,0,0-0.1,0c0,0-0.1,0-0.1,0c0,0,0,0-0.1,0c0,0-0.1,0-0.1,0c0,0-0.1,0-0.1,0c0,0-0.1,0-0.1,0c0,0-0.1,0-0.1,0c0,0-0.1,0-0.1,0
			c0,0-0.1,0-0.1,0c-0.1,0-0.1,0-0.2,0.1c0,0-0.1,0-0.1,0c-0.1,0-0.1,0.1-0.2,0.1c0,0,0,0,0,0l0,0c0,0,0,0-0.1,0l0,0
			c-0.3,0.2-0.5,0.4-0.6,0.7c0,0.1,0,0.1,0,0.2c0,0,0,0,0,0.1c0,0,0,0.1,0,0.1c0,0,0,0.1,0,0.1c0,0,0,0.1,0,0.1c0,0,0,0.1,0,0.1
			c0,0,0,0.1,0,0.1c0,0,0,0.1,0,0.1c0,0,0,0.1,0,0.1c0,0,0,0,0,0.1c0,0,0,0.1,0.1,0.1c0,0,0,0,0,0.1c0,0,0,0.1,0.1,0.1c0,0,0,0,0,0
			l0,0c-0.1,0.1-0.2,0.1-0.2,0.2c0,0,0,0,0,0c0,0,0,0-0.1,0c0,0-0.1,0-0.1,0c0,0,0,0-0.1,0c0,0,0,0-0.1,0c0,0,0,0-0.1,0
			c0,0,0,0-0.1,0c0,0,0,0-0.1,0c0,0,0,0-0.1,0c0,0,0,0-0.1,0c0,0,0,0-0.1,0c0,0,0,0-0.1,0c0,0,0,0-0.1,0c0,0,0,0-0.1,0
			c0,0,0,0-0.1,0c0,0,0,0,0,0c0,0,0,0,0,0c0,0,0,0,0,0c0,0,0,0,0,0c0,0,0,0,0,0c0,0,0,0,0,0.1c0,0,0,0,0,0c0,0,0,0,0,0.1
			c0,0,0,0,0,0c0,0,0,0,0,0.1c0,0,0,0,0,0c0,0,0,0.1,0,0.1c0,0,0,0,0,0c0,0,0,0.1,0,0.1c0,0,0,0,0,0c0,0,0,0.1,0,0.1
			c0,0,0,0.1,0,0.1c0,0,0,0.1,0,0.1l0,0l0,0l0,0l0,0c0,0.1,0,0.1,0,0.2c0,0,0,0,0,0l0,0l0,0l0,0l0,0l0,0c0,0,0,0,0,0
			c0,0,0,0.1,0,0.1v0h0v0v0l0,0l0,0c0,0.1,0,0.1,0.1,0.2c0,0,0.1,0.1,0.1,0.1l0,0c0,0,0,0,0,0l0,0l0,0l0,0h0v0c0,0,0,0,0.1,0.1
			c0,0,0,0,0,0.1l0,0h0l0,0l0,0l0,0c0,0,0.1,0.1,0.1,0.1c0,0,0.1,0.1,0.1,0.1l0,0l0,0c0,0,0.1,0,0.1,0.1c0,0,0,0,0,0s0,0,0,0l0,0
			l0,0h0l0,0c0,0,0.1,0,0.1,0l0,0h0l0,0c0,0,0,0,0,0h0h0l0,0h0c0,0,0.1,0,0.1,0h0h0l0,0l0,0c0,0,0,0,0,0h0l0,0l0,0h0v0l0,0
			c0.1,0,0.2,0,0.3,0l0,0l0,0h0h0c0,0,0.1,0,0.1,0c0,0,0,0,0,0c0,0,0,0,0,0c0,0,0,0-0.1,0.1c0,0,0,0,0,0c-0.1,0.1-0.2,0.2-0.2,0.2
			c0,0,0,0,0,0c0,0-0.1,0.1-0.1,0.1c0,0,0,0,0,0c-0.1,0.1-0.1,0.1-0.2,0.2c0,0,0,0,0,0c0,0,0,0.1-0.1,0.1c0,0,0,0,0,0.1
			c0,0,0,0,0,0.1c0,0-0.1,0.1-0.1,0.1l0,0l0,0c-0.1,0.1-0.1,0.2-0.2,0.3l0,0c0,0,0,0,0,0c0,0,0,0.1,0,0.1c0,0,0,0.1,0,0.1
			c-0.1,0.3,0,0.5,0.1,0.7l0,0l0,0c0,0,0,0,0,0c0,0,0,0,0,0.1l0,0v0c0,0,0.1,0.1,0.1,0.1c0,0,0,0,0,0c0,0,0.1,0.1,0.1,0.1
			c0,0,0,0,0.1,0c0,0,0.1,0,0.1,0.1c0,0,0.1,0,0.1,0c0,0,0.1,0,0.1,0c0,0,0,0,0.1,0c0,0,0,0,0.1,0c0,0,0,0,0,0c0.1,0,0.1,0,0.2,0
			c0,0,0,0,0,0c0.1,0,0.1,0,0.2,0c0,0,0,0,0,0h0c0.1,0,0.1,0,0.2,0c0,0,0,0,0,0c0.1,0,0.1,0,0.2-0.1c0,0,0,0,0,0c0,0,0,0,0.1,0
			c0,0,0,0,0.1,0c0,0,0,0,0,0c0,0,0.1,0,0.1,0c0,0,0,0,0,0c0,0,0.1,0,0.1,0c0,0,0,0,0,0c0,0,0.1,0,0.1-0.1l0,0
			c0.2-0.1,0.3-0.2,0.4-0.2c0,0,0,0.1,0.1,0.1c0,0,0,0,0,0l0,0c0.1,0.3,0.4,0.6,0.7,0.9c0.2,0.1,0.4,0.2,0.6,0.3c0.1,0,0.2,0,0.2,0
			c0.1,0,0.2-0.1,0.3-0.2c0,0,0.1-0.1,0.1-0.1c0,0,0,0,0,0c0,0,0.1-0.1,0.1-0.1c0,0,0,0,0,0c0,0,0.1-0.1,0.1-0.2c0,0,0,0,0,0
			c0,0,0-0.1,0.1-0.1c0,0,0,0,0,0c0-0.1,0-0.1,0.1-0.2l0,0c0-0.1,0-0.1,0.1-0.2c0,0,0,0,0,0c0,0,0-0.1,0-0.1c0,0,0,0,0,0
			c0-0.1,0-0.1,0-0.2l0,0c0,0,0,0,0,0c0,0,0,0.1,0.1,0.1c0,0,0,0,0,0c0,0,0.1,0.1,0.1,0.1c0,0,0,0,0,0c0,0,0.1,0.1,0.1,0.1
			c0,0,0,0,0,0c0,0,0.1,0.1,0.1,0.1c0,0,0,0,0,0c0,0,0.1,0.1,0.1,0.1c0,0,0,0,0,0c0,0,0.1,0.1,0.1,0.1c0,0,0,0,0.1,0
			c0,0,0.1,0,0.1,0.1c0,0,0,0,0.1,0c0.1,0,0.1,0,0.2,0.1c0.1,0,0.1,0,0.2,0c0,0,0,0,0.1,0c0,0,0.1,0,0.1,0c0,0,0.1,0,0.1,0
			c0,0,0,0,0.1,0c0,0,0.1,0,0.1,0c0,0,0,0,0.1,0l0,0c0,0,0.1,0,0.1,0c0,0,0,0,0,0c0,0,0.1,0,0.1,0c0,0,0,0,0,0c0,0,0.1,0,0.1,0
			c0,0,0,0,0,0c0,0,0.1-0.1,0.1-0.1c0.5-0.3,0.7-0.6,0.8-1c0-0.1,0-0.1,0-0.2v0c0-0.1,0-0.1,0-0.2c0,0,0,0,0,0c0-0.1,0-0.1,0-0.2
			l0,0c0,0,0-0.1,0-0.1l0,0c0,0,0,0,0,0c0,0,0,0,0.1,0c0,0,0,0,0.1,0c0,0,0.1,0,0.1,0c0,0,0.1,0,0.1,0c0,0,0.1,0,0.1,0
			c0,0,0.1,0,0.1,0c0,0,0.1,0,0.1,0c0,0,0.1,0,0.1,0c0,0,0.1,0,0.1,0c0,0,0.1,0,0.1,0c0,0,0.1,0,0.1,0c0,0,0.1,0,0.1,0
			c0,0,0.1,0,0.1,0c0,0,0.1,0,0.1,0c0,0,0.1,0,0.1,0c0,0,0.1,0,0.1,0c0,0,0.1,0,0.1,0c0,0,0.1,0,0.1,0c0,0,0.1,0,0.1,0
			c0,0,0.1,0,0.1,0c0,0,0,0,0.1,0c0,0,0,0,0,0l0,0c0.1,0,0.1,0,0.2,0c0,0,0,0,0,0c0.1,0,0.1,0,0.2-0.1c0,0,0,0,0,0
			c0,0,0.1,0,0.1-0.1c0,0,0,0,0,0c0.1,0,0.1-0.1,0.1-0.1c0,0,0,0,0,0c0,0,0.1-0.1,0.1-0.1c0.4-0.4,0.6-0.9,0.4-1.4
			c-0.1-0.4-0.4-0.7-0.6-0.9c0.4,0,0.8-0.1,1.1-0.3c0.3-0.2,0.4-0.6,0.3-1c0-0.1,0-0.1,0-0.2c-0.1-0.4-0.2-0.7-0.5-0.9
			c-0.3-0.2-0.7-0.3-1-0.4c0,0,0,0,0,0c0,0,0,0,0,0c0,0-0.1,0-0.1,0c0.1-0.1,0.1-0.1,0.2-0.2l0,0c0,0,0-0.1,0.1-0.1c0,0,0,0,0,0
			c0,0,0.1-0.1,0.1-0.1c0,0,0,0,0,0c0,0,0-0.1,0.1-0.1c0,0,0,0,0,0 M59.4,13.6L59.4,13.6c0.1,0,0.2-0.1,0.3-0.1
			c0.4-0.1,0.8-0.1,0.8-0.1c0.1,0,0.1-0.1,0.2-0.1c0-0.1,0-0.1-0.1-0.2c0,0-0.5-0.4-0.6-0.9c0-0.2,0-0.4,0.2-0.6
			c0.2-0.2,0.3-0.3,0.5-0.2c0.3,0,0.6,0.4,0.7,0.6c0,0.1,0.1,0.1,0.2,0.1c0.1,0,0.1-0.1,0.1-0.2c0-0.3,0-1.2,0.4-1.4
			c0.1-0.1,0.2-0.1,0.3-0.1c0.8,0.1,0.9,0.7,0.9,0.7c0,0.1,0.1,0.2,0.2,0.2c0.1,0,0.2-0.1,0.2-0.1c0-0.2,0.2-0.7,0.4-1l0,0
			c0,0,0,0,0,0c0.1-0.1,0.3-0.2,0.4-0.1c0.7,0.2,0.6,1.5,0.6,1.5c0,0.1,0.1,0.2,0.1,0.2c0.1,0,0.2,0,0.2-0.1c0.1-0.4,0.4-1,0.7-1
			c0.1,0,0.2,0,0.3,0.1c0.6,0.6,0,1.9,0,1.9c0,0.1,0,0.1,0,0.2c0.1,0.1,0.1,0.1,0.2,0c0.1-0.1,0.4-0.2,0.6,0
			c0.2,0.1,0.2,0.4,0.2,0.8c0,0.6-0.2,0.9-0.6,1.1c-0.3,0.1-0.6,0.1-0.6,0.1c-0.1,0-0.2,0-0.2,0.1c0,0.1,0,0.2,0.1,0.2
			c0,0,0.9,0.7,0.4,1.7c-0.1,0.2-0.2,0.3-0.4,0.4c-0.3,0-0.6-0.4-0.7-0.5c0-0.1-0.1-0.1-0.2-0.1c-0.1,0-0.1,0.1-0.1,0.2
			c0,0,0,0.1,0,0.3c0,0,0,0,0,0c0,0,0,0,0,0l0,0c0,0.5,0,1.3-0.6,1.4c0,0,0,0,0,0c-0.9,0.1-1.3-1.6-1.3-1.7c0-0.1-0.1-0.1-0.2-0.1
			c-0.1,0-0.2,0.1-0.1,0.2c0,0,0,0.8-0.4,1c0,0,0,0,0,0l0,0l0,0h0c-0.1,0.1-0.3,0.1-0.4,0.1c-0.2,0-0.3-0.1-0.4-0.2
			c-0.4-0.5-0.2-1.5-0.2-1.5c0-0.1,0-0.2-0.1-0.2c-0.1,0-0.2,0-0.2,0.1c-0.2,0.3-0.7,0.8-0.9,0.8c0,0-0.1,0-0.1-0.1
			c-0.3-0.4-0.2-1.2-0.1-1.4c0,0,0,0,0,0c0,0,0,0,0,0h0l0,0c0,0,0,0,0,0c0,0,0,0,0,0c0,0,0,0,0,0c0,0,0,0,0,0c0,0,0,0,0,0
			c0,0,0,0,0,0c0,0,0,0,0,0c0,0,0,0,0,0l0,0l0,0l0,0l0,0h0l0,0c0,0,0,0,0,0l0,0h0l0,0h0h0c0,0,0,0,0,0h0l0,0h0l0,0h0l0,0l-0.2,0h0
			c0,0-0.1,0-0.1,0l0,0l-0.2,0l0,0c0,0,0,0-0.1,0l0,0h0l0,0l0,0l0,0h0c0,0,0,0-0.1,0l0,0l0,0l0,0v0h0h0l0,0c0,0,0,0,0,0c0,0,0,0,0,0
			c0,0,0,0,0,0c0,0,0,0,0,0c0,0,0,0,0,0l0,0l0,0c0,0-0.1-0.1-0.1-0.1c0,0,0,0,0,0h0h0l0,0l0,0l0,0l0,0h0c0,0,0,0,0,0l0,0
			c0,0,0,0,0,0l0,0l0,0c0,0,0-0.1,0-0.1l0,0l0,0l0,0l0,0c0,0,0,0,0-0.1c0,0,0,0,0,0v0l0,0v0c0,0,0-0.1,0-0.1v0l0,0
			c0-0.1,0-0.2,0.1-0.3C59.1,13.8,59.2,13.7,59.4,13.6z M50.3,12.7c0-0.1,0-0.1,0-0.2s-0.1-0.1-0.2-0.1c0,0-1,0-1.7-0.7
			c-0.4-0.5-0.6-1.2-0.5-2.2C48.2,8.2,48.9,7.4,50,7c0.8-0.3,1.6-0.2,1.6-0.2c0,0,0.1,0,0.1,0c0,0,0.1-0.1,0.1-0.1
			c0-0.1,0-2.2,2.2-2.6h0c1.2-0.2,2.1,0.1,2.7,1c0.5,0.7,0.6,1.4,0.6,1.4c0,0.1,0,0.1,0.1,0.1c0,0,0.1,0,0.2,0c0,0,0.9-0.3,1.7,0
			c0.5,0.2,0.8,0.6,1,1.3c0.1,0.3,0.2,0.6,0.2,0.8c-0.1,0-0.1,0-0.2,0c0,0,0,0,0,0c-0.3,0-0.7,0-1,0c0-0.1,0-0.1-0.1-0.2
			c-0.2-0.6-0.5-0.9-1.2-1.2c0,0-0.1,0-0.2,0c0,0-0.1,0.1-0.1,0.1c-0.1,0.4,0.1,0.7,0.3,0.9c0.1,0.1,0.1,0.2,0.2,0.3
			c0.1,0.1,0.1,0.3,0.1,0.4c-0.2,0.1-0.4,0.2-0.5,0.4c0,0,0,0,0,0c-0.1,0.1-0.1,0.1-0.2,0.2l0,0c0,0-0.1,0.1-0.1,0.1c0,0,0,0,0,0
			c0,0,0,0.1-0.1,0.1c0,0,0,0,0,0.1c0,0,0,0.1,0,0.1c0,0,0,0,0,0.1c0,0,0,0.1,0,0.1c0,0,0,0.1,0,0.1c0,0,0,0.1,0,0.1c0,0,0,0,0,0.1
			c0,0,0,0,0,0.1c0,0,0,0,0,0.1c0,0,0,0.1,0,0.1c0,0,0,0,0,0.1c0,0,0,0.1,0,0.1c0,0,0,0,0,0c0,0,0,0,0,0c0,0,0,0.1,0,0.1
			c0,0,0,0,0,0.1c0,0,0,0.1,0,0.1c0,0,0,0,0,0c-0.5,0.7-1.1,1.1-1.9,1.2c-0.1,0-0.3,0.1-0.3,0.3c0,0.1,0,0.1,0,0.2c0,0,0,0,0,0
			c0,0-0.1,0.1-0.1,0.1c0,0-0.1,0.1-0.1,0.1c0,0-0.1,0.1-0.1,0.1c0,0-0.1,0.1-0.1,0.1c0,0,0,0-0.1,0.1c0,0-0.1,0.1-0.1,0.1
			c0,0,0,0,0,0c0,0.1-0.1,0.1-0.1,0.2c0,0,0,0,0,0h0c0,0,0,0-0.1,0c0,0,0,0,0,0c0,0-0.1,0-0.1,0h0c0,0,0,0-0.1,0h0c0,0,0,0,0,0
			c0,0-0.1-0.1-0.2-0.2c0,0,0-0.1-0.1-0.1c0,0,0,0,0,0c0,0,0,0-0.1-0.1c0,0,0,0,0,0c0,0,0,0-0.1-0.1c0,0,0,0,0,0c0,0,0,0-0.1-0.1
			c0,0,0,0,0,0c0,0,0-0.1-0.1-0.1c0,0,0,0,0,0c0,0-0.1-0.1-0.1-0.1c0,0,0,0,0,0c-0.1-0.1-0.2-0.1-0.3-0.2c0,0,0,0,0,0
			c0,0-0.1,0-0.1-0.1c0,0,0,0-0.1,0c0,0-0.1,0-0.1,0c0,0,0,0-0.1,0c0,0-0.1,0-0.1,0c0,0,0,0-0.1,0c0,0-0.1,0-0.1,0c0,0,0,0-0.1,0
			c-0.1,0-0.1,0-0.2,0c0,0,0,0-0.1,0c-0.1,0-0.1,0-0.2,0h0c-0.1,0-0.1,0-0.2,0c0,0-0.1,0-0.1,0c-0.1,0-0.2,0.1-0.3,0.1
			c-0.1,0-0.1,0.1-0.2,0.1c0,0,0,0-0.1,0c0,0-0.1,0.1-0.1,0.1c0,0-0.1,0-0.1,0.1c0,0-0.1,0.1-0.1,0.1c0,0-0.1,0-0.1,0.1
			c0,0-0.1,0.1-0.1,0.1c0,0,0,0-0.1,0.1c0,0-0.1,0.1-0.1,0.1c0,0,0,0-0.1,0.1c0,0-0.1,0.1-0.1,0.1c0,0,0,0.1-0.1,0.1
			c0,0-0.1,0.1-0.1,0.1c0,0,0,0.1,0,0.1c0,0,0,0,0,0c0,0,0,0,0,0c0,0,0,0,0,0c0,0,0,0-0.1,0C50.1,13,50.3,12.7,50.3,12.7z
			 M37.4,20.5c0.8-0.9,1.8-1.4,1.8-1.4c0,0,0.1-0.1,0.1-0.1c0,0,0-0.1,0-0.1c0,0-1.6-2.7,0.9-4.8c1.3-1.1,2.7-1.3,4-0.7
			c1.1,0.5,1.7,1.3,1.7,1.3c0,0,0.1,0.1,0.1,0.1s0.1,0,0.1-0.1c0.1-0.1,1.5-1.9,3.5-0.8c0.1,0.1,0.3,0.1,0.4,0.2
			c0.1,0.1,0.3,0.2,0.4,0.3c0.4,0.4,0.7,0.7,1,1.1c0.1,0.1,0.1,0.2,0.2,0.3l0,0c0,0.1,0.1,0.1,0.1,0.2l0,0c0,0,0,0.1,0.1,0.1l0,0
			c0,0,0,0.1,0,0.1l0,0l0,0c0,0,0,0.1,0,0.1l0,0c0,0,0,0.1,0,0.1l0,0l0,0l0,0c0,0,0,0.1,0,0.2c0,0,0,0.1,0,0.1l0,0
			c0,0.1,0,0.1,0,0.2v0v0c0,0,0,0,0,0.1l0,0v0l0,0v0c0,0,0,0.1,0,0.1c0,0,0,0,0,0.1c0,0,0,0,0,0l0,0v0l0,0v0v0c0,0,0,0.1,0,0.1
			c0,0,0,0.1,0,0.1c0,0,0,0,0,0.1c0,0,0,0,0,0c0,0,0,0.1,0,0.1l0,0c0,0,0,0,0,0.1c0,0,0,0,0,0c0,0,0,0,0,0.1c0,0,0,0,0,0
			c0,0,0,0,0,0l0,0v0c0,0,0,0.1,0,0.1l0,0.1c0,0,0,0.1,0,0.1l0,0l0,0c0,0,0,0.1,0,0.1l0,0v0l0,0l0,0h0c0,0,0,0,0,0.1l0,0l0,0l0,0
			l0,0l0,0l0,0l0,0l0,0l0,0h0l0,0c0,0,0,0,0,0.1l0,0v0l0,0l0,0c0,0,0,0,0,0.1l0,0l0,0l0,0l0,0c0,0,0,0,0,0.1c0,0,0,0,0,0
			c0,0-0.1,0.1-0.1,0.1c0,0,0,0,0,0c0,0,0,0.1-0.1,0.1l0,0c0,0,0,0,0,0c0,0,0,0,0,0l0,0c0,0,0,0,0,0c0,0,0,0,0,0c0,0,0,0,0,0
			c0,0,0,0,0,0c0,0,0,0,0,0c0,0,0,0,0,0c0,0,0,0,0,0c0,0,0,0,0,0v0l0,0v0c0,0.1,0.1,0.1,0.1,0.1c0,0,1.7,0.5,1.8,2.9
			c0,0.1,0,0.2,0,0.3c0,0.4,0,0.9-0.1,1.4c-0.2,1.3-1,2.2-2.2,2.7c-0.9,0.4-1.8,0.4-1.8,0.4C49.1,26.9,49,27,49,27
			c0,0,0,0.3-0.1,0.7c-0.1,0.4-0.2,1-0.5,1.6c-0.6,1.4-1.6,2-2.8,2c-0.1,0-0.2,0-0.3,0c0,0-0.1,0-0.1,0c-0.1,0-0.1,0-0.2,0
			c0,0-0.1,0-0.1,0c-0.1,0-0.1,0-0.2,0c0,0-0.1,0-0.1,0c-0.1,0-0.1,0-0.2,0c0,0-0.1,0-0.1,0c0,0-0.1,0-0.1,0c0,0-0.1,0-0.1-0.1
			c0,0-0.1,0-0.1-0.1c0,0-0.1,0-0.1-0.1c0,0-0.1,0-0.1-0.1c0,0-0.1,0-0.1-0.1c0,0-0.1,0-0.1-0.1c0,0,0,0,0-0.1c0,0,0,0,0-0.1
			c0-0.1,0-0.1,0-0.2l0,0c0-0.1,0-0.1,0-0.1c0,0,0,0,0,0c0-0.1,0-0.1,0-0.2l0,0l0,0c0,0,0,0,0,0l0,0c0-0.2-0.1-0.4-0.2-0.7
			c0,0,0,0,0,0c0,0,0,0,0,0c-0.1-0.4-0.3-0.9-0.6-1.3l0,0l0,0l0,0l0,0c0,0-0.1-0.1-0.1-0.1c-0.1-0.1-0.1-0.2-0.2-0.3l0,0l0,0
			c-0.1-0.1-0.1-0.2-0.2-0.3c0,0,0,0,0,0c-0.1-0.1-0.1-0.2-0.2-0.3l0,0c-0.5-0.6-1-1.1-1.6-1.4c-0.1-0.1-0.2-0.1-0.2-0.1
			c0,0-0.1,0-0.1,0c-0.1,0-0.1-0.1-0.2-0.1c0,0-0.1,0-0.1-0.1c0,0-0.1,0-0.1-0.1c0,0-0.1,0-0.1,0c0,0-0.1,0-0.1-0.1c0,0-0.1,0-0.1,0
			c0,0-0.1,0-0.1,0c0,0-0.1,0-0.1,0c0,0-0.1,0-0.1,0c0,0-0.1,0-0.1,0c0,0-0.1,0-0.1,0c0,0-0.1,0-0.1,0c0,0-0.1,0-0.1,0
			c0,0-0.1,0-0.1,0c0,0-0.1,0-0.1,0c0,0-0.1,0-0.1,0c0,0-0.1,0-0.1,0c0,0-0.1,0-0.1,0c0,0-0.1,0-0.1,0c0,0-0.1,0-0.1,0
			c0,0-0.1,0-0.1,0c0,0-0.1,0-0.1,0c0,0-0.1,0-0.1,0c0,0-0.1,0-0.1,0c0,0-0.1,0-0.1,0c0,0-0.1,0-0.1,0c0,0-0.1,0-0.1,0
			c0,0,0,0-0.1,0c0,0,0,0,0,0C36.1,23.1,36.3,21.7,37.4,20.5z M39.1,32.5c0-0.1-0.1-0.1-0.2-0.1c0,0,0,0,0,0c-0.1,0-0.1,0.1-0.1,0.1
			c0,0-0.3,1.1-1.2,1.5c-0.5,0.2-1,0.2-1.7-0.2c-0.6-0.3-1-0.7-1.1-1.2c-0.2-1,0.5-2,0.5-2c0-0.1,0-0.1,0-0.2c0-0.1-0.1-0.1-0.1-0.1
			c-0.1,0-2.8-0.2-2.7-2.7c0.1-1.3,1.9-2.5,4-2.7c0.3,0,0.7,0,1.2,0c0.7,0.1,1.5,0.3,2.3,0.8c0.4,0.2,0.7,0.5,1,0.8c0,0,0,0,0,0
			c0.1,0.1,0.1,0.1,0.2,0.2c0,0,0,0,0,0c0.1,0.1,0.1,0.1,0.1,0.2c0,0,0.1,0.1,0.1,0.1c0,0,0.1,0.1,0.1,0.1c0,0.1,0.1,0.1,0.1,0.2
			c0,0,0,0,0,0.1c0.1,0.1,0.1,0.2,0.2,0.2c0.1,0.1,0.1,0.2,0.2,0.3c0,0,0,0,0,0c0,0,0,0,0,0.1l0,0.1c0,0.1,0.1,0.2,0.1,0.2
			c0,0,0,0.1,0,0.1l0,0l0,0c0,0.1,0.1,0.2,0.1,0.2c0,0,0,0.1,0.1,0.2h0v0l0,0c0,0.1,0.1,0.2,0.1,0.2c0,0.1,0,0.1,0.1,0.2
			c0,0.1,0,0.1,0.1,0.2l0,0l0,0l0,0l0,0c0,0,0,0.1,0,0.1c0,0,0,0,0,0.1l0,0v0c0,0.1,0,0.2,0.1,0.2l0,0c0,0,0,0.1,0,0.1
			c0,0.1,0,0.2,0,0.2l0,0l0,0l0,0l0,0.1c0,0,0,0,0,0.1c0,0.1,0,0.2,0,0.4c0.1,1.3-0.3,2.3-1.1,2.7c-0.3,0.1-0.6,0.2-0.9,0.3
			C39.8,33.9,39.1,32.6,39.1,32.5z M102.2,45.3c-0.7,2.5-3.6,5.2-8.3,7.7c-3.6,1.9-7,3-7,3.1c-0.1,0-0.1,0.1-0.1,0.2
			c0,0,0.7,2.1-0.1,3.6c-0.3,0.6-0.9,1-1.6,1.2C82,62,81,59,81,58.9c0-0.1-0.1-0.1-0.2-0.1c-0.1,0-0.1,0.1-0.1,0.2
			c0,0,0.1,3.2-1.8,3.8c-0.8,0.2-1.4,0.2-2-0.2c-1.2-0.7-1.6-2.5-1.6-2.5c0-0.1-0.1-0.2-0.2-0.1h0c-0.1,0-0.2,0.1-0.1,0.2
			c0,0,0.3,1.9-0.6,3c-0.4,0.4-0.9,0.7-1.6,0.7c-2,0.1-2.9-3.2-2.9-3.2c0-0.1-0.1-0.1-0.2-0.1c0,0,0,0,0,0c-0.1,0-0.2,0.1-0.1,0.2
			c0,0,0.3,2.3-0.6,3.4c-0.3,0.4-0.7,0.6-1.2,0.6c-2.3,0.2-3.7-5-3.7-5.1c0-0.1-0.1-0.1-0.2-0.1c-0.1,0-12.1,0.4-16.3-3.5
			c-4.4-4.1-6.8-12.7-6.2-21.8l0,0c0,0,0,0,0,0c0.3,0,0.5-0.1,0.8-0.3c0.1,0,0.1-0.1,0.2-0.1c0,0,0,0,0.1,0c0,0,0.1,0,0.1-0.1
			c0,0,0,0,0.1,0c0,0,0.1,0,0.1-0.1c0,0,0,0,0.1-0.1c0,0,0.1,0,0.1-0.1c0,0,0,0,0.1-0.1c0,0,0-0.1,0.1-0.1c0,0,0,0,0-0.1
			c0,0,0-0.1,0.1-0.1c0,0,0,0,0-0.1c0,0,0-0.1,0.1-0.1c0,0,0,0,0-0.1c0,0,0-0.1,0-0.1c0,0,0-0.1,0-0.1c0,0,0-0.1,0-0.1
			c0,0,0-0.1,0-0.1c0,0,0-0.1,0-0.1c0,0,0,0,0-0.1c0-0.1,0-0.1,0-0.2c0,0,0,0,0-0.1c0-0.1,0-0.1,0-0.2c0,0,0,0,0,0
			c0-0.1,0-0.1,0-0.2c0,0,0-0.1,0-0.1c0-0.1,0-0.1,0-0.2c0,0,0-0.1,0-0.1c0,0,0-0.1,0-0.1c0.1,0,0.1,0.1,0.2,0.1c0,0,0,0,0,0
			c0.1,0,0.2,0.1,0.3,0.1c0,0,0.1,0,0.1,0c0.1,0,0.1,0,0.2,0.1c0,0,0.1,0,0.1,0c0.1,0,0.1,0,0.2,0.1c0,0,0.1,0,0.1,0
			c0.1,0,0.1,0,0.2,0c0,0,0.1,0,0.1,0c0.1,0,0.1,0,0.2,0c0,0,0.1,0,0.1,0c0.1,0,0.2,0,0.3,0c0.1,0,0.1,0,0.2,0c0,0,0,0,0.1,0
			c0.1,0,0.1,0,0.2,0c0,0,0,0,0.1,0c0.1,0,0.1,0,0.2,0h0l0,0c0.1,0,0.1,0,0.2,0c0,0,0,0,0.1,0c0,0,0.1,0,0.1,0c0,0,0,0,0.1,0
			c0,0,0.1,0,0.1,0c0,0,0,0,0.1,0c0,0,0.1,0,0.1-0.1c0,0,0,0,0.1,0c0,0,0.1-0.1,0.1-0.1c0,0,0,0,0.1,0c0.1-0.1,0.2-0.2,0.3-0.3
			c0,0,0,0,0,0c0,0,0.1-0.1,0.1-0.1c0,0,0,0,0.1-0.1c0,0,0.1-0.1,0.1-0.1c0,0,0,0,0.1-0.1c0,0,0.1-0.1,0.1-0.1c0,0,0,0,0.1-0.1
			c0,0,0.1-0.1,0.1-0.1c0,0,0,0,0-0.1c0-0.1,0.1-0.1,0.1-0.2l0,0c0-0.1,0.1-0.2,0.1-0.2c0,0,0,0,0,0c0,0,0.1,0,0.1,0.1
			c0.1,0,0.1,0.1,0.2,0.1C48.9,30,49,30,49,30c0.1,0,0.1,0.1,0.2,0.1c0.1,0,0.1,0.1,0.2,0.1c0.1,0,0.1,0.1,0.2,0.1
			c0.1,0,0.1,0.1,0.2,0.1c0.1,0,0.1,0.1,0.2,0.1c0.1,0,0.1,0.1,0.2,0.1c0.1,0,0.1,0,0.2,0.1c0.1,0,0.1,0.1,0.2,0.1
			c0.1,0,0.1,0,0.2,0.1c0.1,0,0.1,0,0.2,0.1c0,0,0.1,0,0.1,0c0.1,0,0.1,0,0.2,0.1c0,0,0,0,0.1,0c0.2,0.1,0.4,0.1,0.6,0.1
			c0,0,0,0,0,0c0.1,0,0.2,0,0.2,0c0,0,0.1,0,0.1,0c0.1,0,0.1,0,0.2,0c0,0,0.1,0,0.1,0c0.1,0,0.1,0,0.2,0c0,0,0.1,0,0.1,0
			c0.1,0,0.1,0,0.2,0c0,0,0.1,0,0.1,0c0.1,0,0.1,0,0.2,0c0.1,0,0.1,0,0.2,0c0.1,0,0.1,0,0.2,0c0,0,0.1,0,0.1,0c0,0,0.1,0,0.1,0
			c0,0,0.1,0,0.1,0c0.1,0,0.2,0,0.3-0.1c0.2,0,0.3-0.1,0.4-0.1c0,0,0.1,0,0.1,0c0.1,0,0.2-0.1,0.3-0.1c0,0,0.1,0,0.1,0
			c0.1,0,0.2-0.1,0.3-0.1c0,0,0,0,0.1,0c0.1-0.1,0.2-0.1,0.4-0.2l0,0c1.3-0.8,2.3-1.9,3-3.5c0.7-1.7,0.8-3.6,0.8-4.9c0,0,0,0,0,0.1
			c0,0,0,0.1,0,0.1c0,0,0,0.1,0,0.1c0,0,0,0.1,0,0.1c0,0,0,0.1,0.1,0.1c0,0,0,0.1,0,0.1c0,0,0,0.1,0.1,0.1c0,0,0,0.1,0,0.1
			c0,0,0,0.1,0.1,0.1c0,0,0,0.1,0.1,0.1c0,0.1,0.1,0.1,0.1,0.2c0,0,0,0.1,0.1,0.1c0,0.1,0.1,0.1,0.1,0.2c0,0,0,0.1,0.1,0.1
			c0,0.1,0.1,0.1,0.1,0.2c0,0,0,0,0,0.1c0.1,0.2,0.2,0.4,0.4,0.5c0,0,0,0,0,0c0.1,0.1,0.1,0.2,0.2,0.3c0,0,0,0,0.1,0.1
			c0.1,0.1,0.1,0.1,0.2,0.2c0,0,0,0.1,0.1,0.1c0,0.1,0.1,0.1,0.1,0.2c0,0,0.1,0.1,0.1,0.1c0,0.1,0.1,0.1,0.1,0.2
			c0,0,0.1,0.1,0.1,0.1c0,0.1,0.1,0.1,0.2,0.2c0,0,0.1,0.1,0.1,0.1c0.1,0,0.1,0.1,0.2,0.1c0,0,0.1,0.1,0.1,0.1
			c0.1,0,0.1,0.1,0.2,0.1c0,0,0.1,0.1,0.1,0.1c0.1,0,0.1,0.1,0.2,0.1c0,0,0.1,0.1,0.1,0.1c0.1,0,0.1,0.1,0.2,0.1
			c0,0,0.1,0.1,0.1,0.1c0.1,0,0.1,0.1,0.2,0.1c0.1,0,0.1,0.1,0.2,0.1c0.1,0,0.1,0.1,0.2,0.1c0.1,0,0.1,0.1,0.2,0.1
			c0.1,0,0.1,0.1,0.2,0.1c0.1,0,0.1,0.1,0.2,0.1c0.1,0,0.1,0.1,0.2,0.1c0.1,0,0.1,0,0.2,0.1c0.1,0,0.1,0,0.2,0.1
			c0.1,0,0.1,0,0.2,0.1c0.1,0,0.1,0,0.2,0.1c0.1,0,0.1,0,0.2,0c0.1,0,0.2,0,0.2,0c0.1,0,0.1,0,0.2,0c0.1,0,0.2,0,0.2,0
			c0.1,0,0.1,0,0.2,0c0.1,0,0.2,0,0.3,0c0.1,0,0.1,0,0.2,0c0.1,0,0.2,0,0.3,0c0.1,0,0.2,0,0.2,0c0.1,0,0.2,0,0.3,0
			c0.1,0,0.1,0,0.2,0c0.1,0,0.3,0,0.4,0c0.1,0,0.1,0,0.2,0c0.3,0,0.6-0.1,0.8-0.1c0.1,0,0.3-0.1,0.4-0.1c0,0,0.1,0,0.1,0
			c0.1,0,0.2,0,0.3-0.1c0.1,0,0.1,0,0.2-0.1c0.1,0,0.2-0.1,0.2-0.1c0.1,0,0.2,0,0.2-0.1c0.1,0,0.1-0.1,0.2-0.1
			c0.1,0,0.2-0.1,0.2-0.1c0.1,0,0.1-0.1,0.2-0.1c0.1,0,0.2-0.1,0.2-0.1c0.1,0,0.1-0.1,0.2-0.1c0.1,0,0.1-0.1,0.2-0.1
			c0.1,0,0.1-0.1,0.2-0.1c0.1,0,0.1-0.1,0.2-0.1c0.1,0,0.1-0.1,0.2-0.1c0.1,0,0.1-0.1,0.2-0.1c0.1,0,0.1-0.1,0.2-0.1
			c0.1-0.1,0.1-0.1,0.2-0.2c0.1,0,0.1-0.1,0.2-0.1c0.1-0.1,0.1-0.1,0.2-0.2c0,0,0.1-0.1,0.1-0.1c0.1-0.1,0.1-0.1,0.2-0.2
			c0,0,0.1-0.1,0.1-0.1c0.1-0.1,0.1-0.1,0.2-0.2c0,0,0.1-0.1,0.1-0.1c0.1-0.1,0.1-0.1,0.2-0.2c0,0,0.1-0.1,0.1-0.1
			c0.1-0.1,0.1-0.1,0.2-0.2c0-0.1,0.1-0.1,0.1-0.2c0-0.1,0.1-0.1,0.1-0.2c0,0,0.1-0.1,0.1-0.2c0-0.1,0.1-0.1,0.1-0.2
			c0-0.1,0.1-0.1,0.1-0.2c0-0.1,0.1-0.1,0.1-0.2c0-0.1,0.1-0.1,0.1-0.2c0-0.1,0.1-0.1,0.1-0.2c0-0.1,0.1-0.1,0.1-0.2
			c0-0.1,0.1-0.1,0.1-0.2c0-0.1,0.1-0.1,0.1-0.2c0-0.1,0.1-0.1,0.1-0.2c0-0.1,0.1-0.1,0.1-0.2c0-0.1,0.1-0.1,0.1-0.2
			c0-0.1,0.1-0.1,0.1-0.2c0-0.1,0.1-0.1,0.1-0.2c0-0.1,0-0.1,0.1-0.2c0-0.1,0.1-0.1,0.1-0.2c0-0.1,0-0.1,0.1-0.2
			c0-0.1,0-0.1,0.1-0.2c0-0.1,0-0.1,0.1-0.2c0-0.1,0-0.1,0.1-0.2c0-0.1,0-0.1,0.1-0.2c0-0.1,0-0.1,0.1-0.2c0-0.1,0-0.1,0.1-0.2
			c0-0.1,0-0.1,0-0.2c0-0.1,0-0.1,0-0.2c0,0,0-0.1,0-0.1c0-0.1,0-0.1,0-0.2c0,0,0-0.1,0-0.1c0-0.1,0-0.1,0-0.2c0,0,0-0.1,0-0.1
			c0-0.1,0-0.1,0-0.1c0,0,0-0.1,0-0.1c0-0.1,0-0.1,0-0.1c0,0,0,0,0-0.1c0,0,0,0,0,0c0.1,0,0.2-0.1,0.3-0.1c0,0,0.1,0,0.1,0
			c0,0,0.1,0,0.1,0c0,0,0,0,0,0c0,0,0,0.1,0.1,0.1c0,0,0.1,0.1,0.1,0.1c0,0,0,0.1,0.1,0.1c0,0,0.1,0.1,0.1,0.1c0,0,0,0.1,0.1,0.1
			c0,0.1,0.1,0.1,0.1,0.2c0,0,0.1,0.1,0.1,0.1c0,0.1,0.1,0.1,0.1,0.2c0,0,0.1,0.1,0.1,0.1c0,0.1,0.1,0.1,0.1,0.2
			c0,0,0.1,0.1,0.1,0.1c0,0.1,0.1,0.1,0.1,0.2c0,0.1,0.1,0.1,0.1,0.2c0,0.1,0.1,0.1,0.1,0.2c0,0.1,0.1,0.1,0.1,0.2
			c0,0.1,0.1,0.1,0.1,0.2c0,0.1,0.1,0.1,0.1,0.2c0,0.1,0.1,0.1,0.1,0.2c0,0.1,0.1,0.1,0.1,0.2c0,0.1,0.1,0.1,0.1,0.2
			c0,0.1,0.1,0.1,0.1,0.2c0.1,0.1,0.1,0.1,0.2,0.2c0,0.1,0.1,0.1,0.1,0.2c0.1,0.1,0.1,0.1,0.2,0.2c0,0,0.1,0.1,0.1,0.1
			c0.1,0.1,0.1,0.1,0.2,0.2c0,0,0.1,0.1,0.1,0.1c0.1,0.1,0.1,0.1,0.2,0.2c0,0,0.1,0.1,0.1,0.1c0.1,0.1,0.2,0.2,0.3,0.3
			c0.1,0.1,0.3,0.2,0.4,0.4c2.2,1.7,4.5,2.4,6.9,2c0.2,0,0.4-0.1,0.5-0.1c0,0,0,0,0.1,0c0.2,0,0.3-0.1,0.5-0.1c0,0,0.1,0,0.1,0
			c0.1,0,0.2-0.1,0.4-0.1c0.1,0,0.1,0,0.2-0.1c0.1,0,0.2-0.1,0.3-0.1c0.1,0,0.1-0.1,0.2-0.1c0.1,0,0.2-0.1,0.3-0.1
			c0.1,0,0.1-0.1,0.2-0.1c0.1,0,0.2-0.1,0.3-0.1c0.1,0,0.1-0.1,0.2-0.1c0.1-0.1,0.2-0.1,0.2-0.2c0.1,0,0.1-0.1,0.2-0.1
			c0.1-0.1,0.2-0.1,0.2-0.2c0.1,0,0.1-0.1,0.2-0.1c0.1-0.1,0.1-0.1,0.2-0.2c0.1,0,0.1-0.1,0.1-0.2c0.1-0.1,0.1-0.1,0.2-0.2
			c0-0.1,0.1-0.1,0.1-0.2c0.1-0.1,0.1-0.1,0.2-0.2c0-0.1,0.1-0.1,0.1-0.2c0.1-0.1,0.1-0.2,0.2-0.2c0-0.1,0.1-0.1,0.1-0.2
			c0.1-0.1,0.1-0.2,0.2-0.2c0-0.1,0.1-0.1,0.1-0.2c0-0.1,0.1-0.2,0.1-0.3c0-0.1,0.1-0.1,0.1-0.2c0-0.1,0.1-0.2,0.1-0.3
			c0-0.1,0.1-0.1,0.1-0.2c0-0.1,0.1-0.1,0.1-0.2h0c0.1,0,0.2,0,0.3,0c0,0,0,0,0,0c0.1,0,0.2,0,0.2,0c0,0,0,0,0,0
			c0.1,0,0.1,0,0.2-0.1c0,0,0,0,0,0c0.1,0,0.1,0,0.2-0.1c0,0,0,0,0,0c0.1,0,0.1,0,0.2-0.1c0,0,0,0,0,0c0.1,0,0.1-0.1,0.2-0.1
			c0,0,0,0,0,0c0,0,0.1-0.1,0.1-0.1c0,0,0,0,0,0c0,0,0.1-0.1,0.1-0.1c0,0,0,0.1,0,0.1c0,0,0,0,0,0c0,0,0,0.1,0,0.1c0,0,0,0,0,0
			c0,0,0,0.1,0,0.1c0,0,0,0,0,0.1c0,0,0,0.1,0,0.1c0,0,0,0,0,0.1c0,0,0,0.1,0,0.1c0,0,0,0,0,0.1c0,0,0,0.1,0,0.1c0,0,0,0,0,0.1
			c0,0,0,0.1,0.1,0.1c0,0,0,0,0,0.1c0,0,0,0.1,0.1,0.1c0,0,0,0,0.1,0.1c0,0,0,0.1,0.1,0.1c0,0,0,0,0.1,0.1c0,0,0,0.1,0.1,0.1
			c0,0,0,0,0.1,0.1c0,0,0.1,0.1,0.1,0.1c0,0,0,0,0.1,0.1c0,0,0.1,0.1,0.1,0.1c0,0,0.1,0,0.1,0.1c0,0,0.1,0,0.1,0.1
			c0,0,0.1,0,0.1,0.1c0,0,0.1,0,0.1,0.1c0,0,0.1,0,0.1,0.1c0,0,0.1,0,0.1,0.1c0,0,0.1,0,0.1,0c0,0,0.1,0,0.1,0
			C102.7,31,103.3,41.5,102.2,45.3z M104.7,15.4c0,0.9-0.3,1.7-1.1,2.2c-0.6,0.4-1.2,0.6-1.2,0.6c-0.1,0-0.1,0.1-0.1,0.2
			c0,0,0.5,3.1-1.6,3.5c-0.6,0.1-1.1,0.1-1.6-0.1c-1.4-0.5-1.8-2.2-1.8-2.2c0-0.1-0.1-0.1-0.1-0.1c0,0,0,0-0.1,0h0l0,0c0,0,0,0,0,0
			l0,0c0,0,0,0,0,0c0,0-0.7,0.6-1.5,0.6c-0.1,0-0.1,0-0.2,0h0c-0.4,0-0.9-0.3-1.3-0.7c-0.2-0.2-0.4-0.4-0.5-0.6
			c-0.4-0.6-0.6-1.1-0.6-1.7l0,0c0-0.5,0.1-1,0.3-1.4c0.4-0.8,1-1.3,1-1.3c0,0,0.1-0.1,0.1-0.1c0-0.1,0-0.1,0-0.1
			c0,0-0.1-0.1-0.3-0.4c-0.1-0.1-0.2-0.3-0.3-0.6c0-0.1-0.1-0.3-0.1-0.4c0-0.1,0-0.1,0-0.2c-0.1-0.6,0.1-1.3,0.6-1.8
			c0.1-0.1,0.1-0.2,0.2-0.3l0,0c0.5-0.5,1-0.8,1.6-0.9c0.3,0,0.6,0,0.9,0c0.7,0.2,1.2,0.5,1.3,0.6l0,0c0,0,0,0,0.1,0l0,0
			c0,0,0,0,0.1,0h0l0,0c0.1,0,0.1,0,0.1-0.1c0,0,0.4-0.8,1.2-1.1c0.1,0,0.1,0,0.2-0.1c0.4-0.1,0.9,0,1.4,0.3l0,0
			c0.8,0.4,1.4,1,1.5,1.6c0.2,0.7-0.1,1.3-0.1,1.3c0,0.1,0,0.1,0,0.2c0,0.1,0.1,0.1,0.1,0.1C102.8,12.5,104.5,12.7,104.7,15.4z"/>
		<path class="st0" d="M85.1,4.2c0.1,0.1,0.2,0.1,0.3,0.1c0.1,0,0.1,0,0.1-0.1c0.3-0.2,0.2-1-0.1-1.4c-0.2-0.4-0.6-0.5-0.9-0.3
			c-0.2,0.1-0.3,0.3-0.3,0.5C84.4,3.5,84.8,4.1,85.1,4.2z"/>
		<path class="st0" d="M84,5.1L84,5.1c0.1,0,0.2-0.1,0.2-0.2l0,0c0.1-0.4-0.5-1.1-0.9-1.3c-0.2-0.1-0.4,0-0.5,0.2
			C82.8,4,82.7,4.2,83,4.5C83.2,4.8,83.7,5.1,84,5.1z"/>
		<path class="st0" d="M87.2,1.5C87.2,1.5,87.2,1.5,87.2,1.5c0.3-0.1,0.5-0.5,0.5-0.9c0-0.4-0.2-0.6-0.5-0.6c-0.2,0-0.3,0.1-0.4,0.2
			c-0.2,0.3-0.1,0.8,0.1,1.1C87,1.5,87.1,1.5,87.2,1.5z"/>
		<path class="st0" d="M82.3,4.6C82.3,4.6,82.3,4.6,82.3,4.6c0.2,0,0.3-0.1,0.3-0.2c0.1-0.3-0.3-0.6-0.5-0.7c-0.3-0.2-0.5,0-0.6,0.1
			c-0.1,0.1-0.1,0.3,0,0.4C81.7,4.5,82.1,4.7,82.3,4.6z"/>
		<path class="st0" d="M91.4,10.4c0.4,0,0.6,0.1,0.8,0.2c0.1,0.1,0.2,0.2,0.3,0.4c0.1,0.1,0.1,0.2,0.2,0.3c0.1,0.1,0.2,0.2,0.4,0.1
			c0,0,0,0,0.1,0c0,0,0.1,0,0.1-0.1c0.1-0.1,0.1-0.2,0.1-0.3c0-0.2-0.1-0.4-0.2-0.6c-0.2-0.3-0.5-0.6-0.9-0.8
			c-0.3-0.1-0.6-0.2-0.9-0.2c-0.2,0-0.4,0.2-0.4,0.4C91,10.2,91.1,10.3,91.4,10.4z"/>
	</g>
	<path class="st0" d="M27.6,33.2c-4.1-7.1-13.1-9.5-20.2-5.4C0.3,31.9-2.1,40.9,2,48c4.1,7.1,13.1,9.5,20.2,5.4
		c2.5-1.4,4.4-3.5,5.7-5.8l6.5-1.7l-4.8-4.8C29.7,38.4,29.1,35.7,27.6,33.2z M13.4,32.1c1-0.2,2,0.5,2.2,1.5c0.2,1-0.5,2-1.5,2.2
		c-1,0.2-2-0.5-2.2-1.5C11.7,33.2,12.4,32.3,13.4,32.1z M19.4,47.1L19.4,47.1L19.4,47.1l-6.4,1.1l-0.5-2.7l1.4-0.2l-1-5.5L11.5,40
		L11,37.2l5-0.9l0.5,2.7l1,5.5l1.4-0.2L19.4,47.1z"/>
</g>
</svg>
