<?xml version="1.0" encoding="utf-8"?>
<!-- Generator: Adobe Illustrator 21.0.0, SVG Export Plug-In . SVG Version: 6.00 Build 0)  -->
<svg version="1.1" id="Layer_1" xmlns="http://www.w3.org/2000/svg" xmlns:xlink="http://www.w3.org/1999/xlink" x="0px" y="0px"
	 viewBox="0 0 30 30" xml:space="preserve">
<style type="text/css">
	.st0{fill:#FFFFFF;}
	.st1{opacity:0.75;fill:#FFFFFF;}
	.st2{opacity:0.35;}
	.st3{fill:#41479B;}
	.st4{fill:#F5F5F5;}
	.st5{fill:#E7343F;}
	.st6{fill:#DADADA;}
	.st7{fill:#73AF00;}
	.st8{fill:#F9F9FA;}
	.st9{fill:#FFD250;}
	.st10{fill:#00C3A0;}
	.st11{fill:#00AADC;}
	.st12{fill:#732D37;}
	.st13{fill:#AAD264;}
	.st14{fill:#874150;}
	.st15{fill:#783C46;}
	.st16{fill:#FFE15A;}
	.st17{fill:#FFB478;}
	.st18{fill:#9B4B5A;}
	.st19{fill:none;stroke:#FFE15A;stroke-width:6;stroke-linecap:round;stroke-linejoin:round;stroke-miterlimit:10;}
	.st20{fill:#FF4B55;}
	.st21{fill:#47113D;}
	.st22{fill:none;}
	.st23{fill:#666666;}
</style>
<g>
	<g>
		<rect class="st23" width="30" height="30"/>
	</g>
	<g>
		<g>
			<path class="st0" d="M4.2,16.8h21.7c0.9,0,1.7-0.8,1.7-1.8s-0.7-1.8-1.7-1.8H4.2c-0.9,0-1.7,0.8-1.7,1.8S3.2,16.8,4.2,16.8z"/>
		</g>
		<g>
			<path class="st0" d="M25.8,21.3H4.2c-0.9,0-1.7,0.8-1.7,1.8c0,1,0.7,1.8,1.7,1.8h21.7c0.9,0,1.7-0.8,1.7-1.8
				C27.5,22.1,26.8,21.3,25.8,21.3z"/>
		</g>
		<g>
			<path class="st0" d="M25.8,5H4.2C3.2,5,2.5,5.8,2.5,6.8s0.7,1.8,1.7,1.8h21.7c0.9,0,1.7-0.8,1.7-1.8S26.8,5,25.8,5z"/>
		</g>
	</g>
</g>
</svg>
