<?xml version="1.0" encoding="utf-8"?>
<!-- Generator: Adobe Illustrator 21.0.0, SVG Export Plug-In . SVG Version: 6.00 Build 0)  -->
<svg version="1.1" id="Layer_1" xmlns="http://www.w3.org/2000/svg" xmlns:xlink="http://www.w3.org/1999/xlink" x="0px" y="0px"
	 viewBox="0 0 205 33.6" xml:space="preserve">
<style type="text/css">
	.st0{fill:#FFFFFF;}
	.st1{opacity:0.75;fill:#FFFFFF;}
	.st2{opacity:0.35;}
	.st3{fill:#41479B;}
	.st4{fill:#F5F5F5;}
	.st5{fill:#E7343F;}
	.st6{fill:#DADADA;}
	.st7{fill:#73AF00;}
	.st8{fill:#F9F9FA;}
	.st9{fill:#FFD250;}
	.st10{fill:#00C3A0;}
	.st11{fill:#00AADC;}
	.st12{fill:#732D37;}
	.st13{fill:#AAD264;}
	.st14{fill:#874150;}
	.st15{fill:#783C46;}
	.st16{fill:#FFE15A;}
	.st17{fill:#FFB478;}
	.st18{fill:#9B4B5A;}
	.st19{fill:none;stroke:#FFE15A;stroke-width:6;stroke-linecap:round;stroke-linejoin:round;stroke-miterlimit:10;}
	.st20{fill:#FF4B55;}
	.st21{fill:#47113D;}
	.st22{fill:none;}
</style>
<g>
	<g>
		<path class="st21" d="M204.6,0l-54.3,5.2c-1,0.1-1.5,1.3-0.8,2l7.5,8.4l33.8-9.8l-31.9,12.3v8.6c-0.2,0.6,0.4,1.1,1,0.9l5.4-2.6
			l5.9,6.7c0.5,0.5,1.3,0.6,1.8,0.1l32-31.3C205.1,0.4,204.9,0,204.6,0z"/>
	</g>
	<g>
		<path class="st21" d="M33.3,33.6c0,0-0.1,0-0.1,0c-2.4-0.4-5-2.1-7-4.7c-0.3-0.4-0.2-1.1,0.2-1.4c0.4-0.3,1.1-0.2,1.4,0.2
			c1.3,1.7,3.4,3.6,5.7,4c0.5,0.1,0.9,0.6,0.8,1.1C34.2,33.2,33.8,33.6,33.3,33.6z M39.8,30c-0.2,0-0.4-0.1-0.5-0.2
			c-0.5-0.3-0.6-0.9-0.3-1.4c0.4-0.6,0.8-1.3,1.1-2c0.5-1,0.7-2,0.7-3c0-0.6,0-1.1-0.2-1.7c-0.1-0.5,0.2-1.1,0.7-1.2
			c0.5-0.1,1.1,0.2,1.2,0.7c0.2,0.7,0.2,1.4,0.2,2.1c0,1.3-0.3,2.6-0.9,3.8c-0.4,0.8-0.8,1.6-1.2,2.2C40.4,29.8,40.1,30,39.8,30z
			 M104.9,28.6c-0.5,0-0.9-0.4-1-0.9c0-0.5,0.4-1,0.9-1c2.6-0.2,5.1-0.7,7.3-1.7c0.5-0.2,1.1,0,1.3,0.5c0.2,0.5,0,1.1-0.5,1.3
			C110.5,27.8,107.8,28.4,104.9,28.6C104.9,28.6,104.9,28.6,104.9,28.6z M97,28.1c-0.1,0-0.1,0-0.2,0c-2.5-0.4-5.1-1.2-7.8-2.1
			c-0.5-0.2-0.8-0.7-0.6-1.3c0.2-0.5,0.7-0.8,1.3-0.6c2.5,0.9,5,1.6,7.4,2c0.5,0.1,0.9,0.6,0.8,1.1C97.9,27.8,97.5,28.1,97,28.1z
			 M82.2,22.8c-0.1,0-0.3,0-0.4-0.1c-2.4-1.2-4.7-2.6-6.9-4.1c-0.5-0.3-0.6-0.9-0.3-1.4c0.3-0.5,0.9-0.6,1.4-0.3
			c2.2,1.4,4.4,2.8,6.7,3.9c0.5,0.2,0.7,0.8,0.4,1.3C82.9,22.7,82.6,22.9,82.2,22.8z M25.7,21.8c-0.1,0-0.2,0-0.2,0
			c-0.5-0.1-0.8-0.7-0.7-1.2c0.6-2.3,1.8-4.8,3.4-7.4c0.3-0.5,0.9-0.6,1.4-0.3c0.5,0.3,0.6,0.9,0.3,1.4c-1.5,2.4-2.6,4.8-3.2,6.9
			C26.6,21.5,26.2,21.8,25.7,21.8z M119.1,22.5c-0.3,0-0.5-0.1-0.7-0.3c-0.4-0.4-0.4-1,0-1.4c0.7-0.6,1.3-1.3,1.9-2.1
			c1-1.3,1.8-2.6,2.2-4c0.2-0.5,0.7-0.8,1.2-0.7c0.5,0.2,0.8,0.7,0.7,1.2c-0.5,1.6-1.3,3.2-2.5,4.7c-0.7,0.8-1.3,1.6-2.1,2.3
			C119.6,22.5,119.3,22.6,119.1,22.5z M128.7,20.4c-1.2,0-2.5-0.1-3.7-0.1c-0.5,0-1-0.5-0.9-1c0-0.5,0.5-1,1-0.9
			c2.5,0.1,5.1,0.1,7.8,0.1c0.6,0,1,0.4,1,1c0,0.5-0.4,1-1,1C131.6,20.4,130.1,20.4,128.7,20.4z M140.9,20.1c-0.5,0-0.9-0.4-1-0.9
			c0-0.5,0.4-1,0.9-1c2.6-0.1,5.3-0.3,7.9-0.4c0.5,0,1,0.4,1,0.9c0,0.5-0.4,1-0.9,1C146.2,19.9,143.6,20,140.9,20.1
			C140.9,20.1,140.9,20.1,140.9,20.1z M117.3,19.5c-0.1,0-0.1,0-0.2,0c-3.3-0.6-5.9-1.4-7.8-2.6c-0.5-0.3-0.6-0.9-0.3-1.4
			c0.3-0.5,0.9-0.6,1.4-0.3c1.7,1,4.1,1.8,7.1,2.3c0.5,0.1,0.9,0.6,0.8,1.1C118.2,19.1,117.7,19.5,117.3,19.5z M37.5,15.9
			c-0.2,0-0.5-0.1-0.7-0.3c-1.7-1.6-3.8-3.1-6.2-4.4c-0.5-0.3-0.7-0.9-0.4-1.3c0.3-0.5,0.9-0.7,1.3-0.4c2.6,1.4,4.8,3,6.6,4.7
			c0.4,0.4,0.4,1,0,1.4C38,15.8,37.7,15.9,37.5,15.9z M69.1,14.1c-0.2,0-0.4-0.1-0.6-0.2c-2.3-1.9-4.3-3.5-6.2-4.8
			c-0.4-0.3-0.6-0.9-0.3-1.4c0.3-0.4,0.9-0.6,1.4-0.3c2,1.3,4,2.9,6.3,4.9c0.4,0.4,0.5,1,0.1,1.4C69.7,14,69.4,14.1,69.1,14.1z
			 M1,9.7c-0.3,0-0.6-0.1-0.8-0.4C-0.1,8.9,0,8.2,0.4,7.9c2-1.5,4.6-2.6,7.7-3.1c0.5-0.1,1,0.3,1.1,0.8c0.1,0.5-0.3,1-0.8,1.1
			c-2.7,0.4-5,1.3-6.8,2.7C1.4,9.6,1.2,9.7,1,9.7z M106.4,10.5c0,0-0.1,0-0.1,0c-0.5-0.1-0.9-0.6-0.8-1.1c0.3-1.9,1.2-4.1,2.7-6.5
			c0.3-0.4,0.6-0.8,0.9-1.1c0.4-0.4,1-0.4,1.4,0c0.4,0.4,0.4,1,0,1.4c-0.2,0.2-0.4,0.5-0.6,0.8c-1.4,2.2-2.2,4.1-2.4,5.7
			C107.4,10.1,106.9,10.5,106.4,10.5z M34,8.5c-0.3,0-0.5-0.1-0.7-0.3c-0.4-0.4-0.4-1,0-1.4C35,5.2,36.6,4,38.1,3.4
			c0.7-0.3,1.5-0.6,2.2-0.9c0.5-0.2,1.1,0.1,1.2,0.6c0.2,0.5-0.1,1.1-0.6,1.2c-0.7,0.2-1.4,0.5-2.1,0.8c-1.3,0.6-2.7,1.6-4.2,3.1
			C34.5,8.4,34.3,8.5,34,8.5z M23.8,8.3c-0.1,0-0.2,0-0.3,0C21,7.5,18.5,7,16,6.7c-0.5-0.1-0.9-0.5-0.9-1.1c0.1-0.5,0.6-0.9,1.1-0.9
			c2.6,0.3,5.2,0.9,7.9,1.7c0.5,0.2,0.8,0.7,0.6,1.2C24.6,8.1,24.2,8.3,23.8,8.3z M122.6,8.4c-0.4,0-0.7-0.2-0.9-0.5
			c-1.1-2.1-2.9-4-5.1-5c-0.5-0.2-0.7-0.8-0.4-1.3c0.2-0.5,0.8-0.7,1.3-0.4c2.5,1.2,4.7,3.4,5.9,5.9c0.2,0.5,0.1,1.1-0.4,1.3
			C122.9,8.4,122.7,8.4,122.6,8.4z M56,5.4c-0.1,0-0.2,0-0.4-0.1c-2.5-1.1-4.9-1.7-7.3-1.9c-0.5,0-0.9-0.5-0.9-1.1
			c0-0.5,0.5-1,1.1-0.9c2.6,0.2,5.2,0.9,7.9,2c0.5,0.2,0.7,0.8,0.5,1.3C56.8,5.2,56.4,5.4,56,5.4z"/>
	</g>
</g>
</svg>
