<?xml version="1.0" encoding="utf-8"?>
<!-- Generator: Adobe Illustrator 21.0.0, SVG Export Plug-In . SVG Version: 6.00 Build 0)  -->
<svg version="1.1" id="Layer_1" xmlns="http://www.w3.org/2000/svg" xmlns:xlink="http://www.w3.org/1999/xlink" x="0px" y="0px"
	 viewBox="0 0 42.3 32" xml:space="preserve">
<style type="text/css">
	.st0{fill:#FFFFFF;}
	.st1{opacity:0.75;fill:#FFFFFF;}
	.st2{opacity:0.35;}
	.st3{fill:#41479B;}
	.st4{fill:#F5F5F5;}
	.st5{fill:#E7343F;}
	.st6{fill:#DADADA;}
	.st7{fill:#73AF00;}
	.st8{fill:#F9F9FA;}
	.st9{fill:#FFD250;}
	.st10{fill:#00C3A0;}
	.st11{fill:#00AADC;}
	.st12{fill:#732D37;}
	.st13{fill:#AAD264;}
	.st14{fill:#874150;}
	.st15{fill:#783C46;}
	.st16{fill:#FFE15A;}
	.st17{fill:#FFB478;}
	.st18{fill:#9B4B5A;}
	.st19{fill:none;stroke:#FFE15A;stroke-width:6;stroke-linecap:round;stroke-linejoin:round;stroke-miterlimit:10;}
	.st20{fill:#FF4B55;}
	.st21{fill:#47113D;}
	.st22{fill:none;}
</style>
<g>
	<g>
		<path class="st0" d="M38.3,1.4c0-0.3-0.2-0.5-0.4-0.8c-0.1-0.1-0.3-0.3-0.4-0.3l-0.2-0.1c-0.1,0-0.2-0.1-0.3-0.1
			c-0.1,0-0.3,0-0.4,0l-0.2,0L1.3,6.2c-0.2,0-0.4,0.1-0.6,0.3C0.6,6.6,0.4,6.7,0.3,6.8L0.2,7C0.2,7.1,0.1,7.3,0.1,7.3l0,0.2
			c0,0.2,0,0.4,0,0.6l4,22.5l0.1,0.2c0.1,0.4,0.4,0.7,0.7,0.9l0.2,0.1c0.1,0,0.2,0.1,0.4,0.1c0.1,0,0.2,0,0.3,0c0.1,0,0.2,0,0.3,0
			L41,25.8c0.4-0.1,0.8-0.4,1.1-0.7l0.1-0.1c0-0.1,0.1-0.2,0.2-0.4c0-0.1,0-0.3,0-0.4l0-0.2L38.3,1.4z"/>
	</g>
	<g>
		<g>
			<g>
				<path class="st3" d="M40.8,24.8L5.7,31c-0.3,0.1-0.7-0.2-0.7-0.5L1,7.9C1,7.6,1.2,7.3,1.5,7.2L36.6,1c0.3-0.1,0.7,0.2,0.7,0.5
					l4,22.5C41.4,24.4,41.1,24.8,40.8,24.8z"/>
				<path class="st4" d="M37.3,1.5C37.3,1.2,36.9,1,36.6,1l-2.8,0.5l-10.3,9.6l-1.3-7.6l-6.3,1.1l1.3,7.6L4.3,6.7L1.5,7.2
					C1.2,7.3,1,7.6,1,7.9l0.3,1.6l11.1,4.8l-10,1.8l1.1,6.3l10-1.8l-8.8,8.3L5,30.5c0.1,0.3,0.4,0.6,0.7,0.5l2.8-0.5l10.3-9.6
					l1.3,7.6l6.3-1.1l-1.3-7.6L38,25.3l2.8-0.5c0.3-0.1,0.6-0.4,0.5-0.7L41,22.5l-11.1-4.8l10-1.8l-1.1-6.3l-10,1.8l8.8-8.3
					L37.3,1.5z"/>
				<g>
					<polygon class="st5" points="39,10.9 22.7,13.8 20.9,3.8 17.2,4.5 19,14.5 2.7,17.3 3.3,21.1 19.6,18.2 21.4,28.2 25.1,27.6 
						23.4,17.6 39.7,14.7 					"/>
					<path class="st5" d="M16.2,20.1L5,30.6c0.1,0.3,0.4,0.5,0.7,0.4l0.9-0.2l12-11.1L16.2,20.1L16.2,20.1z"/>
					<path class="st5" d="M28.1,18l-2.3,0.4l15,6.4c0.3-0.1,0.5-0.4,0.5-0.7l-0.1-0.5L28.1,18z"/>
					<path class="st5" d="M1.1,8.6l12.8,5.4l2.3-0.4L1.3,7.3C1.1,7.5,1,7.7,1,7.9L1.1,8.6z"/>
					<path class="st5" d="M26,11.9L37.3,1.4C37.2,1.2,36.9,1,36.6,1l-0.9,0.2l-12,11.1L26,11.9z"/>
				</g>
			</g>
		</g>
	</g>
</g>
</svg>
