<?xml version="1.0" encoding="utf-8"?>
<!-- Generator: Adobe Illustrator 21.0.0, SVG Export Plug-In . SVG Version: 6.00 Build 0)  -->
<svg version="1.1" id="Layer_1" xmlns="http://www.w3.org/2000/svg" xmlns:xlink="http://www.w3.org/1999/xlink" x="0px" y="0px"
	 viewBox="0 0 42.3 32" xml:space="preserve">
<style type="text/css">
	.st0{fill:#FFFFFF;}
	.st1{opacity:0.75;fill:#FFFFFF;}
	.st2{opacity:0.35;}
	.st3{fill:#41479B;}
	.st4{fill:#F5F5F5;}
	.st5{fill:#E7343F;}
	.st6{fill:#DADADA;}
	.st7{fill:#73AF00;}
	.st8{fill:#F9F9FA;}
	.st9{fill:#FFD250;}
	.st10{fill:#00C3A0;}
	.st11{fill:#00AADC;}
	.st12{fill:#732D37;}
	.st13{fill:#AAD264;}
	.st14{fill:#874150;}
	.st15{fill:#783C46;}
	.st16{fill:#FFE15A;}
	.st17{fill:#FFB478;}
	.st18{fill:#9B4B5A;}
	.st19{fill:none;stroke:#FFE15A;stroke-width:6;stroke-linecap:round;stroke-linejoin:round;stroke-miterlimit:10;}
	.st20{fill:#FF4B55;}
	.st21{fill:#47113D;}
	.st22{fill:none;}
</style>
<g>
	<g>
		<path class="st0" d="M4,30.6c0.1,0.4,0.3,0.8,0.7,1.1C4.9,31.9,5.3,32,5.6,32c0.1,0,0.2,0,0.3,0L41,25.8c0.9-0.2,1.5-1,1.3-1.9
			l-4-22.5c-0.1-0.4-0.3-0.8-0.7-1.1C37.3,0,36.8-0.1,36.4,0L1.4,6.2C0.5,6.4-0.1,7.2,0,8.1L4,30.6z"/>
	</g>
	<g>
		<g>
			<g>
				<path class="st7" d="M17.2,29L5.7,31c-0.3,0.1-0.7-0.2-0.7-0.5L1,7.9C1,7.6,1.2,7.3,1.5,7.2l11.5-2L17.2,29z"/>
				
					<rect x="15" y="3.9" transform="matrix(0.9848 -0.1736 0.1736 0.9848 -2.4568 3.9183)" class="st8" width="12.3" height="24.2"/>
				<path class="st5" d="M40.8,24.8l-11.5,2L25.1,3l11.5-2c0.3-0.1,0.7,0.2,0.7,0.5l4,22.5C41.4,24.4,41.1,24.7,40.8,24.8z"/>
				<polygon class="st9" points="22.3,16.4 21.4,17.1 21.5,17.6 22,17.5 				"/>
				<g>
					<path class="st10" d="M21.7,19c-0.1,0-0.3-0.1-0.3-0.2l-0.2-1.1c0-0.1,0.1-0.3,0.2-0.3c0.1,0,0.3,0.1,0.3,0.2l0.2,1.1
						C21.9,18.8,21.8,19,21.7,19z"/>
					<path class="st10" d="M21.5,17.9c-1.1,0.2-2.2,0-3.1-0.6c-0.1-0.1-0.2-0.3-0.1-0.4c0.1-0.1,0.3-0.2,0.4-0.1
						c0.8,0.5,1.8,0.7,2.7,0.6c0.9-0.2,1.8-0.7,2.3-1.5c0.1-0.1,0.3-0.1,0.4-0.1s0.1,0.3,0.1,0.4C23.5,17.1,22.6,17.7,21.5,17.9z"/>
				</g>
				<path class="st11" d="M21.7,19c-0.7,0.1-1.4,0-2-0.2l0.2-0.5c1.1,0.5,2.4,0.2,3.3-0.6l0.4,0.4C23,18.5,22.4,18.9,21.7,19z"/>
				<polygon class="st12" points="20.6,15.4 20.2,16.4 20.1,16.8 21.6,16.1 				"/>
				<path class="st13" d="M19.7,17.2c-0.7,0.1-1.7-0.3-2.1-1.6l0.5-0.2c0.4,1.1,1.1,1.3,1.5,1.3c0.1,0,0.2-0.1,0.2-0.2
					c0-0.1,0-0.1-0.3-0.2c-0.2,0-0.3-0.1-0.5-0.2c-0.6-0.5,0-1.2,0.2-1.5c0-0.1,0.1-0.1,0.1-0.1c0,0-0.1-0.1-0.3-0.1
					c-0.3,0.1-0.6-0.1-0.8-0.4c-0.1-0.3,0-0.7,0.2-0.9l0.3,0.4c-0.1,0-0.1,0.1,0,0.2c0,0,0,0.1,0.2,0.1c0.3-0.1,0.7,0.1,0.8,0.3
					c0.1,0.1,0.2,0.4-0.1,0.7c-0.3,0.4-0.5,0.7-0.3,0.8c0,0,0.2,0,0.2,0.1c0.3,0,0.7,0.1,0.8,0.7C20.4,16.8,20.1,17.1,19.7,17.2
					C19.7,17.2,19.7,17.2,19.7,17.2z"/>
				<path class="st14" d="M21.3,13.8c0,0,0.3-1.2-0.8-1.5c0,0,3.7-1.2,4,3.7l0,0c-0.4-0.2-1-0.6-1.3-1l-1.8-0.7L21.3,13.8L21.3,13.8
					z"/>
				<path class="st12" d="M21,14.9l3,1.1c0,0,0,0-1,0.7l-1.9-1.3L21,14.9z"/>
				<path class="st15" d="M19.6,13.5L19.6,13.5c0.3-0.1,0.6,0.1,0.6,0.4l0,0c-0.3,0.4-0.3,0.9,0,1.3l0.2,0.2
					c0.1,0.1,0.2,0.2,0.2,0.2l1.8,1.2l-0.1-0.7c-0.2-0.9-0.5-1.8-1.1-2.6l0,0c-0.4-0.5-1-0.7-1.6-0.6l-0.1,0L19.6,13.5L19.6,13.5
					L19.6,13.5z"/>
				<path class="st9" d="M19.5,13l-0.4,0.6l0.1,0.5c0,0,0.6-0.4,0.8-0.6c0.1-0.1,0.1-0.3,0-0.3C19.9,13.2,19.5,13,19.5,13z"/>
				<path class="st13" d="M21.9,20.1c-2.5,0.4-5-1.2-5.4-3.8l0.5-0.1c0.4,2.2,2.5,3.7,4.8,3.3c2.2-0.4,3.7-2.5,3.3-4.8l0.5-0.1
					C26.1,17.2,24.4,19.6,21.9,20.1z"/>
				<g>
					
						<ellipse transform="matrix(0.9847 -0.1744 0.1744 0.9847 -2.8373 3.2959)" class="st16" cx="17.3" cy="17.8" rx="0.4" ry="0.4"/>
					
						<ellipse transform="matrix(0.9849 -0.1732 0.1732 0.9849 -3.0033 3.4687)" class="st16" cx="18.4" cy="18.9" rx="0.4" ry="0.4"/>
					
						<ellipse transform="matrix(0.9849 -0.1732 0.1732 0.9849 -3.1105 3.7382)" class="st16" cx="19.9" cy="19.7" rx="0.4" ry="0.4"/>
					<ellipse transform="matrix(0.9849 -0.1732 0.1732 0.9849 -2.451 4.65)" class="st16" cx="25.4" cy="16.4" rx="0.4" ry="0.4"/>
					
						<ellipse transform="matrix(0.9849 -0.1732 0.1732 0.9849 -2.7087 4.5709)" class="st16" cx="24.8" cy="17.8" rx="0.4" ry="0.4"/>
					<ellipse transform="matrix(0.9849 -0.1732 0.1732 0.9849 -2.9356 4.3912)" class="st16" cx="23.7" cy="19" rx="0.4" ry="0.4"/>
				</g>
				<path class="st17" d="M22,19.2l-0.5,0.1c-0.3,0.1-0.6-0.1-0.6-0.4l0,0c-0.1-0.3,0.1-0.6,0.4-0.6l0.5-0.1
					c0.3-0.1,0.6,0.1,0.6,0.4l0,0C22.5,18.9,22.3,19.2,22,19.2z"/>
				<path class="st18" d="M23.2,15c0.3,0.5,0.7,0.9,1.3,1l0,0c-0.3-5-4-3.7-4-3.7C23.2,11.8,23.2,15,23.2,15z"/>
			</g>
		</g>
	</g>
</g>
</svg>
