<?xml version="1.0" encoding="utf-8"?>
<!-- Generator: Adobe Illustrator 21.0.0, SVG Export Plug-In . SVG Version: 6.00 Build 0)  -->
<svg version="1.1" id="Layer_1" xmlns="http://www.w3.org/2000/svg" xmlns:xlink="http://www.w3.org/1999/xlink" x="0px" y="0px"
	 viewBox="0 0 42.3 32" xml:space="preserve">
<style type="text/css">
	.st0{fill:#FFFFFF;}
	.st1{opacity:0.75;fill:#FFFFFF;}
	.st2{opacity:0.35;}
	.st3{fill:#41479B;}
	.st4{fill:#F5F5F5;}
	.st5{fill:#E7343F;}
	.st6{fill:#DADADA;}
	.st7{fill:#73AF00;}
	.st8{fill:#F9F9FA;}
	.st9{fill:#FFD250;}
	.st10{fill:#00C3A0;}
	.st11{fill:#00AADC;}
	.st12{fill:#732D37;}
	.st13{fill:#AAD264;}
	.st14{fill:#874150;}
	.st15{fill:#783C46;}
	.st16{fill:#FFE15A;}
	.st17{fill:#FFB478;}
	.st18{fill:#9B4B5A;}
	.st19{fill:none;stroke:#FFE15A;stroke-width:6;stroke-linecap:round;stroke-linejoin:round;stroke-miterlimit:10;}
	.st20{fill:#FF4B55;}
	.st21{fill:#47113D;}
	.st22{fill:none;}
</style>
<g>
	<path class="st0" d="M4,30.6c0.1,0.4,0.3,0.8,0.7,1.1C4.9,31.9,5.3,32,5.6,32c0.1,0,0.2,0,0.3,0L41,25.8c0.9-0.2,1.5-1,1.3-1.9
		l-4-22.5c-0.1-0.4-0.3-0.8-0.7-1.1C37.3,0,36.8-0.1,36.4,0L1.4,6.2C0.5,6.4-0.1,7.2,0,8.1L4,30.6z"/>
	<g>
		<g>
			<g>
				<path class="st5" d="M40.8,24.8l-22.5,4L14.1,5l22.5-4c0.3-0.1,0.7,0.2,0.7,0.5l4,22.5C41.4,24.4,41.1,24.7,40.8,24.8z"/>
			</g>
			<g>
				<path class="st7" d="M14.1,5L1.5,7.2C1.2,7.3,1,7.6,1,7.9l4,22.5c0.1,0.3,0.4,0.6,0.7,0.5l12.5-2.2L14.1,5L14.1,5z"/>
			</g>
			<g>
				<g>
					<path class="st16" d="M16.2,22.4c-2.6,0-5-1.9-5.4-4.6c-0.5-3,1.5-5.9,4.5-6.4l0.1,0.4l-0.1-0.4c1.5-0.3,2.9,0.1,4.1,0.9
						c1.2,0.8,2,2.1,2.3,3.6c0.5,3-1.5,5.9-4.5,6.4C16.8,22.4,16.5,22.4,16.2,22.4z M15.4,12.3c-2.5,0.4-4.2,2.9-3.8,5.4
						c0.4,2.5,2.9,4.2,5.4,3.8c2.5-0.4,4.2-2.9,3.8-5.4c-0.2-1.2-0.9-2.3-1.9-3C17.8,12.3,16.6,12.1,15.4,12.3L15.4,12.3z"/>
				</g>
				<g>
					<g>
						<path class="st16" d="M11.9,15.7c-0.1,0-0.2-0.1-0.2-0.2c0-0.1,0.1-0.2,0.2-0.3l7.8-1.4c0.1,0,0.2,0.1,0.2,0.2
							c0,0.1-0.1,0.2-0.2,0.2L11.9,15.7C11.9,15.7,11.9,15.7,11.9,15.7z"/>
					</g>
					<g>
						<path class="st16" d="M14,21.6c-0.1,0-0.2-0.1-0.2-0.2c0-0.1,0.1-0.2,0.2-0.2l5.8-1c0.1,0,0.2,0.1,0.3,0.2
							c0,0.1-0.1,0.2-0.2,0.3L14,21.6C14,21.6,14,21.6,14,21.6z"/>
					</g>
				</g>
				<g>
					<g>
						<path class="st16" d="M11.9,15.8c-0.1,0-0.3-0.1-0.3-0.2c-0.1-0.2,0-0.4,0.2-0.5l6.4-3c0.2-0.1,0.4,0,0.5,0.2s0,0.4-0.2,0.5
							l-6.4,3C12,15.8,11.9,15.8,11.9,15.8z"/>
					</g>
					<g>
						<path class="st16" d="M11.4,18.9c-0.1,0-0.3-0.1-0.3-0.2c-0.1-0.2,0-0.4,0.1-0.5l8.3-4.5c0.2-0.1,0.4,0,0.5,0.1
							c0.1,0.2,0,0.4-0.1,0.5l-8.3,4.5C11.5,18.9,11.4,18.9,11.4,18.9z"/>
					</g>
					<g>
						<path class="st16" d="M13.8,21.7c-0.1,0-0.3-0.1-0.4-0.2c-0.1-0.2-0.1-0.5,0.1-0.6l7.4-4.4c0.2-0.1,0.5-0.1,0.6,0.1
							c0.1,0.2,0.1,0.5-0.1,0.6L14,21.6C14,21.7,13.9,21.7,13.8,21.7z"/>
					</g>
				</g>
				<g>
					<g>
						<path class="st16" d="M19.7,14.4C19.7,14.4,19.7,14.4,19.7,14.4l-7.1-0.6c-0.2,0-0.3-0.2-0.3-0.4c0-0.2,0.2-0.3,0.4-0.3
							l7.1,0.6c0.2,0,0.3,0.2,0.3,0.4C20,14.3,19.9,14.4,19.7,14.4z"/>
					</g>
					<g>
						<path class="st16" d="M21.2,17.2C21.2,17.2,21.2,17.2,21.2,17.2l-9.4-1.4c-0.2,0-0.3-0.2-0.3-0.4c0-0.2,0.2-0.3,0.4-0.3
							l9.4,1.4c0.2,0,0.3,0.2,0.3,0.4C21.5,17,21.4,17.2,21.2,17.2z"/>
					</g>
					<g>
						<path class="st16" d="M19.9,20.6C19.9,20.6,19.8,20.6,19.9,20.6L11.3,19c-0.2,0-0.4-0.3-0.3-0.5c0-0.2,0.3-0.4,0.5-0.3
							l8.5,1.6c0.2,0,0.4,0.3,0.3,0.5C20.3,20.5,20.1,20.6,19.9,20.6z"/>
					</g>
				</g>
				<g>
					<g>
						<path class="st16" d="M12.6,13.6c-0.1,0-0.2-0.1-0.2-0.2c0-0.1,0.1-0.2,0.2-0.2l5.8-1c0.1,0,0.2,0.1,0.3,0.2
							c0,0.1-0.1,0.2-0.2,0.2L12.6,13.6C12.6,13.6,12.6,13.6,12.6,13.6z"/>
					</g>
				</g>
			</g>
			<g>
				<path class="st20" d="M17.7,14.7l0.4,2.5c0.2,1-0.5,2-1.5,2.2c-1,0.2-2-0.5-2.2-1.5L14,15.3L17.7,14.7 M18.1,13.3l-5,0.9
					c-0.3,0.1-0.6,0.4-0.5,0.7l0.6,3.1c0.3,1.7,2,2.9,3.7,2.6c1.7-0.3,2.9-2,2.6-3.7l-0.6-3.1C18.8,13.5,18.5,13.3,18.1,13.3
					L18.1,13.3z"/>
			</g>
			<g>
				<path class="st8" d="M17.7,14.7l0.4,2.5c0.2,1-0.5,2-1.5,2.2c-1,0.2-2-0.5-2.2-1.5L14,15.3L17.7,14.7"/>
			</g>
			<g>
				<g>
					
						<ellipse transform="matrix(0.9848 -0.1735 0.1735 0.9848 -2.3715 2.5171)" class="st16" cx="13.2" cy="14.8" rx="0.3" ry="0.3"/>
				</g>
				<g>
					
						<ellipse transform="matrix(0.9848 -0.1735 0.1735 0.9848 -2.1424 3.3734)" class="st16" cx="18.2" cy="13.9" rx="0.3" ry="0.3"/>
				</g>
				<g>
					
						<ellipse transform="matrix(0.9848 -0.1735 0.1735 0.9848 -2.7994 2.6317)" class="st16" cx="13.7" cy="17.3" rx="0.3" ry="0.3"/>
				</g>
				<g>
					
						<ellipse transform="matrix(0.9848 -0.1735 0.1735 0.9848 -2.5704 3.488)" class="st16" cx="18.7" cy="16.4" rx="0.3" ry="0.3"/>
				</g>
				<g>
					
						<ellipse transform="matrix(0.9848 -0.1735 0.1735 0.9848 -2.257 2.9454)" class="st16" cx="15.7" cy="14.4" rx="0.3" ry="0.3"/>
				</g>
				<g>
					
						<ellipse transform="matrix(0.9846 -0.1749 0.1749 0.9846 -3.0154 3.5175)" class="st16" cx="18.4" cy="18.9" rx="0.3" ry="0.3"/>
				</g>
				<g>
					
						<ellipse transform="matrix(0.9848 -0.1735 0.1735 0.9848 -3.1637 2.8505)" class="st16" cx="14.7" cy="19.5" rx="0.3" ry="0.3"/>
				</g>
			</g>
			<g>
				<g>
					<path class="st3" d="M16.5,16.7l0.1,0.5c0,0.2-0.1,0.4-0.3,0.5c-0.2,0-0.4-0.1-0.5-0.3l-0.1-0.5L16.5,16.7"/>
				</g>
				<g>
					<path class="st3" d="M16.3,15.4l0.1,0.5c0,0.2-0.1,0.4-0.3,0.5c-0.2,0-0.4-0.1-0.5-0.3l-0.1-0.5L16.3,15.4"/>
				</g>
				<g>
					<path class="st3" d="M16.8,17.9l0.1,0.5c0,0.2-0.1,0.4-0.3,0.5c-0.2,0-0.4-0.1-0.5-0.3L16,18.1L16.8,17.9"/>
				</g>
				<g>
					<path class="st3" d="M17.6,16.5l0.1,0.5c0,0.2-0.1,0.4-0.3,0.5c-0.2,0-0.4-0.1-0.5-0.3l-0.1-0.5L17.6,16.5"/>
				</g>
				<g>
					<path class="st3" d="M15.4,16.8l0.1,0.5c0,0.2-0.1,0.4-0.3,0.5c-0.2,0-0.4-0.1-0.5-0.3L14.6,17L15.4,16.8"/>
				</g>
			</g>
		</g>
	</g>
</g>
</svg>
