<?xml version="1.0" encoding="utf-8"?>
<!-- Generator: Adobe Illustrator 21.0.0, SVG Export Plug-In . SVG Version: 6.00 Build 0)  -->
<svg version="1.1" id="Layer_1" xmlns="http://www.w3.org/2000/svg" xmlns:xlink="http://www.w3.org/1999/xlink" x="0px" y="0px"
	 viewBox="0 0 675 135" xml:space="preserve">
<style type="text/css">
	.st0{fill:#FFFFFF;}
	.st1{opacity:0.75;fill:#FFFFFF;}
	.st2{opacity:0.35;}
	.st3{fill:#41479B;}
	.st4{fill:#F5F5F5;}
	.st5{fill:#E7343F;}
	.st6{fill:#DADADA;}
	.st7{fill:#73AF00;}
	.st8{fill:#F9F9FA;}
	.st9{fill:#FFD250;}
	.st10{fill:#00C3A0;}
	.st11{fill:#00AADC;}
	.st12{fill:#732D37;}
	.st13{fill:#AAD264;}
	.st14{fill:#874150;}
	.st15{fill:#783C46;}
	.st16{fill:#FFE15A;}
	.st17{fill:#FFB478;}
	.st18{fill:#9B4B5A;}
	.st19{fill:none;stroke:#FFE15A;stroke-width:6;stroke-linecap:round;stroke-linejoin:round;stroke-miterlimit:10;}
	.st20{fill:#FF4B55;}
	.st21{fill:#47113D;}
	.st22{fill:none;}
</style>
<g>
	<g>
		<g>
			<path class="st0" d="M44.7,52c-4.9,10.5-16.3,16.8-27.5,16.8C5.2,68.7,0,61.4,0,53c0-9.4,6.6-20.6,17.3-23.1
				c-4-2.8-5.7-6.7-5.7-10.7C11.6,10,20.1,0,32.1,0c7.4,0,13.4,3.8,13.4,11.2c0,5.4-3.2,9.3-6.9,9.3c-1.6,0-3.1-0.7-4.4-2.4
				c2.3-0.7,4.1-4.7,4.1-7.8c0-3.7-2.6-5-5.2-5c-5.5,0-9.6,6.3-9.6,12.6c0,5.2,2.7,10.3,9.5,12c-10,2.1-16.8,13.1-16.8,21.3
				c0,5,2.5,9,8.9,9c5.7,0,14-3.2,17.3-9.1L44.7,52z"/>
			<path class="st0" d="M85.8,51.1c-4.9,5.4-10,8.7-14.3,11.2c-3.9,3.9-9.9,5.4-14.7,5.4c-9.6,0-13.7-6-13.7-11.4
				c0-4.1,2.4-7.1,5-8.3c5.2-8.8,8.6-17.7,11.5-26.4l13.9-1.8c1.1,23.1,2.1,26.6,2.1,32.5c0,1.2-0.1,2.3-0.4,3.4
				c2.5-1.4,5-3,6.7-4.5H85.8z M50.6,55.5c-0.9,0-2.1-0.3-2.5-1.2c0,4.2,1.6,6.2,5.7,6.2c4.1,0,8.2-2.1,8.2-8.3
				c0-4.6-0.8-7.4-1.8-21.2C58.3,37,55.7,42.3,52.6,48c1.2,0.5,2.2,1.6,2.2,3.1C54.7,53.3,53,55.5,50.6,55.5z"/>
			<path class="st0" d="M108.7,8.4l-3.2,14.1h5.6l-0.8,3.6h-5.6l-6,26.8c-0.3,1.2-0.4,2.1-0.4,2.9c0,2.5,1.2,3.3,3.8,3.3
				c3.7,0,7-3.4,8.4-7.9h3.9c-5.3,14.6-14.6,16.5-19.7,16.5c-5.6,0-10-3.2-10-10.7c0-1.7,0.3-3.7,0.8-5.8l5.6-25.1h-3.1l0.8-3.6H92
				l2.8-12.3L108.7,8.4z"/>
			<path class="st0" d="M133.8,60.2c7.4,0,11.9-3.9,16.6-9h3.2c-5.3,8.2-13.3,16.5-25.8,16.5c-8.8,0-14.6-4.1-14.6-14.2
				c0-10.3,6.1-31.8,25.3-31.8c8.3,0,10.3,4.1,10.3,8.6c0,10.3-10.3,18.2-21.6,18.8c-0.1,1.2-0.2,2.5-0.2,3.6
				C127.1,58.7,129.3,60.2,133.8,60.2z M139.3,26.4c-4.8,0-9.4,9.6-11.2,18.4c7.2-0.4,13.6-7.3,13.6-14.7
				C141.6,27.9,141,26.4,139.3,26.4z"/>
			<path class="st0" d="M185.5,13.6c0.1-0.9,0.2-1.6,0.2-2.4c0-2.1-1.7-3-3.6-3c-2.1,0-5.2,1.3-6.6,7.3l-1.6,7.1h6.8l-0.7,3.6h-6.9
				l-10.8,48.2c-2.8,12.8-10.6,15.2-16.8,15.2c-5.7,0-11.1-3.8-11.1-9.6c0-8.2,7.2-10.8,16.1-13.4l11.3-51
				C164.9,2.7,173,0.3,179.2,0.3c5.7,0,11.1,3.8,11.1,9.6c0,1.4-0.1,2.6-0.3,3.7H185.5z M143.6,81.5c2,0,4.1-1.7,5.3-7l1.2-5.2
				c-5.9,1.9-10.3,4.4-10.3,9.2C139.8,79.8,141.5,81.5,143.6,81.5z"/>
			<path class="st0" d="M227.9,22.5l-6.7,30.3c-0.3,1.2-0.4,2.1-0.4,2.9c0,2.5,1.2,3.8,3.8,3.8c3.7,0,6.2-3.9,7.6-8.4h3.9
				c-5.3,14.6-13.8,16.5-18.8,16.5c-5.2,0-8.6-2.9-9.2-8.2c-2.9,4.1-7.3,8.2-14,8.2c-6.4,0-12.5-3.7-12.5-14.4
				c0-12.1,7.8-31.2,24.1-31.2c5.3,0,7.6,2,7.6,4.6v0.6l1-4.7H227.9z M195.6,52c0,6.9,3,7,4.7,7c2.7,0,6.7-2.7,7.8-7.9l4.5-20.2
				c0-1.1-0.8-3.4-3.8-3.4C200.7,27.6,195.6,43.7,195.6,52z"/>
			<path class="st0" d="M259.6,30.3c-3.4,0-5.9,3.7-7.3,8.2l-6.4,28.7h-13.5l9.9-44.6h13.5l-1,4.6c3.9-4.3,8.1-5,11-5
				c6,0,10.4,2.9,10.4,10.1c0,7.2-4.5,18-4.5,23c0,2.2,0.9,3.8,3.7,3.8c4.1,0,5.8-3.2,7.9-7.9h3.9c-5.2,14.6-12.5,16.5-17.4,16.5
				c-8.2,0-11.1-5-11.1-10.1c0-6.1,4.2-17,4.2-22.8C263,31.9,261.8,30.3,259.6,30.3z"/>
			<path class="st0" d="M306.9,22.5l-6.7,30.3c-0.3,1.2-0.4,2.1-0.4,2.9c0,2.5,1.2,3.3,3.8,3.3c3.7,0,7-3.4,8.4-7.9h3.9
				c-5.3,14.6-14.6,16.5-19.7,16.5c-5.6,0-10-3.2-10-10.7c0-1.7,0.3-3.7,0.8-5.8l6.4-28.7H306.9z M302.7,3.5c4.1,0,7.5,3.2,7.5,7.1
				c0,3.9-3.4,7.1-7.5,7.1c-4.1,0-7.4-3.1-7.4-7.1C295.3,6.7,298.6,3.5,302.7,3.5z"/>
			<path class="st0" d="M360.8,22.5L354,52.8c-0.3,1.2-0.4,2.1-0.4,2.9c0,2.5,1.2,3.3,3.8,3.3c0.8,0,1.4-0.1,2.1-0.4
				c-2.5,6.2-4.3,9-9.4,9c-5.1,0-8.4-3.1-9.2-8.3c-2.8,4.1-7.3,8.3-14,8.3c-6.4,0-12.5-3.7-12.5-14.4c0-12.1,7.8-31.2,24.1-31.2
				c5.3,0,7.6,2,7.6,4.6v0.6l1-4.7H360.8z M328.5,52c0,6.9,3,7,4.7,7c2.7,0,6.7-2.7,7.8-7.9l4.5-20.2c0-1.1-0.8-3.4-3.8-3.4
				C333.6,27.6,328.5,43.7,328.5,52z"/>
			<path class="st1" d="M440.4,35.5c0,4.3-5.6,9.6-12.2,10.7c-6.1,21-17.2,21.5-25.1,21.5c-11.1,0-16.7-7.6-16.7-15.5
				c0-7.4,4.8-15,14.6-16.9c-5.5-2.8-8-7.3-8-11.6c0-7,6.4-13.9,17.9-13.9c7.5,0,14.8,2.8,14.8,10.3c0,4.1-1.5,7.1-5.6,7.1
				c-1.3,0-3.1-0.3-4.6-2c2-0.5,3.5-4.4,3.5-6.3c0-1.2-0.2-5.7-5.3-5.7c-5.9,0-9.8,4.3-9.8,9.4c0,4.4,3.1,9.4,10.6,12.6
				c-10.2,4-14,10.1-14,15.4c0,5.6,4.3,10.2,9.4,10.2c5.6,0,12.1-3.2,14.6-14.4c-2-0.2-3.9-0.5-5.7-0.5c-3.5,0-6,1.1-7.6,3.5
				l-0.6-0.1c1.6-6.3,7.2-10.8,15.5-10.8c2.3,0,4.1,0.4,6.1,0.4c3,0,6.3-1,7.6-3.3H440.4z"/>
			<path class="st0" d="M492.7,27h13.8l6-26.6H526l-14.9,66.8h-13.5l7.5-33.6h-13.8l-7.5,33.6h-13.5l13.6-60.7
				c-8.2,3.3-13.1,10.1-13.1,19.5c0,4.6,1.2,5.3,1.3,6.1c-6.5,0-10-2.2-10-8.7c0-11.9,17.2-23.2,32.9-23.2c1.3,0,2.5,0.1,3.7,0.2
				L492.7,27z"/>
			<path class="st0" d="M570,22.5l-6.7,30.3c-0.3,1.2-0.4,2.1-0.4,2.9c0,2.5,1.2,3.3,3.8,3.3c3.7,0,6.2-3.4,7.6-7.9h3.9
				c-5.3,14.6-13.8,16.5-18.8,16.5c-5.3,0-8.7-2.9-9.3-8.5c-4.7,7.3-9.9,8.5-13.9,8.5c-5.6,0-10-3.2-10-10.7c0-1.7,0.3-3.7,0.8-5.8
				l6.4-28.7h13.5l-6.7,30.3c-0.2,0.9-0.3,1.7-0.3,2.5c0,2.1,0.8,3.7,2.8,3.7c3.7,0,6.1-3.4,7.5-7.9l6.4-28.7H570z"/>
			<path class="st0" d="M623.1,22.5l-9.3,41.4c5.7-2,9.2-5,11.8-12.8h3.9c-3.7,11.8-10.8,15.2-16.6,16.7l-1.4,6.4
				c-2.8,12.8-10.7,15.2-16.9,15.2c-5.7,0-10.5-2.9-10.5-8.7c0-7.5,8.2-11.2,15.3-13.3l1.1-4.7c-2.7,2.8-6.4,4.9-11.2,4.9
				c-6.4,0-12.5-3.7-12.5-14.4c0-12.1,7.8-31.2,24.1-31.2c5.3,0,7.6,2,7.6,4.6v0.5l1-4.6H623.1z M592.5,82.5c2,0,4.2-2.7,5.4-7.9
				l0.6-2.6c-4.8,1.7-9.2,4-9.2,7.6C589.4,80.8,590.5,82.5,592.5,82.5z M590.8,52c0,6.9,3,7,4.7,7c2.5,0,6.2-2.4,7.5-7l4.8-21.2
				c-0.1-1-0.8-3.3-3.8-3.3C595.9,27.6,590.8,43.7,590.8,52z"/>
			<path class="st0" d="M665.4,33.7c3.3-0.6,5.6-4.5,6.7-6.2h3c-1.9,3.8-4.7,9.4-9.6,12c-1.1,17.1-10.5,27.9-22.3,27.9
				c-8.7,0-15-3.9-15-14.1c0-10.3,6.1-31.7,25.4-31.7C660.9,21.7,664.8,25.8,665.4,33.7z M657.4,40.9c-1.5-0.5-2.2-1.8-2.2-4
				c0-2.4,1-3.9,2.6-4.6c-0.2-3.8-1.2-5.1-3.6-5.1c-6.7,0-12.2,16.3-12.2,25.1c0,5.9,1.2,7.2,4.8,7.2
				C651.4,59.4,656,51.4,657.4,40.9z"/>
		</g>
	</g>
	<g>
		<path class="st0" d="M145.6,122.7c2.5,0,3.1-0.8,4.8-2.3c0,0.5,0,1,0,1.5c0,3.3-0.7,5.1-4.2,5.1c-3.9,0-5.2-1.2-8.8-1.2
			c-0.8,0-2.1,0.7-2.8,0.9c-0.1-0.4-0.1-0.7-0.1-1.1c0-7.4,11.7-10.7,11.7-19.7c0-1.7-1.1-2.8-2.2-2.8c-2.4,0-2.9,1-2.9,2.7
			c0,0.8,0.4,2,1.3,2.3c-0.9,0.8-1.8,1.1-2.7,1.1c-1.5,0-2.6-1.1-2.6-3c0-2.3,2-5,7.3-5c4.9,0,6.7,2.2,6.7,5.4
			c0,7.5-9.7,10.9-12.6,15.4h0.2C140.9,122.1,142.9,122.7,145.6,122.7z"/>
		<path class="st0" d="M164.3,113.9c0,1.7-2.1,3.1-4.8,3.1c-3.5,0-5-3.2-5-5.9c0-5.6,4-9.9,9.2-9.9c5.5,0,6.9,3.7,6.9,7.9
			c0,10.2-4.5,17.6-12,17.6c-2.7,0-4.2-1.7-4.2-3.2c0-1.3,0.5-2.5,3.1-2.5c-0.4,0.3-0.5,0.7-0.5,1.1c0,0.9,0.8,1.9,1.9,1.9
			c1,0,6.3-0.1,7.3-14c0-0.6,0.1-1.2,0.1-1.8c0-4.2-1.2-4.9-3.1-4.9c-2.3,0-4.5,3.8-4.5,7.3c0,1.4,0.4,3.5,2,3.5c1.3,0,2.3-0.4,3-2
			C164.1,112.8,164.3,113.4,164.3,113.9z"/>
		<path class="st0" d="M177.7,101l-0.9,3.8h1.5l-0.2,1h-1.5L175,113c-0.1,0.3-0.1,0.6-0.1,0.8c0,0.7,0.3,0.9,1,0.9
			c1,0,1.9-0.9,2.3-2.1h1.1c-1.4,3.9-4,4.5-5.3,4.5c-1.5,0-2.7-0.9-2.7-2.9c0-0.5,0.1-1,0.2-1.6l1.5-6.8h-0.8l0.2-1h0.8l0.8-3.3
			L177.7,101z"/>
		<path class="st0" d="M185.1,106.9c-0.8,0-1.5,0.8-1.9,1.9l-1.8,8h-3.6l3.7-16.4l3.8-0.5l-1.4,6.1c1.1-1.1,2.2-1.3,3-1.3
			c1.6,0,2.8,0.8,2.8,2.7c0,2-1.2,4.9-1.2,6.2c0,0.6,0.3,1,1,1c0.4,0,0.7,0,0.8-0.1c-0.2,1.7-1.4,2.5-2.8,2.5c-2,0-2.6-1.4-2.6-2.7
			c0-1.6,1.1-4.6,1.1-6.2C186,107.4,185.7,106.9,185.1,106.9z"/>
		<path class="st0" d="M213,126.5l2.7-12.3c-1.8-0.8-3.2-1.1-4.8-1.2c-2.7,5.5-4.6,11.9-4.6,15.5c0,1.1,0.3,1.6,0.5,1.9
			c-1.9,0-4.8-0.1-4.8-3.6c0-3,2.1-8.6,5.2-13.8c-2.2,0.1-3.7,0.6-4.2,1.8c0.2,0,0.5,0.6,0.5,1c0,0.8-0.9,1.3-2,1.3
			c-1.2,0-2.2-0.6-2.2-2c0-2.3,3.1-4.2,7.2-4.2c0.5,0,1.1,0,1.8,0.1c3.6-5.4,8.2-10,12.4-10c0.8,0,2,0.1,2.8,0.5l-5.6,24.9H213z
			 M218.1,103.6c-2.1,1.1-4.4,4.2-6.4,8c1.4,0.3,2.9,0.6,4.3,1.2L218.1,103.6z"/>
		<path class="st0" d="M231.3,108.4l-0.6,2.5c1-0.8,2.4-1.5,4.2-1.5c2.4,0,4.3,1.3,4.3,5.3c0,4.6-1.8,11.9-8.7,11.9
			c-1.8,0-2.6-0.6-3-1.2l-1.8,8.2l-5.4,1.2l5.9-26.6H231.3z M234.4,114.7c0-2.6-1.1-2.8-1.8-2.8c-0.8,0-1.8,0.6-2.4,1.7l-2.1,9.5
			c0.1,0.4,0.5,0.8,1.3,0.8C233.1,123.8,234.4,117.9,234.4,114.7z"/>
		<path class="st0" d="M248.4,109.6l-0.5,2.1c1.2-1,2.6-2.1,4.3-2.1c1.6,0,2.4,1.3,2.4,2.5c0,1.2-0.8,2.5-2.6,2.5
			c-2,0-1-2.2-2.1-2.2c-1.1,0-1.7,0.5-2.6,1.3l-2.8,12.8h-5.1l3.8-16.9H248.4z"/>
		<path class="st0" d="M262.4,109.6l-2.6,11.5c-0.1,0.4-0.1,0.8-0.1,1.1c0,0.9,0.5,1.3,1.5,1.3c1.4,0,2.7-1.3,3.2-3h1.5
			c-2,5.5-5.5,6.3-7.5,6.3c-2.1,0-3.8-1.2-3.8-4.1c0-0.6,0.1-1.4,0.3-2.2l2.4-10.9H262.4z M260.8,102.4c1.6,0,2.8,1.2,2.8,2.7
			c0,1.5-1.3,2.7-2.8,2.7c-1.6,0-2.8-1.2-2.8-2.7C258,103.7,259.3,102.4,260.8,102.4z"/>
		<path class="st0" d="M270,121.1c-0.1,0.3-0.1,0.7-0.1,1c0,0.8,0.4,1.4,1.5,1.4c0.6,0,0.9-0.1,1.1-0.2c-0.2,2.4-2,3.6-3.9,3.6
			c-2.1,0-3.8-1.3-3.8-4.1c0-0.6,0.1-1.4,0.3-2.2l3.8-16.9l5.3-0.7L270,121.1z"/>
		<path class="st0" d="M292.3,122.7c2.5,0,3.1-0.8,4.8-2.3c0,0.5,0,1,0,1.5c0,3.3-0.7,5.1-4.2,5.1c-3.9,0-5.2-1.2-8.8-1.2
			c-0.8,0-2.1,0.7-2.8,0.9c-0.1-0.4-0.1-0.7-0.1-1.1c0-7.4,11.7-10.7,11.7-19.7c0-1.7-1.1-2.8-2.2-2.8c-2.4,0-2.9,1-2.9,2.7
			c0,0.8,0.4,2,1.3,2.3c-0.9,0.8-1.8,1.1-2.7,1.1c-1.5,0-2.6-1.1-2.6-3c0-2.3,2-5,7.3-5c4.9,0,6.7,2.2,6.7,5.4
			c0,7.5-9.7,10.9-12.6,15.4h0.2C287.6,122.1,289.6,122.7,292.3,122.7z"/>
		<path class="st0" d="M319.4,110c0,6.7-4,16.8-11.3,16.8c-6.1,0-7.3-3.3-7.3-8.9c0-9.2,4.7-16.8,12.3-16.8
			C317.5,101.2,319.4,104.3,319.4,110z M306.2,118.9c0,2.5,0.4,5.1,2.1,5.1c4,0,6.5-8.3,6.5-16.2c0-2.8-0.2-4.9-1.9-4.9
			c-2.1,0-5.9,5-6.5,12.6C306.3,116.5,306.2,117.7,306.2,118.9z"/>
		<path class="st0" d="M325.7,126.5h-5.1l4.7-21.1h-3.4l0.4-1.6c2,0,4.7-0.2,9-2.6L325.7,126.5z"/>
		<path class="st0" d="M340.7,117.6c-0.8,1.7-1.1,3.1-1.1,4.4c0,1.4,0.5,2.3,1.7,3.3c-0.4,1.1-1.8,1.3-3.3,1.3
			c-2.1,0-3.7-0.8-3.7-4.2c0-5.5,5.2-11.4,11.2-18c-1-0.1-2.1-0.2-3-0.2c-3.1,0-5.8,0.7-7.3,2.4c-0.2-0.7-0.3-1.4-0.3-2
			c0-2.2,1.3-3.4,4.8-3.4h11.6C349.5,103.8,341.7,115.4,340.7,117.6z"/>
		<path class="st0" d="M366.6,119h-7.1l0.6-2.7h7.1L366.6,119z"/>
		<path class="st0" d="M397.9,126.5l2.3-15.2l-6.7,15.2h-4.9l0.7-15.2l-5.9,15.2h-2.8l9-23.2c-3.5,1.1-5.6,3.8-5.6,7.6
			c0,1.8,0.5,2,0.5,2.3c-2.3,0-3.8-0.8-3.8-3.1c0-4.3,5.9-9,11.3-9c0.9,0,1.8,0.2,2.7,0.5l-0.8,17.8l7.8-17.8h5.1l-3.7,24.9H397.9z"
			/>
		<path class="st0" d="M426.5,109.6l1.4,7.3c2.1-2.2,3.4-4.2,3.4-5.4c0-0.1,0-0.3,0-0.4c-0.2,0-0.4,0.1-0.6,0.1
			c-1.2,0-1.6-0.9-1.6-1.8c0-1.2,0.9-1.7,1.9-1.7c1.7,0,2.5,1.3,2.5,2.9c0,2.2-1.5,4.5-5.1,8.1l0.3,1.7c0.2,1.3,0.5,3,2.1,3
			c1.4,0,2.7-1.3,3.2-3h1.5c-2,5.5-5.4,6.3-7.2,6.3c-2.3,0-3.4-1.3-4.3-4.7c-2.8,2.8-7.2,4.7-11.2,4.7c-3.4,0-6.3-1.4-6.3-5.5
			c0-3.7,2.3-11.9,9.6-11.9c3.2,0,3.9,1.6,3.9,3.2c0,3.9-3.9,6.9-8.2,7.1c0,0.3,0,0.6,0,0.9c0,2.5,1.6,3.3,3.5,3.3
			c2.5,0,6-1.3,8.3-3.9l-2-10.5H426.5z M416.2,111.1c-1.8,0-3.6,3.8-4.3,7c2.8-0.1,5.2-2.7,5.2-5.6
			C417.1,111.7,416.9,111.1,416.2,111.1z"/>
		<path class="st0" d="M442.1,109.6l-2.6,11.5c-0.1,0.4-0.1,0.8-0.1,1.1c0,0.9,0.5,1.3,1.5,1.3c1.4,0,2.7-1.3,3.2-3h1.5
			c-2,5.5-5.5,6.3-7.5,6.3c-2.1,0-3.8-1.2-3.8-4.1c0-0.6,0.1-1.4,0.3-2.2l2.4-10.9H442.1z M440.5,102.4c1.6,0,2.8,1.2,2.8,2.7
			c0,1.5-1.3,2.7-2.8,2.7c-1.6,0-2.8-1.2-2.8-2.7C437.7,103.7,438.9,102.4,440.5,102.4z"/>
		<path class="st0" d="M455.1,112.5c0-0.8-0.3-1.4-1-1.4c-2.2,0-4.5,6.2-4.5,9.9c0,2.3,0.9,2.8,2.6,2.8c2.8,0,4.5-1.5,6.3-3.4h1.2
			c-2,3.1-5,6.3-9.8,6.3c-3.3,0-5.5-1.6-5.5-5.4c0-3.9,2.3-12,9.5-12c3.2,0,3.9,1.6,3.9,3.1c0,1.7-0.9,2.5-1.9,2.5
			c-0.4,0-0.8-0.1-1.2-0.4C454.9,113.8,455.1,113.1,455.1,112.5z"/>
		<path class="st0" d="M472.7,113.9c1.2-0.2,2.1-1.7,2.5-2.3h1.1c-0.7,1.5-1.8,3.6-3.7,4.5c-0.4,6.5-4,10.6-8.4,10.6
			c-3.3,0-5.7-1.5-5.7-5.3c0-3.9,2.3-12,9.6-12C471,109.3,472.5,110.9,472.7,113.9z M469.7,116.6c-0.6-0.2-0.9-0.7-0.9-1.5
			c0-0.9,0.4-1.5,1-1.8c-0.1-1.4-0.5-1.9-1.3-1.9c-2.5,0-4.6,6.2-4.6,9.5c0,2.2,0.5,2.7,1.8,2.7
			C467.4,123.6,469.2,120.6,469.7,116.6z"/>
		<path class="st0" d="M504.1,120.8c-1.9,4.5-6.9,6.3-10.1,6.3c-5.3,0-7.8-2.2-7.8-8.3c0-6.1,3.1-17.6,12.4-17.6
			c3.3,0,5.9,1.3,5.9,4.5c0,1.8-0.7,3.1-2.5,3.1c-0.6,0-1.3-0.1-2-0.9c0.9-0.4,1.6-1.8,1.6-3.1c0-1.1-0.6-2.1-2.2-2.1
			c-3.9,0-7.4,8.9-7.4,15.8c0,3.1,0.9,5.3,4.3,5.3c2.8,0,5.3-1.3,6.9-3.4L504.1,120.8z"/>
		<path class="st0" d="M511.4,109.6l-2.6,11.5c-0.1,0.4-0.1,0.8-0.1,1.1c0,0.9,0.5,1.3,1.5,1.3c1.4,0,2.7-1.3,3.2-3h1.5
			c-2,5.5-5.5,6.3-7.5,6.3c-2.1,0-3.8-1.2-3.8-4.1c0-0.6,0.1-1.4,0.3-2.2l2.4-10.9H511.4z M509.8,102.4c1.6,0,2.8,1.2,2.8,2.7
			c0,1.5-1.3,2.7-2.8,2.7c-1.6,0-2.8-1.2-2.8-2.7C507,103.7,508.2,102.4,509.8,102.4z"/>
		<path class="st0" d="M522.8,104.3l-1.2,5.3h2.1l-0.3,1.4h-2.1l-2.3,10.1c-0.1,0.4-0.1,0.8-0.1,1.1c0,0.9,0.5,1.3,1.5,1.3
			c1.4,0,2.7-1.3,3.2-3h1.5c-2,5.5-5.5,6.3-7.5,6.3c-2.1,0-3.8-1.2-3.8-4.1c0-0.6,0.1-1.4,0.3-2.2l2.1-9.5H515l0.3-1.4h1.2l1.1-4.7
			L522.8,104.3z"/>
		<path class="st0" d="M531.7,109.6l-2.6,11.5c-0.1,0.3-0.1,0.6-0.1,0.8c0,0.8,0.2,1.5,1.1,1.5c1.4,0,2.3-1.3,2.8-3l2.4-10.9h5.1
			l-4.3,19.6c-1.1,4.8-4.1,5.7-6.5,5.7c-2.2,0-4.2-1.5-4.2-3.7c0-3.1,2.8-4.1,6.1-5.1l0.4-1.5c-1.5,1.7-3.1,2-4.3,2
			c-2.1,0-3.8-1.2-3.8-4.1c0-0.6,0.1-1.4,0.3-2.2l2.4-10.9H531.7z M528.9,132c0.7,0,1.6-0.6,2.1-2.6l0.4-2c-2.2,0.7-3.9,1.7-3.9,3.5
			C527.5,131.3,528.2,132,528.9,132z"/>
	</g>
</g>
</svg>
