<?xml version="1.0" encoding="utf-8"?>
<!-- Generator: Adobe Illustrator 21.0.0, SVG Export Plug-In . SVG Version: 6.00 Build 0)  -->
<svg version="1.1" id="Layer_1" xmlns="http://www.w3.org/2000/svg" xmlns:xlink="http://www.w3.org/1999/xlink" x="0px" y="0px"
	 viewBox="0 0 675 135" xml:space="preserve">
<style type="text/css">
	.st0{fill:#FFFFFF;}
	.st1{opacity:0.75;fill:#FFFFFF;}
	.st2{opacity:0.35;}
	.st3{fill:#41479B;}
	.st4{fill:#F5F5F5;}
	.st5{fill:#E7343F;}
	.st6{fill:#DADADA;}
	.st7{fill:#73AF00;}
	.st8{fill:#F9F9FA;}
	.st9{fill:#FFD250;}
	.st10{fill:#00C3A0;}
	.st11{fill:#00AADC;}
	.st12{fill:#732D37;}
	.st13{fill:#AAD264;}
	.st14{fill:#874150;}
	.st15{fill:#783C46;}
	.st16{fill:#FFE15A;}
	.st17{fill:#FFB478;}
	.st18{fill:#9B4B5A;}
	.st19{fill:none;stroke:#FFE15A;stroke-width:6;stroke-linecap:round;stroke-linejoin:round;stroke-miterlimit:10;}
	.st20{fill:#FF4B55;}
	.st21{fill:#47113D;}
	.st22{fill:none;}
</style>
<g>
	<g>
		<path class="st0" d="M111.1,127c2.5,0,3.1-0.9,4.8-2.4c0,0.6,0,1.1,0,1.5c0,3.4-0.7,5.3-4.2,5.3c-3.9,0-5.2-1.3-8.8-1.3
			c-0.8,0-2.1,0.7-2.8,1c-0.1-0.4-0.1-0.8-0.1-1.2c0-7.7,11.7-11.1,11.7-20.4c0-1.7-1.1-2.9-2.2-2.9c-2.4,0-2.9,1.1-2.9,2.8
			c0,0.8,0.4,2.1,1.3,2.4c-0.9,0.8-1.8,1.2-2.7,1.2c-1.5,0-2.6-1.1-2.6-3.2c0-2.4,2-5.2,7.3-5.2c4.9,0,6.7,2.2,6.7,5.6
			c0,7.8-9.7,11.3-12.6,16h0.2C106.4,126.4,108.4,127,111.1,127z"/>
		<path class="st0" d="M129.8,117.9c0,1.8-2.1,3.2-4.8,3.2c-3.5,0-5-3.3-5-6.1c0-5.8,4-10.3,9.2-10.3c5.5,0,6.8,3.8,6.8,8.2
			c0,10.5-4.5,18.2-12,18.2c-2.7,0-4.2-1.7-4.2-3.3c0-1.4,0.5-2.6,3.1-2.6c-0.4,0.4-0.5,0.8-0.5,1.2c0,1,0.8,2,1.9,2
			c1,0,6.3-0.1,7.3-14.5c0-0.7,0.1-1.3,0.1-1.8c0-4.3-1.2-5.1-3.1-5.1c-2.3,0-4.5,4-4.5,7.6c0,1.5,0.4,3.6,2,3.6
			c1.3,0,2.3-0.5,3-2.1C129.6,116.7,129.8,117.3,129.8,117.9z"/>
		<path class="st0" d="M159.2,131l2.7-12.7c-1.8-0.8-3.2-1.1-4.8-1.3c-2.7,5.7-4.6,12.4-4.6,16c0,1.1,0.3,1.6,0.5,2
			c-1.9,0-4.8-0.1-4.8-3.7c0-3.2,2.1-8.9,5.2-14.3c-2.2,0.1-3.7,0.6-4.2,1.8c0.2,0,0.5,0.6,0.5,1.1c0,0.8-0.9,1.4-2,1.4
			c-1.2,0-2.2-0.7-2.2-2c0-2.4,3.1-4.3,7.2-4.3c0.5,0,1.1,0,1.8,0.1c3.6-5.6,8.2-10.3,12.4-10.3c0.8,0,2,0.1,2.8,0.5l-5.6,25.8
			H159.2z M164.3,107.2c-2.1,1.1-4.4,4.4-6.4,8.3c1.4,0.3,2.9,0.7,4.3,1.2L164.3,107.2z"/>
		<path class="st0" d="M173.6,107.2l5.3-0.7l-1.7,7.9c1.5-0.9,2.2-1,2.9-1c2.5,0,4.2,1.5,4.2,6c0,4.1-2.2,11.8-9.7,11.8
			c-3.3,0-5-1.7-5-4.5c0-0.6,0.1-1.3,0.2-2L173.6,107.2z M178.7,115.9c-0.5,0-1.7,0.2-2.1,0.6l-2,8.9c-0.1,0.3-0.1,0.6-0.1,0.8
			c0,1,0.6,1.6,1.9,1.6c2.3,0,4.2-4.9,4.2-8.6C180.6,117.5,180,115.9,178.7,115.9z"/>
		<path class="st0" d="M193.8,113.5l-0.5,2.2c1.2-1.1,2.6-2.2,4.3-2.2c1.6,0,2.4,1.3,2.4,2.6c0,1.2-0.8,2.6-2.6,2.6
			c-2,0-1-2.3-2.1-2.3c-1.1,0-1.7,0.5-2.6,1.3L190,131h-5.1l3.8-17.5H193.8z"/>
		<path class="st0" d="M207.8,113.5l-2.6,11.9c-0.1,0.5-0.1,0.8-0.1,1.1c0,1,0.5,1.3,1.5,1.3c1.4,0,2.7-1.3,3.2-3.1h1.5
			c-2,5.7-5.5,6.5-7.5,6.5c-2.1,0-3.8-1.3-3.8-4.2c0-0.7,0.1-1.4,0.3-2.3l2.4-11.3H207.8z M206.2,106c1.6,0,2.8,1.3,2.8,2.8
			c0,1.5-1.3,2.8-2.8,2.8c-1.6,0-2.8-1.2-2.8-2.8C203.4,107.3,204.7,106,206.2,106z"/>
		<path class="st0" d="M215.4,125.3c-0.1,0.4-0.1,0.7-0.1,1c0,0.8,0.4,1.4,1.5,1.4c0.6,0,0.9-0.1,1.1-0.2c-0.2,2.5-2,3.7-3.9,3.7
			c-2.1,0-3.8-1.3-3.8-4.3c0-0.7,0.1-1.4,0.3-2.3l3.8-17.6l5.3-0.7L215.4,125.3z"/>
		<path class="st0" d="M237.7,127c2.5,0,3.1-0.9,4.8-2.4c0,0.6,0,1.1,0,1.5c0,3.4-0.7,5.3-4.2,5.3c-3.9,0-5.2-1.3-8.8-1.3
			c-0.8,0-2.1,0.7-2.8,1c-0.1-0.4-0.1-0.8-0.1-1.2c0-7.7,11.7-11.1,11.7-20.4c0-1.7-1.1-2.9-2.2-2.9c-2.4,0-2.9,1.1-2.9,2.8
			c0,0.8,0.4,2.1,1.3,2.4c-0.9,0.8-1.8,1.2-2.7,1.2c-1.5,0-2.6-1.1-2.6-3.2c0-2.4,2-5.2,7.3-5.2c4.9,0,6.7,2.2,6.7,5.6
			c0,7.8-9.7,11.3-12.6,16h0.2C233,126.4,235,127,237.7,127z"/>
		<path class="st0" d="M264.8,113.9c0,7-4,17.5-11.3,17.5c-6.1,0-7.3-3.4-7.3-9.2c0-9.6,4.7-17.4,12.3-17.4
			C262.9,104.7,264.8,108,264.8,113.9z M251.6,123.1c0,2.6,0.4,5.3,2.1,5.3c4,0,6.5-8.6,6.5-16.8c0-2.9-0.2-5.1-1.9-5.1
			c-2.1,0-5.9,5.2-6.5,13.1C251.7,120.6,251.6,121.8,251.6,123.1z"/>
		<path class="st0" d="M271,131h-5.1l4.7-21.9h-3.4l0.4-1.6c2,0,4.7-0.2,9-2.7L271,131z"/>
		<path class="st0" d="M286.1,121.7c-0.8,1.8-1.1,3.3-1.1,4.5c0,1.4,0.5,2.3,1.7,3.4c-0.4,1.1-1.8,1.4-3.3,1.4
			c-2.1,0-3.7-0.8-3.7-4.4c0-5.7,5.2-11.8,11.2-18.6c-1-0.1-2.1-0.2-3-0.2c-3.1,0-5.7,0.7-7.3,2.5c-0.2-0.7-0.3-1.4-0.3-2
			c0-2.3,1.3-3.5,4.8-3.5h11.6C294.9,107.4,287.1,119.4,286.1,121.7z"/>
		<path class="st0" d="M312,123.2h-7.1l0.6-2.8h7.1L312,123.2z"/>
		<path class="st0" d="M342.1,125c-1.9,4.7-6.9,6.5-10.1,6.5c-5.3,0-7.8-2.3-7.8-8.6c0-6.3,3.1-18.2,12.4-18.2
			c3.3,0,5.9,1.3,5.9,4.7c0,1.9-0.7,3.2-2.5,3.2c-0.6,0-1.3-0.1-2-0.9c0.9-0.4,1.6-1.9,1.6-3.2c0-1.1-0.6-2.1-2.2-2.1
			c-3.9,0-7.4,9.2-7.4,16.4c0,3.2,0.9,5.5,4.3,5.5c2.8,0,5.3-1.3,6.9-3.5L342.1,125z"/>
		<path class="st0" d="M349.4,113.5l-2.6,11.9c-0.1,0.5-0.1,0.8-0.1,1.1c0,1,0.5,1.3,1.5,1.3c1.4,0,2.7-1.3,3.2-3.1h1.5
			c-2,5.7-5.5,6.5-7.5,6.5c-2.1,0-3.8-1.3-3.8-4.2c0-0.7,0.1-1.4,0.3-2.3l2.4-11.3H349.4z M347.8,106c1.6,0,2.8,1.3,2.8,2.8
			c0,1.5-1.3,2.8-2.8,2.8c-1.6,0-2.8-1.2-2.8-2.8C345,107.3,346.3,106,347.8,106z"/>
		<path class="st0" d="M368.4,113.5l-2.6,11.9c-0.1,0.5-0.1,0.8-0.1,1.1c0,1,0.5,1.3,1.5,1.3c1.4,0,2.3-1.3,2.9-3.1h1.5
			c-2,5.7-5.2,6.5-7.1,6.5c-2,0-3.3-1.2-3.5-3.3c-1.8,2.9-3.8,3.3-5.3,3.3c-2.1,0-3.8-1.3-3.8-4.2c0-0.7,0.1-1.4,0.3-2.3l2.4-11.3
			h5.1l-2.6,11.9c-0.1,0.4-0.1,0.7-0.1,1c0,0.8,0.3,1.4,1.1,1.4c1.4,0,2.3-1.3,2.8-3.1l2.4-11.3H368.4z"/>
		<path class="st0" d="M389.3,106.5l-4.1,18.9c-0.1,0.5-0.1,0.8-0.1,1.1c0,1,0.5,1.3,1.5,1.3c1.4,0,2.3-1.3,2.9-3.1h1.5
			c-2,5.7-5.2,6.3-7.1,6.3c-1.9,0-3.2-1.1-3.5-3c-1.1,1.6-2.7,3.2-5.3,3.2c-2.4,0-4.7-1.5-4.7-5.6c0-4.7,2.9-12.3,9.1-12.3
			c2,0,2.9,0.8,2.9,1.8v0.1l1.7-8.1L389.3,106.5z M380.2,124.7l1.7-8c-0.1-0.4-0.4-1.2-1.5-1.2c-3,0-5,6.3-5,9.6
			c0,2.7,1.1,2.7,1.8,2.7c1,0,2.4-1,2.9-2.9V124.7z"/>
		<path class="st0" d="M407.1,113.5l-2.6,11.9c-0.1,0.5-0.1,0.8-0.1,1.1c0,1,0.5,1.5,1.5,1.5c1.4,0,2.3-1.5,2.9-3.3h1.5
			c-2,5.7-5.2,6.5-7.1,6.5c-2,0-3.3-1.1-3.5-3.2c-1.1,1.6-2.8,3.2-5.3,3.2c-2.4,0-4.7-1.5-4.7-5.6c0-4.7,2.9-12.3,9.1-12.3
			c2,0,2.9,0.8,2.9,1.8v0.2l0.4-1.9H407.1z M394.9,125.1c0,2.7,1.1,2.7,1.8,2.7c1,0,2.5-1.1,2.9-3.1l1.7-7.9c0-0.4-0.3-1.3-1.5-1.3
			C396.8,115.5,394.9,121.8,394.9,125.1z"/>
		<path class="st0" d="M423.9,125.4c-0.1,0.4-0.1,0.7-0.1,1c0,0.8,0.4,1.4,1.5,1.4c0.6,0,0.9-0.1,1.1-0.2c-0.2,2.5-2,3.6-3.9,3.6
			c-1.8,0-3.3-0.9-3.7-2.9c-1.1,1.5-2.7,2.9-5,2.9c-2.4,0-4.7-1.5-4.7-5.6c0-4.7,2.9-12.3,9.1-12.3c2,0,2.9,0.8,2.9,1.8v0.1l1.7-8.1
			l5.3-0.7L423.9,125.4z M420.7,116.7c-0.1-0.4-0.4-1.2-1.5-1.2c-3,0-5,6.3-5,9.6c0,2.7,1.1,2.7,1.8,2.7c0.9,0,2.4-0.8,2.8-2.5
			L420.7,116.7z"/>
		<path class="st0" d="M454,106.5l-4.1,18.9c-0.1,0.5-0.1,0.8-0.1,1.1c0,1,0.5,1.3,1.5,1.3c1.4,0,2.3-1.3,2.9-3.1h1.5
			c-2,5.7-5.2,6.3-7.1,6.3c-1.9,0-3.2-1.1-3.5-3c-1.1,1.6-2.7,3.2-5.3,3.2c-2.4,0-4.7-1.5-4.7-5.6c0-4.7,2.9-12.3,9.1-12.3
			c2,0,2.9,0.8,2.9,1.8v0.1l1.7-8.1L454,106.5z M444.9,124.7l1.7-8c-0.1-0.4-0.4-1.2-1.5-1.2c-3,0-5,6.3-5,9.6
			c0,2.7,1.1,2.7,1.8,2.7c1,0,2.5-1,2.9-2.9V124.7z"/>
		<path class="st0" d="M461.8,127.9c1.3,0,3.1-0.9,4.2-1.9c-0.7,4-3.3,5.2-6.1,5.2c-3.3,0-5.5-1.6-5.5-5.6c0-4,2.3-12.5,9.6-12.5
			c3.2,0,3.9,1.6,3.9,3.4c0,4.1-3.9,7.1-8.2,7.4c0,0.4-0.1,0.7-0.1,1.1C459.6,127.2,460.5,127.9,461.8,127.9z M464.2,115
			c-1.8,0-3.5,3.9-4.3,7.2c2.8-0.1,5.2-2.8,5.2-5.8C465.1,115.6,464.8,115,464.2,115z"/>
		<path class="st0" d="M496.6,131l2.3-15.7l-6.7,15.7h-4.9l0.7-15.8l-5.9,15.8h-2.8l9-24.1c-3.5,1.2-5.6,3.9-5.6,7.9
			c0,1.9,0.5,2.1,0.5,2.4c-2.3,0-3.8-0.9-3.8-3.2c0-4.5,5.9-9.3,11.3-9.3c0.9,0,1.8,0.2,2.7,0.5l-0.8,18.5l7.8-18.5h5.1l-3.7,25.8
			H496.6z"/>
		<path class="st0" d="M525.1,113.5l1.4,7.6c2.1-2.2,3.4-4.3,3.4-5.6c0-0.1,0-0.3,0-0.4c-0.2,0-0.4,0.1-0.6,0.1
			c-1.2,0-1.7-0.9-1.7-2c0-1.1,0.9-1.6,2-1.6c1.6,0,2.4,1.4,2.4,3.1c0,2.3-1.6,4.7-5.1,8.3l0.3,1.8c0.2,1.3,0.5,3.1,2.1,3.1
			c1.4,0,2.7-1.3,3.2-3.1h1.5c-2,5.7-5.4,6.5-7.3,6.5c-2.3,0-3.3-1.4-4.2-4.9c-2.9,2.9-7.4,4.9-11.1,4.9c-3.5,0-6.4-1.5-6.4-5.6
			c0-4,2.3-12.4,9.6-12.4c3.2,0,3.9,1.6,3.9,3.5c0,3.9-3.9,7-8.2,7.3c0,0.4-0.1,0.8-0.1,1.1c0,2.4,1.6,3.3,3.7,3.3
			c2.4,0,5.9-1.4,8.2-4l-2-10.9H525.1z M514.9,115c-1.8,0-3.6,3.9-4.3,7.2c2.8-0.2,5.2-2.9,5.2-5.7C515.8,115.6,515.6,115,514.9,115
			z M516.7,104.7h3.7l-4.3,6.6h-2.7L516.7,104.7z"/>
		<path class="st0" d="M540.8,113.5l-2.6,11.9c-0.1,0.5-0.1,0.8-0.1,1.1c0,1,0.5,1.3,1.5,1.3c1.4,0,2.7-1.3,3.2-3.1h1.5
			c-2,5.7-5.5,6.5-7.5,6.5c-2.1,0-3.8-1.3-3.8-4.2c0-0.7,0.1-1.4,0.3-2.3l2.4-11.3H540.8z M539.2,106c1.6,0,2.8,1.3,2.8,2.8
			c0,1.5-1.3,2.8-2.8,2.8c-1.6,0-2.8-1.2-2.8-2.8C536.4,107.3,537.6,106,539.2,106z"/>
		<path class="st0" d="M553.7,116.5c0-0.9-0.3-1.4-1-1.4c-2.2,0-4.5,6.4-4.5,10.3c0,2.4,0.9,2.9,2.6,2.9c2.8,0,4.5-1.5,6.3-3.5h1.2
			c-2,3.2-5,6.5-9.8,6.5c-3.3,0-5.5-1.6-5.5-5.6c0-4.1,2.3-12.5,9.5-12.5c3.2,0,3.9,1.6,3.9,3.2c0,1.7-0.9,2.6-1.9,2.6
			c-0.4,0-0.8-0.1-1.2-0.4C553.6,117.8,553.7,117.1,553.7,116.5z"/>
		<path class="st0" d="M571.4,117.9c1.2-0.2,2.1-1.8,2.5-2.4h1.1c-0.7,1.5-1.8,3.7-3.7,4.7c-0.4,6.7-4,11-8.4,11
			c-3.3,0-5.7-1.5-5.7-5.5c0-4,2.3-12.4,9.6-12.4C569.7,113.2,571.2,114.8,571.4,117.9z M568.4,120.7c-0.6-0.2-0.9-0.7-0.9-1.6
			c0-0.9,0.4-1.5,1-1.8c-0.1-1.5-0.5-2-1.3-2c-2.5,0-4.6,6.4-4.6,9.8c0,2.3,0.5,2.8,1.8,2.8C566.1,128,567.8,124.8,568.4,120.7z"/>
	</g>
	<g>
		<g>
			<path class="st0" d="M44.7,53.9c-4.9,10.9-16.3,17.4-27.5,17.4C5.2,71.2,0,63.7,0,55c0-9.7,6.6-21.4,17.3-24
				c-4-2.9-5.7-6.9-5.7-11.1C11.6,10.4,20.1,0,32.1,0c7.4,0,13.4,4,13.4,11.6c0,5.6-3.2,9.6-6.9,9.6c-1.6,0-3.1-0.7-4.4-2.5
				c2.3-0.7,4.1-4.9,4.1-8c0-3.8-2.6-5.2-5.2-5.2c-5.5,0-9.6,6.6-9.6,13c0,5.4,2.7,10.6,9.5,12.4c-10,2.2-16.8,13.6-16.8,22.1
				c0,5.2,2.5,9.3,8.9,9.3c5.7,0,14-3.3,17.3-9.4L44.7,53.9z"/>
			<path class="st0" d="M85.8,53c-4.9,5.6-10,9.1-14.3,11.6c-3.9,4.1-9.9,5.6-14.7,5.6c-9.6,0-13.7-6.2-13.7-11.8
				c0-4.3,2.4-7.4,5-8.6c5.2-9.2,8.6-18.3,11.5-27.4l13.9-1.9c1.1,24,2.1,27.6,2.1,33.7c0,1.3-0.1,2.4-0.4,3.5
				c2.5-1.5,5-3.1,6.7-4.6H85.8z M50.6,57.6c-0.9,0-2.1-0.3-2.5-1.2c0,4.3,1.6,6.5,5.7,6.5c4.1,0,8.2-2.1,8.2-8.6
				c0-4.8-0.8-7.7-1.8-21.9c-1.9,6-4.5,11.6-7.6,17.5c1.2,0.6,2.2,1.7,2.2,3.2C54.7,55.2,53,57.6,50.6,57.6z"/>
			<path class="st0" d="M108.7,8.7l-3.2,14.6h5.6l-0.8,3.7h-5.6l-6,27.8c-0.3,1.2-0.4,2.1-0.4,3c0,2.6,1.2,3.4,3.8,3.4
				c3.7,0,7-3.5,8.4-8.1h3.9c-5.3,15.1-14.6,17.1-19.7,17.1c-5.6,0-10-3.3-10-11.1c0-1.8,0.3-3.8,0.8-6l5.6-26h-3.1l0.8-3.7H92
				l2.8-12.8L108.7,8.7z"/>
			<path class="st0" d="M133.8,62.4c7.4,0,11.9-4.1,16.6-9.3h3.2c-5.3,8.5-13.3,17.1-25.8,17.1c-8.8,0-14.6-4.3-14.6-14.7
				c0-10.6,6.1-32.9,25.3-32.9c8.3,0,10.3,4.3,10.3,8.9c0,10.6-10.3,18.9-21.6,19.5c-0.1,1.3-0.2,2.6-0.2,3.7
				C127.1,60.9,129.3,62.4,133.8,62.4z M139.3,27.4c-4.8,0-9.4,9.9-11.2,19.1c7.2-0.5,13.6-7.6,13.6-15.3
				C141.6,28.9,141,27.4,139.3,27.4z"/>
			<path class="st0" d="M185.5,14.1c0.1-0.9,0.2-1.7,0.2-2.5c0-2.1-1.7-3.1-3.6-3.1c-2.1,0-5.2,1.4-6.6,7.6l-1.6,7.3h6.8l-0.7,3.7
				h-6.9l-10.8,50c-2.8,13.2-10.6,15.7-16.8,15.7c-5.7,0-11.1-4-11.1-10c0-8.5,7.2-11.2,16.1-13.9L162.1,16
				C164.9,2.8,173,0.3,179.2,0.3c5.7,0,11.1,4,11.1,10c0,1.5-0.1,2.7-0.3,3.8H185.5z M143.6,84.5c2,0,4.1-1.8,5.3-7.2l1.2-5.4
				c-5.9,1.9-10.3,4.5-10.3,9.5C139.8,82.7,141.5,84.5,143.6,84.5z"/>
			<path class="st0" d="M227.9,23.3l-6.7,31.5c-0.3,1.2-0.4,2.1-0.4,3c0,2.6,1.2,4,3.8,4c3.7,0,6.2-4.1,7.6-8.7h3.9
				c-5.3,15.1-13.8,17.1-18.8,17.1c-5.2,0-8.6-3-9.2-8.5c-2.9,4.3-7.3,8.5-14,8.5c-6.4,0-12.5-3.9-12.5-14.9
				c0-12.5,7.8-32.4,24.1-32.4c5.3,0,7.6,2,7.6,4.7v0.6l1-4.9H227.9z M195.6,53.9c0,7.1,3,7.2,4.7,7.2c2.7,0,6.7-2.8,7.8-8.1
				l4.5-20.9c0-1.1-0.8-3.5-3.8-3.5C200.7,28.6,195.6,45.2,195.6,53.9z"/>
			<path class="st0" d="M259.6,31.4c-3.4,0-5.9,3.9-7.3,8.5l-6.4,29.7h-13.5l9.9-46.3h13.5l-1,4.8c3.9-4.4,8.1-5.2,11-5.2
				c6,0,10.4,3.1,10.4,10.5c0,7.5-4.5,18.7-4.5,23.9c0,2.3,0.9,3.9,3.7,3.9c4.1,0,5.8-3.3,7.9-8.1h3.9
				c-5.2,15.2-12.5,17.1-17.4,17.1c-8.2,0-11.1-5.2-11.1-10.5c0-6.3,4.2-17.7,4.2-23.6C263,33,261.8,31.4,259.6,31.4z"/>
			<path class="st0" d="M306.9,23.3l-6.7,31.5c-0.3,1.2-0.4,2.1-0.4,3c0,2.6,1.2,3.4,3.8,3.4c3.7,0,7-3.5,8.4-8.1h3.9
				c-5.3,15.1-14.6,17.1-19.7,17.1c-5.6,0-10-3.3-10-11.1c0-1.8,0.3-3.8,0.8-6l6.4-29.7H306.9z M302.7,3.6c4.1,0,7.5,3.3,7.5,7.4
				c0,4.1-3.4,7.3-7.5,7.3c-4.1,0-7.4-3.2-7.4-7.3C295.3,6.9,298.6,3.6,302.7,3.6z"/>
			<path class="st0" d="M360.8,23.3L354,54.8c-0.3,1.2-0.4,2.1-0.4,3c0,2.6,1.2,3.4,3.8,3.4c0.8,0,1.4-0.1,2.1-0.4
				c-2.5,6.5-4.3,9.3-9.4,9.3c-5.1,0-8.4-3.2-9.2-8.6c-2.8,4.3-7.3,8.6-14,8.6c-6.4,0-12.5-3.9-12.5-14.9c0-12.5,7.8-32.4,24.1-32.4
				c5.3,0,7.6,2,7.6,4.7v0.6l1-4.9H360.8z M328.5,53.9c0,7.1,3,7.2,4.7,7.2c2.7,0,6.7-2.8,7.8-8.1l4.5-20.9c0-1.1-0.8-3.5-3.8-3.5
				C333.6,28.6,328.5,45.2,328.5,53.9z"/>
			<path class="st1" d="M440.4,36.8c0,4.4-5.6,9.9-12.2,11c-6.1,21.8-17.2,22.2-25.1,22.2c-11.1,0-16.7-7.9-16.7-16
				c0-7.6,4.8-15.6,14.6-17.6c-5.5-2.9-8-7.5-8-12.1c0-7.2,6.4-14.4,17.9-14.4c7.5,0,14.8,2.9,14.8,10.6c0,4.2-1.5,7.3-5.6,7.3
				c-1.3,0-3.1-0.3-4.6-2.1c2-0.6,3.5-4.5,3.5-6.5c0-1.3-0.2-5.9-5.3-5.9c-5.9,0-9.8,4.4-9.8,9.8c0,4.6,3.1,9.8,10.6,13.1
				c-10.2,4.1-14,10.5-14,16c0,5.8,4.3,10.6,9.4,10.6c5.6,0,12.1-3.3,14.6-14.9c-2-0.2-3.9-0.5-5.7-0.5c-3.5,0-6,1.2-7.6,3.6
				l-0.6-0.1c1.6-6.5,7.2-11.2,15.5-11.2c2.3,0,4.1,0.4,6.1,0.4c3,0,6.3-1,7.6-3.4H440.4z"/>
			<path class="st0" d="M492.7,27.9h13.8l6-27.6H526l-14.9,69.2h-13.5l7.5-34.8h-13.8l-7.5,34.8h-13.5l13.6-62.9
				c-8.2,3.4-13.1,10.5-13.1,20.3c0,4.7,1.2,5.5,1.3,6.3c-6.5,0-10-2.3-10-9c0-12.3,17.2-24.1,32.9-24.1c1.3,0,2.5,0.1,3.7,0.2
				L492.7,27.9z"/>
			<path class="st0" d="M570,23.3l-6.7,31.5c-0.3,1.2-0.4,2.1-0.4,3c0,2.6,1.2,3.4,3.8,3.4c3.7,0,6.2-3.5,7.6-8.1h3.9
				c-5.3,15.1-13.8,17.1-18.8,17.1c-5.3,0-8.7-3.1-9.3-8.8c-4.7,7.6-9.9,8.8-13.9,8.8c-5.6,0-10-3.3-10-11.1c0-1.8,0.3-3.8,0.8-6
				l6.4-29.7h13.5l-6.7,31.5c-0.2,0.9-0.3,1.8-0.3,2.6c0,2.1,0.8,3.8,2.8,3.8c3.7,0,6.1-3.5,7.5-8.1l6.4-29.7H570z"/>
			<path class="st0" d="M623.1,23.3l-9.3,42.9c5.7-2,9.2-5.2,11.8-13.2h3.9c-3.7,12.2-10.8,15.7-16.6,17.3l-1.4,6.7
				c-2.8,13.2-10.7,15.7-16.9,15.7c-5.7,0-10.5-3-10.5-9c0-7.8,8.2-11.7,15.3-13.8l1.1-4.9c-2.7,2.9-6.4,5.1-11.2,5.1
				c-6.4,0-12.5-3.9-12.5-14.9c0-12.5,7.8-32.4,24.1-32.4c5.3,0,7.6,2,7.6,4.7v0.6l1-4.8H623.1z M592.5,85.5c2,0,4.2-2.8,5.4-8.2
				l0.6-2.7c-4.8,1.8-9.2,4.2-9.2,7.9C589.4,83.7,590.5,85.5,592.5,85.5z M590.8,53.9c0,7.1,3,7.2,4.7,7.2c2.5,0,6.2-2.5,7.5-7.2
				l4.8-21.9c-0.1-1-0.8-3.4-3.8-3.4C595.9,28.6,590.8,45.2,590.8,53.9z"/>
			<path class="st0" d="M665.4,35c3.3-0.6,5.6-4.6,6.7-6.4h3c-1.9,4-4.7,9.7-9.6,12.4c-1.1,17.8-10.5,29-22.3,29
				c-8.7,0-15-4.1-15-14.6c0-10.6,6.1-32.8,25.4-32.8C660.9,22.5,664.8,26.7,665.4,35z M657.4,42.4c-1.5-0.6-2.2-1.9-2.2-4.2
				c0-2.5,1-4.1,2.6-4.8c-0.2-3.9-1.2-5.3-3.6-5.3c-6.7,0-12.2,16.9-12.2,26c0,6.1,1.2,7.5,4.8,7.5C651.4,61.6,656,53.3,657.4,42.4z
				"/>
		</g>
	</g>
</g>
</svg>
